<svg width="20" height="20" viewBox="0 0 20 20" fill="none" xmlns="http://www.w3.org/2000/svg">
<path d="M2.5 5H4.16667H17.5" stroke="#2A2A2A" stroke-width="1.5" stroke-linecap="round" stroke-linejoin="round"/>
<path d="M6.66669 5.00008V3.33341C6.66669 2.89139 6.84228 2.46746 7.15484 2.1549C7.4674 1.84234 7.89133 1.66675 8.33335 1.66675H11.6667C12.1087 1.66675 12.5326 1.84234 12.8452 2.1549C13.1578 2.46746 13.3334 2.89139 13.3334 3.33341V5.00008M15.8334 5.00008V16.6667C15.8334 17.1088 15.6578 17.5327 15.3452 17.8453C15.0326 18.1578 14.6087 18.3334 14.1667 18.3334H5.83335C5.39133 18.3334 4.9674 18.1578 4.65484 17.8453C4.34228 17.5327 4.16669 17.1088 4.16669 16.6667V5.00008H15.8334Z" stroke="#2A2A2A" stroke-width="1.5" stroke-linecap="round" stroke-linejoin="round"/>
<path d="M8.33331 9.16675V14.1667" stroke="#2A2A2A" stroke-width="1.5" stroke-linecap="round" stroke-linejoin="round"/>
<path d="M11.6667 9.16675V14.1667" stroke="#2A2A2A" stroke-width="1.5" stroke-linecap="round" stroke-linejoin="round"/>
</svg>
