<svg width="28" height="28" viewBox="0 0 28 28" fill="none" xmlns="http://www.w3.org/2000/svg">
<path d="M14.0029 2.21039C7.51244 2.21039 2.25111 7.47594 2.25111 13.9719C2.25111 20.4678 7.51244 25.7333 14.0029 25.7333C20.494 25.7333 25.7553 20.4678 25.7553 13.9719C25.7553 7.47594 20.494 2.21039 14.0029 2.21039ZM16.5586 19.0507C16.8378 19.3286 16.8656 19.7504 16.6221 19.9934C16.3779 20.2364 15.9531 20.2079 15.6739 19.9306L10.2083 14.526C10.0499 14.3683 9.97503 14.1653 9.98225 13.9742C9.9738 13.7815 10.0488 13.5766 10.2077 13.4177L15.6739 8.01315C15.9531 7.73516 16.3773 7.70734 16.6221 7.9503C16.8656 8.19323 16.8379 8.61508 16.5586 8.89304L11.42 13.9719L16.5586 19.0507Z" fill="white"/>
</svg>
