<svg width="24" height="24" viewBox="0 0 24 24" fill="none" xmlns="http://www.w3.org/2000/svg">
<path d="M20.2604 6.98651L13.6736 1.82292C13.1961 1.44856 12.6069 1.24512 12.0002 1.24512C11.3934 1.24512 10.8042 1.44856 10.3268 1.82292L3.73876 6.98651C3.26254 7.36009 2.87745 7.83702 2.6126 8.38127C2.34776 8.92552 2.21007 9.52285 2.20996 10.1281V19.0213C2.20996 20.8429 3.68716 22.3201 5.50876 22.3201H7.80436C8.46676 22.3201 9.00436 21.7825 9.00436 21.1201V17.9437C9.00436 17.2813 9.54196 16.7437 10.2044 16.7437H13.7948C14.4572 16.7437 14.9948 17.2813 14.9948 17.9437V21.1201C14.9948 21.7825 15.5324 22.3201 16.1948 22.3201H18.4904C20.312 22.3201 21.7892 20.8429 21.7892 19.2613V10.3681C21.788 8.90171 21.2252 7.74371 20.2604 6.98651V6.98651Z" fill="#2C7EDF"/>
</svg>
