<svg width="14" height="14" viewBox="0 0 14 14" fill="none" xmlns="http://www.w3.org/2000/svg">
<path d="M5.76131 13.125C5.76131 13.125 0.466197 11.9301 2.8328 5.99922C2.8328 5.99922 3.3701 6.6582 3.29628 6.97539C3.29628 6.97539 3.71737 5.47832 4.62655 4.58418C5.40721 3.81582 6.20018 1.65566 5.46874 0.875C5.46874 0.875 9.09178 1.65566 9.4951 5.56035C9.4951 5.56035 9.95858 4.31621 10.9101 4.19316C10.9101 4.19316 10.6176 4.87676 10.9101 5.90215C10.9101 5.90215 13.9111 11.1727 8.73905 12.9541C8.73905 12.9541 10.2894 11.148 7.00135 8.04863C7.00135 8.04863 6.22616 9.7084 5.76268 10.2936C5.76131 10.2949 4.46796 11.7824 5.76131 13.125Z" fill="#2C7EDF" fill-opacity="0.5"/>
</svg>
