<svg width="24" height="24" viewBox="0 0 24 24" fill="none" xmlns="http://www.w3.org/2000/svg">
<path opacity="0.3" d="M6.2168 7.146C6.2168 7.88839 6.36302 8.6235 6.64712 9.30938C6.93122 9.99526 7.34763 10.6185 7.87258 11.1434C8.39753 11.6684 9.02073 12.0848 9.70661 12.3689C10.3925 12.653 11.1276 12.7992 11.87 12.7992C12.6124 12.7992 13.3475 12.653 14.0334 12.3689C14.7193 12.0848 15.3425 11.6684 15.8674 11.1434C16.3924 10.6185 16.8088 9.99526 17.0929 9.30938C17.377 8.6235 17.5232 7.88839 17.5232 7.146C17.5232 5.64668 16.9276 4.20876 15.8674 3.14858C14.8072 2.0884 13.3693 1.4928 11.87 1.4928C10.3707 1.4928 8.93276 2.0884 7.87258 3.14858C6.8124 4.20876 6.2168 5.64668 6.2168 7.146Z" fill="#2C7EDF"/>
<path d="M2.26563 17.9052C2.26563 19.0118 3.28893 20.0731 5.11044 20.8555C6.93194 21.638 9.40243 22.0776 11.9784 22.0776C14.5544 22.0776 17.0249 21.638 18.8464 20.8555C20.6679 20.0731 21.6912 19.0118 21.6912 17.9052C21.6912 17.3573 21.44 16.8147 20.9519 16.3085C20.4638 15.8023 19.7483 15.3423 18.8464 14.9549C17.9445 14.5674 16.8738 14.2601 15.6953 14.0504C14.5169 13.8407 13.2539 13.7328 11.9784 13.7328C10.7029 13.7328 9.43991 13.8407 8.2615 14.0504C7.08308 14.2601 6.01235 14.5674 5.11044 14.9549C4.20852 15.3423 3.49308 15.8023 3.00497 16.3085C2.51685 16.8147 2.26562 17.3573 2.26563 17.9052Z" fill="#2C7EDF"/>
</svg>
