<svg width="388" height="300" viewBox="0 0 388 300" fill="none" xmlns="http://www.w3.org/2000/svg">
<path d="M76.625 243.25L29 191.685C27.8805 190.474 27.1793 188.936 26.9993 187.296C26.8193 185.657 27.17 184.003 28 182.578L89.4675 77.0776C90.293 75.6616 91.4418 74.4611 92.82 73.5738C94.1983 72.6866 95.7668 72.1378 97.3975 71.9726L238.043 57.7226C239.488 57.5766 240.948 57.7351 242.328 58.1881C243.708 58.6411 244.977 59.3786 246.055 60.3526L340.405 145.603C341.552 146.64 342.363 147.998 342.728 149.501C343.093 151.004 342.998 152.582 342.453 154.03L308.875 243.25H76.625Z" fill="#F4F4F4"/>
<path d="M171.25 138.205C171.25 138.205 173.568 138.523 184.21 138.303C187.09 140.053 199.57 138.94 204.49 138.475C210.177 139.53 212.99 136.775 210.462 135.288C209.685 134.828 208.397 134.49 206.53 134.42C206.652 128.5 192.01 126.558 187.93 135.195C185.772 133.445 181.268 133.608 180.97 135.975C176.805 135.21 173.515 136.073 172.008 136.975C171.208 137.45 170.91 137.938 171.25 138.205Z" fill="white"/>
<path opacity="0.08" d="M171.25 138.205C171.25 138.205 173.568 138.523 184.21 138.303C187.09 140.053 199.57 138.94 204.49 138.475C210.178 139.53 212.99 136.775 210.463 135.288C210.483 135.658 210.357 136.021 210.113 136.3C209.535 136.96 208.448 137.235 207.455 137.15C206.489 137.034 205.557 136.721 204.718 136.23C204.33 135.979 203.895 135.809 203.44 135.73C202.598 135.648 201.87 136.18 201.278 136.673C200.778 135.883 199.55 135.455 198.51 135.715C197.47 135.975 196.76 136.898 196.898 137.773C194.86 137.408 192.783 138.383 190.708 138.228C188.34 138.048 186.208 136.425 183.883 136.838C183.295 136.94 182.753 137.173 182.163 137.27C181.577 137.339 180.986 137.355 180.398 137.318C178.5 137.283 176.603 137.525 174.71 137.43C173.791 137.392 172.881 137.24 172 136.978C171.208 137.45 170.91 137.938 171.25 138.205Z" fill="#21252B"/>
<path d="M91.11 226.11H143.925V123.042H91.11V226.11Z" fill="#E6E6E6"/>
<path d="M100.712 226.11H143.925V123.042H100.712V226.11Z" fill="#F0F0F0"/>
<path d="M90.49 124.725H145.06V123.042H90.49V124.725Z" fill="#E0E0E0"/>
<path d="M90.49 121.36H145.06V119.677H90.49V121.36Z" fill="#E0E0E0"/>
<path d="M91.64 123.042H143.927V121.36H91.64V123.042Z" fill="#F0F0F0"/>
<path d="M131.71 137.227H139.825V129.112H131.71V137.227Z" fill="#E6E6E6"/>
<path d="M131.71 137.227H139.11V129.112H131.71V137.227Z" fill="#F5F5F5"/>
<path d="M119.415 137.227H127.532V129.112H119.415V137.227Z" fill="#E6E6E6"/>
<path d="M119.417 137.227H126.818V129.112H119.417V137.227Z" fill="#F5F5F5"/>
<path d="M107.125 137.227H115.242V129.112H107.125V137.227Z" fill="#E6E6E6"/>
<path d="M107.128 137.227H114.528V129.112H107.128V137.227Z" fill="#F5F5F5"/>
<path d="M131.71 149.178H139.825V141.063H131.71V149.178Z" fill="#E6E6E6"/>
<path d="M131.71 149.178H139.11V141.063H131.71V149.178Z" fill="#F5F5F5"/>
<path d="M119.415 149.178H127.532V141.063H119.415V149.178Z" fill="#E6E6E6"/>
<path d="M119.417 149.178H126.818V141.063H119.417V149.178Z" fill="#F5F5F5"/>
<path d="M107.125 149.178H115.242V141.063H107.125V149.178Z" fill="#E6E6E6"/>
<path d="M107.128 149.178H114.528V141.063H107.128V149.178Z" fill="#F5F5F5"/>
<path d="M131.71 171.065H139.825V162.948H131.71V171.065Z" fill="#E6E6E6"/>
<path d="M131.71 171.065H139.11V162.948H131.71V171.065Z" fill="#F5F5F5"/>
<path d="M119.415 171.065H127.532V162.948H119.415V171.065Z" fill="#E6E6E6"/>
<path d="M119.417 171.065H126.818V162.948H119.417V171.065Z" fill="#F5F5F5"/>
<path d="M107.125 171.065H115.242V162.948H107.125V171.065Z" fill="#E6E6E6"/>
<path d="M107.128 171.065H114.528V162.948H107.128V171.065Z" fill="#F5F5F5"/>
<path d="M131.71 183.015H139.825V174.898H131.71V183.015Z" fill="#E6E6E6"/>
<path d="M131.71 183.015H139.11V174.898H131.71V183.015Z" fill="#F5F5F5"/>
<path d="M119.415 183.015H127.532V174.898H119.415V183.015Z" fill="#E6E6E6"/>
<path d="M119.417 183.015H126.818V174.898H119.417V183.015Z" fill="#F5F5F5"/>
<path d="M107.125 183.015H115.242V174.898H107.125V183.015Z" fill="#E6E6E6"/>
<path d="M107.128 183.015H114.528V174.898H107.128V183.015Z" fill="#F5F5F5"/>
<path d="M131.71 207.338H139.825V199.22H131.71V207.338Z" fill="#E6E6E6"/>
<path d="M131.71 207.338H139.11V199.22H131.71V207.338Z" fill="#F5F5F5"/>
<path d="M119.415 207.338H127.532V199.22H119.415V207.338Z" fill="#E6E6E6"/>
<path d="M119.417 207.338H126.818V199.22H119.417V207.338Z" fill="#F5F5F5"/>
<path d="M107.125 207.338H115.242V199.22H107.125V207.338Z" fill="#E6E6E6"/>
<path d="M107.128 207.338H114.528V199.22H107.128V207.338Z" fill="#F5F5F5"/>
<path d="M131.71 219.29H139.825V211.172H131.71V219.29Z" fill="#E6E6E6"/>
<path d="M131.71 219.29H139.11V211.172H131.71V219.29Z" fill="#F5F5F5"/>
<path d="M119.415 219.29H127.532V211.172H119.415V219.29Z" fill="#E6E6E6"/>
<path d="M119.417 219.29H126.818V211.172H119.417V219.29Z" fill="#F5F5F5"/>
<path d="M107.125 219.29H115.242V211.172H107.125V219.29Z" fill="#E6E6E6"/>
<path d="M107.128 219.29H114.528V211.172H107.128V219.29Z" fill="#F5F5F5"/>
<path d="M91.11 155.635H143.925V154.885H91.11V155.635Z" fill="#E0E0E0"/>
<path d="M91.11 193.045H143.925V192.295H91.11V193.045Z" fill="#E0E0E0"/>
<path d="M241.912 153.253H205.385V242.138H241.912V153.253Z" fill="#E0E0E0"/>
<path d="M231.51 153.253H205.385V242.138H231.51V153.253Z" fill="#F0F0F0"/>
<path d="M217.8 160.557H208.077V165.277H217.8V160.557Z" fill="#E6E6E6"/>
<path d="M217.8 160.557H208.725V165.277H217.8V160.557Z" fill="#F5F5F5"/>
<path d="M229.045 160.557H219.322V165.277H229.045V160.557Z" fill="#E6E6E6"/>
<path d="M229.045 160.557H219.97V165.277H229.045V160.557Z" fill="#F5F5F5"/>
<path d="M217.8 169.44H208.077V174.16H217.8V169.44Z" fill="#E6E6E6"/>
<path d="M217.8 169.44H208.725V174.16H217.8V169.44Z" fill="#F5F5F5"/>
<path d="M229.045 169.44H219.322V174.16H229.045V169.44Z" fill="#E6E6E6"/>
<path d="M229.045 169.44H219.97V174.16H229.045V169.44Z" fill="#F5F5F5"/>
<path d="M217.8 180.795H208.077V185.515H217.8V180.795Z" fill="#E6E6E6"/>
<path d="M217.8 180.795H208.725V185.515H217.8V180.795Z" fill="#F5F5F5"/>
<path d="M229.045 180.795H219.322V185.515H229.045V180.795Z" fill="#E6E6E6"/>
<path d="M229.045 180.795H219.97V185.515H229.045V180.795Z" fill="#F5F5F5"/>
<path d="M217.8 187.318H208.077V192.038H217.8V187.318Z" fill="#E6E6E6"/>
<path d="M217.8 187.318H208.725V192.038H217.8V187.318Z" fill="#F5F5F5"/>
<path d="M229.045 187.318H219.322V192.038H229.045V187.318Z" fill="#E6E6E6"/>
<path d="M229.045 187.318H219.97V192.038H229.045V187.318Z" fill="#F5F5F5"/>
<path d="M217.8 198.035H208.077V202.755H217.8V198.035Z" fill="#E6E6E6"/>
<path d="M217.8 198.035H208.725V202.755H217.8V198.035Z" fill="#F5F5F5"/>
<path d="M229.045 198.035H219.322V202.755H229.045V198.035Z" fill="#E6E6E6"/>
<path d="M229.045 198.035H219.97V202.755H229.045V198.035Z" fill="#F5F5F5"/>
<path d="M217.8 204.56H208.077V209.28H217.8V204.56Z" fill="#E6E6E6"/>
<path d="M217.8 204.56H208.725V209.28H217.8V204.56Z" fill="#F5F5F5"/>
<path d="M229.045 204.56H219.322V209.28H229.045V204.56Z" fill="#E6E6E6"/>
<path d="M229.045 204.56H219.97V209.28H229.045V204.56Z" fill="#F5F5F5"/>
<path d="M217.8 216.223H208.077V220.943H217.8V216.223Z" fill="#E6E6E6"/>
<path d="M217.8 216.223H208.725V220.943H217.8V216.223Z" fill="#F5F5F5"/>
<path d="M229.045 216.223H219.322V220.943H229.045V216.223Z" fill="#E6E6E6"/>
<path d="M229.045 216.223H219.97V220.943H229.045V216.223Z" fill="#F5F5F5"/>
<path d="M217.8 224.837H208.077V229.557H217.8V224.837Z" fill="#E6E6E6"/>
<path d="M217.8 224.837H208.725V229.557H217.8V224.837Z" fill="#F5F5F5"/>
<path d="M229.045 224.837H219.322V229.557H229.045V224.837Z" fill="#E6E6E6"/>
<path d="M229.045 224.837H219.97V229.557H229.045V224.837Z" fill="#F5F5F5"/>
<path opacity="0.05" d="M241.912 177.07H205.385V177.882H241.912V177.07Z" fill="black"/>
<path opacity="0.05" d="M241.912 194.63H205.385V195.443H241.912V194.63Z" fill="black"/>
<path opacity="0.05" d="M241.912 212.345H205.385V213.158H241.912V212.345Z" fill="black"/>
<path d="M241.912 150.622H203.665V153.462H241.912V150.622Z" fill="#E0E0E0"/>
<path opacity="0.05" d="M241.913 150.622H233.173V153.462H241.913V150.622Z" fill="black"/>
<path d="M297.645 126.67V224.077L292.703 238.147H254.753V126.67H297.645Z" fill="#E6E6E6"/>
<path d="M281.767 126.67H238.872V238.15H281.767V126.67Z" fill="#F0F0F0"/>
<path d="M278.025 134.237H242.615V139.915H278.025V134.237Z" fill="#E6E6E6"/>
<path d="M278.025 134.237H243.99V139.915H278.025V134.237Z" fill="#F5F5F5"/>
<path d="M278.025 143.795H242.615V149.472H278.025V143.795Z" fill="#E6E6E6"/>
<path d="M278.025 143.795H243.99V149.472H278.025V143.795Z" fill="#F5F5F5"/>
<path d="M278.025 153.73H242.615V159.407H278.025V153.73Z" fill="#E6E6E6"/>
<path d="M278.025 153.73H243.99V159.407H278.025V153.73Z" fill="#F5F5F5"/>
<path d="M278.025 163.663H242.615V169.34H278.025V163.663Z" fill="#E6E6E6"/>
<path d="M278.025 163.663H243.99V169.34H278.025V163.663Z" fill="#F5F5F5"/>
<path d="M278.025 173.598H242.615V179.275H278.025V173.598Z" fill="#E6E6E6"/>
<path d="M278.025 173.598H243.99V179.275H278.025V173.598Z" fill="#F5F5F5"/>
<path d="M278.025 183.53H242.615V189.207H278.025V183.53Z" fill="#E6E6E6"/>
<path d="M278.025 183.53H243.99V189.207H278.025V183.53Z" fill="#F5F5F5"/>
<path d="M278.025 194.477H242.615V200.155H278.025V194.477Z" fill="#E6E6E6"/>
<path d="M278.025 194.477H243.99V200.155H278.025V194.477Z" fill="#F5F5F5"/>
<path d="M278.025 205.428H242.615V211.105H278.025V205.428Z" fill="#E6E6E6"/>
<path d="M278.025 205.428H243.99V211.105H278.025V205.428Z" fill="#F5F5F5"/>
<path d="M278.025 216.375H242.615V222.053H278.025V216.375Z" fill="#E6E6E6"/>
<path d="M278.025 216.375H243.99V222.053H278.025V216.375Z" fill="#F5F5F5"/>
<path d="M278.025 227.322H242.615V233H278.025V227.322Z" fill="#E6E6E6"/>
<path d="M278.025 227.322H243.99V233H278.025V227.322Z" fill="#F5F5F5"/>
<path d="M298.76 125.547H237.66V128.267H298.76V125.547Z" fill="#E0E0E0"/>
<path d="M298.76 120.64H237.66V123.36H298.76V120.64Z" fill="#E0E0E0"/>
<path d="M296.73 122.828H238.872V125.548H296.73V122.828Z" fill="#F0F0F0"/>
<path d="M297.645 134.235H285.693V139.915H297.645V134.235Z" fill="#E0E0E0"/>
<path d="M297.645 143.583H285.693V149.263H297.645V143.583Z" fill="#E0E0E0"/>
<path d="M297.645 152.93H285.693V158.61H297.645V152.93Z" fill="#E0E0E0"/>
<path d="M297.645 163.663H285.693V169.343H297.645V163.663Z" fill="#E0E0E0"/>
<path d="M297.645 173.595H285.693V179.275H297.645V173.595Z" fill="#E0E0E0"/>
<path d="M297.645 183.53H285.693V189.21H297.645V183.53Z" fill="#E0E0E0"/>
<path d="M297.645 194.477H285.693V200.157H297.645V194.477Z" fill="#E0E0E0"/>
<path d="M297.645 205.425H285.693V211.105H297.645V205.425Z" fill="#E0E0E0"/>
<path d="M297.645 216.373H285.693V222.053H297.645V216.373Z" fill="#E0E0E0"/>
<path d="M339.897 144.983L339.598 144.71C334.55 147.743 332.402 153.02 332.402 153.02C330.095 150.293 325.607 145.71 322.43 147.02C317.982 148.87 324.385 155.503 324.385 155.503C309.163 160.518 311.767 171.315 311.767 171.315C310.232 169.858 308.4 168.918 306.267 169.128C298.712 169.878 304.017 179.695 304.017 179.695C276.055 176.623 274.32 194.845 274.32 194.845C274.32 194.845 271.115 183.263 267.228 183.95C263.34 184.638 265.453 197.073 265.453 197.073C265.453 197.073 262.93 189.61 258.22 191.09C253.51 192.57 258.22 203.533 258.22 203.533C244.47 204.083 247.023 211.783 247.023 211.783C244.27 210.502 241.27 209.847 238.235 209.865C227.953 209.825 225.9 215.81 225.548 217.295L225.313 217.078C223.888 213.473 215.843 209.578 210.343 209.125C208.806 208.999 207.264 208.959 205.723 209.005C204.322 208.959 202.92 208.999 201.525 209.125C199.629 209.343 197.775 209.841 196.025 210.603C192.766 211.62 189.676 213.116 186.858 215.043C185.608 212.773 182.743 209.838 176.193 209.865C173.417 209.852 170.679 210.51 168.213 211.783C168.213 211.783 170.538 204.073 158.043 203.533C158.043 203.533 162.32 192.57 158.043 191.09C153.765 189.61 151.5 197.085 151.5 197.085C151.5 197.085 153.423 184.65 149.89 183.963C146.358 183.275 143.448 194.858 143.448 194.858C143.448 194.858 141.873 176.635 116.473 179.708C116.473 179.708 121.298 169.885 114.438 169.14C112.508 168.93 110.845 169.87 109.45 171.328C109.45 171.328 111.818 160.53 97.99 155.515C97.99 155.515 103.805 148.883 99.765 147.033C96.88 145.71 92.8025 150.283 90.7075 153.033C90.7075 153.033 87.38 145.59 80.1375 142.96C55.5 134 57 172.25 57 172.25C32.5 169.5 25.9325 186.688 28.5 191L52.25 216.775L76.125 242.625H308.375L341.945 153.41C342.49 151.962 342.585 150.384 342.22 148.881C341.855 147.378 341.045 146.019 339.897 144.983Z" fill="#D9DCDE"/>
<path d="M331.985 179.878C327.592 182.16 326.595 185.538 326.595 185.538C323.845 185.79 321.215 186.797 319 188.448C313.055 192.975 317.25 198.92 317.25 198.92C315.392 197.463 312.325 196.245 308 198.298C302.825 200.748 304.215 206.735 304.215 206.735C283.502 201.788 279.31 217.525 279.31 217.525C270.522 218.815 272.78 223.745 272.78 223.745C248.062 221.308 249.37 236.133 249.37 236.133C248.995 234.133 247.685 232.133 245.5 232.07C241.167 231.948 242.342 236.57 242.342 236.57C242.342 236.57 236.15 229.45 231.25 231.698C226.832 233.725 228.527 241.198 228.895 242.625H308.375L331.985 179.878Z" fill="#AFB3B8"/>
<path d="M76.125 242.625H190.957C194.345 228.625 183.317 229.375 177.482 236.688C179.082 231.92 171.822 229.723 170.452 236.258C170.452 236.258 171.76 221.433 147.042 223.87C147.042 223.87 148.5 212 136 218C136 218 136 204.5 117.5 212.5C119.5 206.133 102.607 201.59 96.25 206.5C100.115 201.375 101.75 186.25 85 192C85 192 82.5225 185.46 77.5 184C72.75 182.618 65.5875 186.195 60.5 190C52.9225 178.618 39.13 185.443 37.25 193C35.6 195.098 35.985 196.655 35.8575 199.035L76.125 242.625Z" fill="#AFB3B8"/>
<path d="M155.16 193.105C154.268 207.882 155.48 223.523 154.723 238.318L160 239L160.21 235.985L160.25 236C161.25 222 163.915 206.967 165.22 192.932L155.16 193.105Z" fill="#FC9D9D"/>
<path d="M160.615 231.598H154.94C154.903 233.848 154.838 236.098 154.723 238.318L157.18 238.635L160.043 238.385L160.21 235.978L160.25 235.993C160.355 234.538 160.483 233.07 160.62 231.595L160.615 231.598Z" fill="white"/>
<path d="M154.615 236.34L154.597 236.86C154.593 237.303 154.513 237.742 154.362 238.158L153.715 239.975C153.536 240.49 153.445 241.031 153.445 241.575V241.665C153.448 241.754 153.468 241.842 153.505 241.922C153.542 242.003 153.595 242.076 153.661 242.136C153.726 242.196 153.803 242.243 153.886 242.273C153.97 242.304 154.059 242.317 154.147 242.313H160.607C160.786 242.318 160.96 242.253 161.091 242.132C161.222 242.011 161.301 241.844 161.31 241.665V241.433C161.31 240.962 161.237 240.494 161.092 240.045L160.535 238.193C160.413 237.815 160.352 237.42 160.355 237.023V236.34C160.352 235.911 160.184 235.498 159.887 235.188L159.797 235.08C159.204 234.476 158.396 234.132 157.55 234.121C156.704 234.111 155.888 234.436 155.28 235.025L155.12 235.188C154.819 235.499 154.64 235.908 154.615 236.34Z" fill="#363C54"/>
<path opacity="0.6" d="M153.445 241.163H161.292C161.307 241.252 161.313 241.342 161.31 241.433V241.665C161.307 241.754 161.287 241.842 161.25 241.922C161.212 242.003 161.16 242.076 161.094 242.136C161.029 242.196 160.952 242.243 160.869 242.273C160.785 242.304 160.696 242.317 160.607 242.313H154.147C153.969 242.318 153.795 242.253 153.664 242.132C153.533 242.011 153.454 241.844 153.445 241.665V241.165V241.163Z" fill="black"/>
<path d="M158.88 236.627C158.896 236.588 158.897 236.545 158.884 236.505C158.871 236.465 158.844 236.431 158.807 236.41C158.39 236.206 157.932 236.099 157.467 236.099C157.003 236.099 156.545 236.206 156.127 236.41C156.108 236.419 156.091 236.432 156.077 236.448C156.063 236.464 156.052 236.483 156.045 236.503C156.038 236.524 156.036 236.545 156.037 236.566C156.039 236.588 156.045 236.608 156.055 236.627C156.064 236.647 156.077 236.664 156.093 236.678C156.108 236.692 156.127 236.703 156.147 236.709C156.167 236.716 156.188 236.719 156.209 236.717C156.23 236.716 156.251 236.71 156.27 236.7C156.641 236.523 157.047 236.432 157.457 236.432C157.868 236.432 158.274 236.523 158.645 236.7C158.666 236.714 158.692 236.72 158.717 236.717C158.75 236.717 158.782 236.709 158.81 236.693C158.839 236.678 158.863 236.655 158.88 236.627Z" fill="white"/>
<path d="M158.88 237.455C158.896 237.416 158.897 237.373 158.884 237.334C158.871 237.294 158.843 237.261 158.807 237.24C158.391 237.035 157.932 236.928 157.467 236.928C157.003 236.928 156.544 237.035 156.127 237.24C156.089 237.259 156.06 237.292 156.047 237.333C156.033 237.373 156.036 237.417 156.055 237.455C156.074 237.493 156.107 237.522 156.147 237.536C156.188 237.549 156.232 237.546 156.27 237.528C156.641 237.35 157.046 237.258 157.457 237.258C157.868 237.258 158.274 237.35 158.645 237.528C158.666 237.541 158.692 237.547 158.717 237.545C158.75 237.545 158.782 237.537 158.81 237.521C158.839 237.505 158.863 237.483 158.88 237.455Z" fill="white"/>
<path d="M158.88 238.265C158.896 238.226 158.897 238.183 158.884 238.143C158.871 238.103 158.844 238.069 158.807 238.048C158.39 237.843 157.932 237.737 157.467 237.737C157.003 237.737 156.545 237.843 156.127 238.048C156.108 238.057 156.091 238.07 156.077 238.086C156.063 238.102 156.052 238.121 156.045 238.141C156.038 238.161 156.036 238.183 156.037 238.204C156.039 238.225 156.045 238.246 156.055 238.265C156.064 238.284 156.077 238.301 156.093 238.315C156.108 238.33 156.127 238.34 156.147 238.347C156.167 238.354 156.188 238.356 156.209 238.355C156.23 238.353 156.251 238.347 156.27 238.338C156.641 238.161 157.047 238.07 157.457 238.07C157.868 238.07 158.274 238.161 158.645 238.338C158.666 238.351 158.692 238.357 158.717 238.355C158.75 238.355 158.782 238.347 158.81 238.331C158.839 238.315 158.863 238.293 158.88 238.265Z" fill="white"/>
<path d="M185.5 238.845L181.25 235.652C180.911 235.39 180.631 235.059 180.429 234.68C180.227 234.301 180.108 233.883 180.08 233.455L180.75 203.5C180.75 203.338 180.75 203.177 180.735 203.015L179.985 192.875L169.485 194.05L171.423 205.7V205.95C171.192 210.883 171.553 215.826 172.498 220.673L172.658 221.503C173.21 224.4 173.855 228.272 174.288 231.84L174.845 238.577L185.5 238.845Z" fill="#FC9D9D"/>
<path d="M174.302 231.833L174.86 238.57L185.5 238.845L181.25 235.653C180.91 235.39 180.63 235.058 180.429 234.68C180.227 234.301 180.108 233.883 180.08 233.455L180.222 231.598L174.3 231.833" fill="white"/>
<path opacity="0.15" d="M175.25 234.75C175.352 235.943 177.023 236.705 178.145 237.155L179.75 237.793L174.863 238.328L174.363 232.388C173.933 228.67 173.25 224.545 172.667 221.495L172.508 220.665C171.563 215.818 171.202 210.875 171.432 205.943V205.693L170.25 197.5L172.25 197.25L173.25 205.5C173.25 205.5 172.5 215 174.12 222.408C174.12 222.408 174.77 228.408 175.12 232.388C175.175 233.028 175.22 233.615 175.255 234.115L175.25 234.75Z" fill="black"/>
<path d="M174.777 236.1L177.16 236.85C177.331 236.903 177.512 236.912 177.687 236.875C177.862 236.839 178.025 236.759 178.16 236.642L180.042 235.037C180.248 234.861 180.508 234.761 180.779 234.755C181.049 234.748 181.314 234.836 181.527 235.002L185.777 238.3L189.128 239.405C189.609 239.568 190.027 239.876 190.324 240.288C190.621 240.7 190.782 241.194 190.785 241.702C190.784 241.844 190.728 241.98 190.628 242.08C190.527 242.18 190.392 242.237 190.25 242.237H175.4C175.232 242.238 175.066 242.205 174.91 242.141C174.755 242.077 174.614 241.983 174.495 241.865C174.376 241.746 174.281 241.605 174.217 241.45C174.153 241.294 174.12 241.128 174.12 240.96V236.585C174.122 236.506 174.141 236.428 174.178 236.358C174.214 236.288 174.266 236.227 174.329 236.18C174.393 236.133 174.466 236.102 174.544 236.088C174.622 236.074 174.702 236.078 174.777 236.1Z" fill="#363C54"/>
<path opacity="0.6" d="M174.138 241.16H190.715C190.765 241.334 190.789 241.514 190.785 241.695C190.784 241.837 190.728 241.973 190.628 242.073C190.527 242.173 190.392 242.23 190.25 242.23H175.4C175.097 242.23 174.804 242.122 174.573 241.926C174.342 241.73 174.188 241.459 174.138 241.16Z" fill="black"/>
<path d="M181.545 236.705L182.445 235.737C182.469 235.711 182.482 235.677 182.482 235.642C182.482 235.607 182.469 235.573 182.445 235.547C182.42 235.522 182.386 235.508 182.35 235.508C182.315 235.508 182.28 235.522 182.255 235.547L181.355 236.515C181.331 236.541 181.318 236.575 181.318 236.61C181.318 236.645 181.331 236.679 181.355 236.705C181.379 236.727 181.41 236.739 181.443 236.74C181.479 236.737 181.514 236.725 181.545 236.705Z" fill="white"/>
<path d="M182.25 237.25L183.148 236.282C183.173 236.257 183.187 236.223 183.187 236.187C183.187 236.152 183.173 236.118 183.148 236.092C183.122 236.068 183.088 236.055 183.053 236.055C183.017 236.055 182.984 236.068 182.958 236.092L182.06 237.06C182.035 237.085 182.021 237.119 182.021 237.155C182.021 237.19 182.035 237.224 182.06 237.25C182.083 237.272 182.114 237.284 182.145 237.285C182.182 237.281 182.218 237.269 182.25 237.25Z" fill="white"/>
<path d="M182.962 237.81L183.86 236.842C183.885 236.817 183.899 236.783 183.899 236.747C183.899 236.712 183.885 236.678 183.86 236.652C183.834 236.628 183.8 236.615 183.765 236.615C183.73 236.615 183.696 236.628 183.67 236.652L182.772 237.62C182.747 237.645 182.733 237.679 182.733 237.715C182.733 237.75 182.747 237.784 182.772 237.81C182.796 237.831 182.826 237.844 182.857 237.845C182.896 237.847 182.933 237.835 182.962 237.81Z" fill="white"/>
<path d="M165.643 198L154.243 197.982L154.9 182.815C154.967 181.273 154.918 179.729 154.753 178.195C154.42 175.083 154.503 172.25 154.675 168.87L155 167.25L177.585 169.66L180.673 196.367L169.33 197.542L167 182.25L165.643 198Z" fill="#21252B"/>
<g opacity="0.3">
<path opacity="0.3" d="M167.25 182.502L167 182.497L167.125 171.277H168.357V178.087L167.613 179.557L167.387 179.442L168.107 178.027V171.527H167.375L167.25 182.502Z" fill="black"/>
</g>
<path opacity="0.3" d="M156.288 198L156.852 187.35C156.939 185.83 156.939 184.307 156.852 182.787C156.622 178.938 156.755 175.075 157.25 171.25L154.5 169.25V172.75C154.388 174.437 154.545 175.595 154.637 177.285C154.947 179.996 155.03 182.728 154.887 185.452L154.25 198H156.288Z" fill="black"/>
<g opacity="0.3">
<path opacity="0.3" d="M177.522 175.467C175.15 173.292 174.49 170.217 174.482 170.2L174.732 170.15C174.732 170.18 175.385 173.15 177.697 175.282L177.522 175.467Z" fill="black"/>
</g>
<path opacity="0.3" d="M169.33 197.542L170.973 197.292L168.75 183.905C168.465 181.87 167 182.5 167 182.5L169.33 197.542Z" fill="black"/>
<path d="M151.21 151.14L151.46 148.76L153.54 156.417L154.29 171.402L160.977 171.855C166.76 172.28 172.569 171.521 178.048 169.625C177.578 159.522 175.798 146.012 175.798 146.012L175.175 141.85L183.175 137.85L179.925 130.3L176.335 131.12C174.67 131.33 170.693 132.09 170.693 132.09L164.077 132.382L155.762 132.007L146.887 135.18C143.975 136.635 143.975 140.797 143.975 140.797L143.182 150.297L151.21 151.14Z" fill="#363C54"/>
<path d="M151.365 177.125L150.5 162.75L150.463 162.767L150.18 158.29L150.71 151.14L143.685 150.32L143.585 157.775C143.544 158.278 143.583 158.784 143.7 159.275L144.773 165.545L148.023 178.045L151.365 177.125Z" fill="#FC9D9D"/>
<path d="M191.772 129.565C188.787 124.98 175.195 118.285 175.195 118.285L172.5 120.5L183.182 129.565L179.932 130.315L183.182 137.865L189.575 134.675C193.132 132.9 191.772 129.565 191.772 129.565Z" fill="#FC9D9D"/>
<path d="M154.699 182.093L146.414 180.095C146.297 180.066 146.18 180.138 146.152 180.255L145.198 184.207C145.17 184.323 145.242 184.441 145.359 184.469L153.644 186.467C153.761 186.496 153.878 186.424 153.906 186.307L154.859 182.355C154.887 182.238 154.816 182.121 154.699 182.093Z" fill="#21252B"/>
<path opacity="0.3" d="M154.699 182.093L146.414 180.095C146.297 180.066 146.18 180.138 146.152 180.255L145.198 184.207C145.17 184.323 145.242 184.441 145.359 184.469L153.644 186.467C153.761 186.496 153.878 186.424 153.906 186.307L154.859 182.355C154.887 182.238 154.816 182.121 154.699 182.093Z" fill="black"/>
<path d="M154.416 182.021L146.131 180.022C146.014 179.994 145.897 180.066 145.869 180.183L144.915 184.134C144.887 184.251 144.959 184.369 145.076 184.397L153.361 186.395C153.478 186.423 153.595 186.351 153.623 186.235L154.576 182.283C154.605 182.166 154.533 182.049 154.416 182.021Z" fill="#21252B"/>
<path opacity="0.4" d="M153.853 182.8C153.906 182.75 153.939 182.683 153.946 182.611C153.953 182.539 153.934 182.467 153.893 182.408C153.871 182.38 153.845 182.358 153.815 182.341C153.785 182.325 153.751 182.315 153.717 182.312C153.683 182.309 153.648 182.313 153.616 182.324C153.583 182.334 153.553 182.352 153.528 182.375C153.474 182.424 153.441 182.492 153.434 182.564C153.427 182.637 153.447 182.709 153.49 182.768C153.511 182.794 153.537 182.817 153.567 182.833C153.597 182.849 153.63 182.859 153.664 182.862C153.698 182.865 153.732 182.861 153.765 182.85C153.797 182.84 153.827 182.823 153.853 182.8Z" fill="black"/>
<path d="M153.903 182.825C153.957 182.776 153.991 182.709 153.999 182.637C154.006 182.564 153.986 182.491 153.943 182.433C153.922 182.406 153.895 182.384 153.865 182.367C153.835 182.351 153.802 182.341 153.768 182.338C153.734 182.335 153.7 182.339 153.668 182.35C153.635 182.36 153.606 182.377 153.58 182.4C153.527 182.45 153.494 182.517 153.487 182.589C153.479 182.661 153.498 182.733 153.54 182.793C153.561 182.819 153.588 182.842 153.617 182.858C153.647 182.874 153.68 182.884 153.714 182.887C153.748 182.89 153.783 182.886 153.815 182.876C153.847 182.865 153.877 182.848 153.903 182.825Z" fill="#3F4249"/>
<path opacity="0.5" d="M153.85 182.75C153.883 182.718 153.903 182.675 153.907 182.629C153.911 182.584 153.899 182.538 153.872 182.5C153.859 182.48 153.841 182.464 153.82 182.452C153.8 182.44 153.777 182.432 153.753 182.43C153.729 182.428 153.705 182.431 153.682 182.439C153.66 182.448 153.639 182.461 153.622 182.478C153.59 182.51 153.57 182.553 153.566 182.599C153.561 182.644 153.574 182.69 153.6 182.728C153.613 182.748 153.631 182.764 153.652 182.776C153.673 182.788 153.696 182.796 153.72 182.798C153.744 182.8 153.768 182.797 153.79 182.789C153.813 182.781 153.833 182.767 153.85 182.75Z" fill="black"/>
<path opacity="0.4" d="M153.85 182.607C153.852 182.568 153.841 182.528 153.817 182.496C153.793 182.464 153.759 182.442 153.72 182.432H153.75C153.772 182.432 153.794 182.437 153.815 182.446C153.835 182.454 153.854 182.467 153.869 182.483C153.885 182.5 153.897 182.519 153.905 182.54C153.913 182.56 153.916 182.583 153.915 182.605C153.914 182.651 153.897 182.695 153.866 182.729C153.835 182.763 153.793 182.785 153.748 182.79H153.713C153.754 182.781 153.79 182.758 153.815 182.724C153.84 182.691 153.853 182.649 153.85 182.607Z" fill="black"/>
<path opacity="0.4" d="M153.853 182.8C153.906 182.75 153.939 182.683 153.946 182.611C153.953 182.539 153.934 182.467 153.893 182.408C153.871 182.38 153.845 182.358 153.815 182.341C153.785 182.325 153.751 182.315 153.717 182.312C153.683 182.309 153.648 182.313 153.616 182.324C153.583 182.334 153.553 182.352 153.528 182.375C153.474 182.424 153.441 182.492 153.434 182.564C153.427 182.637 153.447 182.709 153.49 182.768C153.511 182.794 153.537 182.817 153.567 182.833C153.597 182.849 153.63 182.859 153.664 182.862C153.698 182.865 153.732 182.861 153.765 182.85C153.797 182.84 153.827 182.823 153.853 182.8Z" fill="black"/>
<path d="M153.903 182.825C153.957 182.776 153.991 182.709 153.999 182.637C154.006 182.564 153.986 182.491 153.943 182.433C153.922 182.406 153.895 182.384 153.865 182.367C153.835 182.351 153.802 182.341 153.768 182.338C153.734 182.335 153.7 182.339 153.668 182.35C153.635 182.36 153.606 182.377 153.58 182.4C153.527 182.45 153.494 182.517 153.487 182.589C153.479 182.661 153.498 182.733 153.54 182.793C153.561 182.819 153.588 182.842 153.617 182.858C153.647 182.874 153.68 182.884 153.714 182.887C153.748 182.89 153.783 182.886 153.815 182.876C153.847 182.865 153.877 182.848 153.903 182.825Z" fill="#3F4249"/>
<path opacity="0.5" d="M153.85 182.75C153.883 182.718 153.903 182.675 153.907 182.629C153.911 182.584 153.899 182.538 153.872 182.5C153.859 182.48 153.841 182.464 153.82 182.452C153.8 182.44 153.777 182.432 153.753 182.43C153.729 182.428 153.705 182.431 153.682 182.439C153.66 182.448 153.639 182.461 153.622 182.478C153.59 182.51 153.57 182.553 153.566 182.599C153.561 182.644 153.574 182.69 153.6 182.728C153.613 182.748 153.631 182.764 153.652 182.776C153.673 182.788 153.696 182.796 153.72 182.798C153.744 182.8 153.768 182.797 153.79 182.789C153.813 182.781 153.833 182.767 153.85 182.75Z" fill="black"/>
<path opacity="0.4" d="M153.85 182.607C153.852 182.568 153.841 182.528 153.817 182.496C153.793 182.464 153.759 182.442 153.72 182.432H153.75C153.772 182.432 153.794 182.437 153.815 182.446C153.835 182.454 153.854 182.467 153.869 182.483C153.885 182.5 153.897 182.519 153.905 182.54C153.913 182.56 153.916 182.583 153.915 182.605C153.914 182.651 153.897 182.695 153.866 182.729C153.835 182.763 153.793 182.785 153.748 182.79H153.713C153.754 182.781 153.79 182.758 153.815 182.724C153.84 182.691 153.853 182.649 153.85 182.607Z" fill="black"/>
<g opacity="0.3">
<path opacity="0.3" d="M150.932 142.92C150.907 142.922 150.883 142.914 150.863 142.899C150.843 142.884 150.83 142.862 150.825 142.837C150.609 141.72 150.171 140.658 149.536 139.713C148.902 138.768 148.085 137.96 147.132 137.337C147.12 137.331 147.11 137.322 147.102 137.311C147.093 137.3 147.087 137.288 147.084 137.275C147.08 137.262 147.079 137.248 147.081 137.235C147.082 137.221 147.087 137.208 147.094 137.196C147.1 137.184 147.109 137.174 147.12 137.166C147.131 137.157 147.143 137.151 147.156 137.148C147.169 137.144 147.183 137.143 147.196 137.145C147.21 137.146 147.223 137.151 147.235 137.157C148.211 137.795 149.05 138.621 149.702 139.588C150.353 140.555 150.804 141.643 151.027 142.787C151.03 142.801 151.03 142.814 151.028 142.827C151.025 142.841 151.02 142.853 151.013 142.865C151.005 142.876 150.996 142.885 150.984 142.893C150.973 142.9 150.961 142.905 150.947 142.907L150.932 142.92Z" fill="black"/>
</g>
<path opacity="0.2" d="M154.298 171.403L157.713 171.68V171.18L156.298 157.395C156.197 156.431 155.935 155.49 155.523 154.613L151.75 144.45L150.918 142.578L151.105 143.235C151.51 145 151.76 147.5 151.605 148.805L151.735 149.51L153.565 156.418L154.298 171.403Z" fill="black"/>
<path d="M172.387 116.525L171.5 116.103L169.22 114.955L167.04 114.943C166.984 114.953 166.934 114.985 166.9 115.032C166.867 115.078 166.852 115.136 166.86 115.193C166.88 115.443 166.99 115.815 167.465 115.733L165.877 115.578C165.819 115.573 165.76 115.586 165.71 115.616C165.659 115.646 165.619 115.691 165.595 115.745L165.535 115.883C165.437 116.103 165.965 116.423 166.2 116.463L166.325 116.485L164.922 116.3C164.888 116.305 164.855 116.316 164.826 116.335C164.796 116.353 164.771 116.377 164.751 116.405C164.731 116.434 164.718 116.466 164.711 116.5C164.704 116.534 164.705 116.569 164.712 116.603C164.732 116.765 164.789 116.921 164.88 117.058C164.97 117.108 163.88 117.018 163.462 116.985C163.442 116.983 163.421 116.985 163.402 116.992C163.383 117 163.365 117.011 163.351 117.026C163.337 117.041 163.327 117.059 163.321 117.079C163.315 117.099 163.314 117.12 163.317 117.14C163.36 117.39 163.6 117.89 164.732 118.068C166.312 118.318 166.955 118.163 166.955 118.163L168.152 118.715L167.972 119.453L166.267 119.133L166.177 120.105C166.41 120.268 168.325 120.823 168.325 120.823C168.325 120.823 170.96 121.323 171.735 121.1C172.51 120.878 173.077 120.69 173.077 120.69L175.485 118.48L172.387 116.525Z" fill="#FC9D9D"/>
<path opacity="0.15" d="M168.415 118.465C168.415 118.465 169.915 117.907 170.682 117.027" stroke="black" stroke-width="0.6" stroke-miterlimit="10" stroke-linecap="round"/>
<path opacity="0.15" d="M166.357 119.21L168.755 119.67C168.755 119.67 170.005 118.697 171.085 119.152" stroke="black" stroke-width="0.6" stroke-miterlimit="10" stroke-linecap="round"/>
<path opacity="0.15" d="M165 117.19C165 117.19 166.655 117.44 167.372 117.112C167.372 117.112 167.645 117.612 168.538 117.737" stroke="black" stroke-width="0.6" stroke-miterlimit="10" stroke-linecap="round"/>
<path opacity="0.15" d="M166.327 116.475C166.899 116.525 167.475 116.525 168.047 116.475C168.37 116.861 168.808 117.134 169.297 117.252" stroke="black" stroke-width="0.6" stroke-miterlimit="10" stroke-linecap="round"/>
<path opacity="0.15" d="M167.273 115.768C167.775 115.875 168.293 115.88 168.798 115.783L169.773 116.458" stroke="black" stroke-width="0.6" stroke-miterlimit="10" stroke-linecap="round"/>
<path opacity="0.15" d="M168.25 115.015C168.242 116.024 168.132 117.029 167.92 118.015L167.808 118.535L166.96 118.145L166.975 115.04L168.25 115.015Z" fill="black"/>
<path opacity="0.15" d="M168 119.5V120.75L166.713 120.31L166.9 119.24L168 119.5Z" fill="black"/>
<path opacity="0.15" d="M191.75 129.58C192.045 132.375 186.27 134.67 186.27 134.67L182.423 136.11L183.173 137.86L189.565 134.67C193 132.968 191.85 129.823 191.75 129.58Z" fill="black"/>
<path opacity="0.2" d="M183.182 137.86L175.195 141.85L174.34 139.14L182.43 136.11L183.182 137.86Z" fill="black"/>
<g opacity="0.3">
<path opacity="0.3" d="M175.195 141.953C175.173 141.953 175.151 141.946 175.133 141.933C175.115 141.92 175.101 141.901 175.095 141.88C175.095 141.84 173.947 138.028 173.54 137.213C173.528 137.188 173.526 137.159 173.535 137.133C173.544 137.107 173.563 137.085 173.587 137.073C173.599 137.067 173.613 137.063 173.626 137.062C173.64 137.061 173.653 137.063 173.666 137.068C173.679 137.072 173.691 137.079 173.701 137.088C173.711 137.097 173.719 137.108 173.725 137.12C174.142 137.95 175.247 141.663 175.292 141.82C175.3 141.847 175.297 141.875 175.284 141.9C175.271 141.924 175.249 141.942 175.222 141.95L175.195 141.953Z" fill="black"/>
</g>
<g opacity="0.3">
<path opacity="0.3" d="M164.518 162.062C164.495 162.062 164.473 162.054 164.455 162.04C164.437 162.026 164.424 162.007 164.418 161.985C164.414 161.971 164.413 161.958 164.415 161.944C164.416 161.93 164.421 161.917 164.428 161.905C164.435 161.893 164.444 161.883 164.455 161.875C164.466 161.866 164.479 161.86 164.493 161.857C164.535 161.857 168.835 160.652 170.853 156.94C170.858 156.926 170.866 156.913 170.877 156.903C170.888 156.892 170.9 156.884 170.914 156.879C170.928 156.874 170.943 156.872 170.958 156.873C170.973 156.874 170.988 156.878 171.001 156.885C171.014 156.893 171.026 156.902 171.035 156.914C171.044 156.926 171.05 156.94 171.053 156.955C171.056 156.969 171.056 156.985 171.053 156.999C171.05 157.014 171.044 157.028 171.035 157.04C168.973 160.832 164.59 162.04 164.535 162.057L164.518 162.062Z" fill="black"/>
</g>
<g opacity="0.15">
<path opacity="0.15" d="M149.053 158.395C149.033 158.395 149.013 158.37 149.005 158.33C148.998 158.307 148.997 158.283 149.002 158.259C149.007 158.236 149.017 158.214 149.033 158.195C149.41 157.875 150.175 158.175 150.208 158.195C150.24 158.215 150.255 158.262 150.25 158.317C150.245 158.372 150.218 158.41 150.188 158.4C150.158 158.39 149.42 158.097 149.073 158.4C149.066 158.401 149.058 158.399 149.053 158.395Z" fill="black"/>
</g>
<path d="M151.287 177.033L152.822 179.653L153.78 181.903L152.332 181.54C152.332 181.54 152.25 184.25 151.47 184.588C151.235 184.69 150.53 184.425 150.602 183.855C150.499 183.953 150.375 184.026 150.24 184.069C150.104 184.113 149.961 184.125 149.82 184.105C149.385 184.015 149.28 183.733 149.32 183.193C149.32 183.193 149.115 183.603 148.51 183.348C148.145 183.193 148.237 182.643 148.237 182.643C148.237 182.643 147.577 182.7 147.487 182.358C147.392 181.798 147.38 181.228 147.452 180.665L147.847 178.77L147.995 177.545L151.287 177.033Z" fill="#FC9D9D"/>
<path opacity="0.15" d="M148.25 182.653C148.362 182.274 148.434 181.884 148.465 181.49" stroke="black" stroke-width="0.61" stroke-miterlimit="10" stroke-linecap="round"/>
<path opacity="0.15" d="M149.307 183.173C149.449 182.728 149.541 182.27 149.583 181.805" stroke="black" stroke-width="0.61" stroke-miterlimit="10" stroke-linecap="round"/>
<path opacity="0.15" d="M150.602 183.858C150.759 183.298 150.868 182.726 150.927 182.148" stroke="black" stroke-width="0.61" stroke-miterlimit="10" stroke-linecap="round"/>
<path opacity="0.15" d="M146.048 165.25L144.673 158.65L144.733 150.483L143.685 150.325L143.585 157.78C143.544 158.283 143.583 158.789 143.7 159.28L144.773 165.55L147.958 177.89L147.5 180.5L147.42 181.018L147.448 182.003C147.475 182.705 147.755 182.61 147.755 182.61V180.83L148.46 177.75L146.048 165.25Z" fill="black"/>
<path opacity="0.2" d="M143.185 150.32L143.977 140.82C143.977 140.82 143.977 136.658 146.89 135.203L147.235 135.095C145.602 136.548 145.537 139.053 145.537 139.053L144.732 150.49L143.185 150.32Z" fill="black"/>
<path d="M155.075 119.285L156.295 125.913L156.075 132.07L159.533 133.37C160.674 133.798 161.87 134.06 163.085 134.15H163.268C163.438 134.161 163.608 134.135 163.766 134.072C163.925 134.009 164.067 133.912 164.184 133.788C164.3 133.664 164.387 133.515 164.44 133.353C164.492 133.191 164.507 133.019 164.485 132.85L164 128.83L166 128.768C166.068 128.772 166.137 128.772 166.205 128.768C167.493 128.695 168.218 128.473 168.225 126.375L168.083 123.858L168.803 123.383C168.817 123.375 168.831 123.365 168.843 123.353C168.934 123.276 168.993 123.167 169.006 123.049C169.02 122.93 168.987 122.81 168.915 122.715L167.438 120.928L167.4 120.795L167.435 120.493C167.572 119.221 167.361 117.936 166.825 116.775L166.295 115.64L155.075 119.285Z" fill="#FC9D9D"/>
<path d="M166.385 117.25L163.432 117.827C162.032 118.827 164.215 120.34 160.83 121.062C160.767 121.45 161.27 122.97 160.62 123.062C160.12 123.185 160.07 122.505 159.997 122.167L158.127 122.787C158.417 125.135 157.577 125.767 156.305 126.287C154.425 123.147 150.342 116.245 155.867 115.052C156.405 115.082 156.592 114.477 156.742 114.275C157.242 112.942 159.585 112.067 161.182 112.652C161.731 113.002 162.358 113.212 163.007 113.264C163.656 113.316 164.307 113.208 164.905 112.95C167.935 111.795 169.6 116.3 166.385 117.25Z" fill="black"/>
<path d="M160.688 125.383L160.04 122.285C160.008 122.123 159.944 121.968 159.852 121.831C159.759 121.694 159.641 121.576 159.502 121.485C159.364 121.393 159.209 121.331 159.047 121.3C158.884 121.269 158.717 121.271 158.555 121.305C158.23 121.38 157.948 121.579 157.767 121.859C157.587 122.139 157.524 122.479 157.59 122.805L157.718 123.418C157.782 123.742 157.911 124.051 158.095 124.325C158.28 124.6 158.517 124.835 158.794 125.017C159.07 125.199 159.38 125.324 159.705 125.386C160.03 125.447 160.364 125.444 160.688 125.375V125.383Z" fill="#FC9D9D"/>
<g opacity="0.3">
<path opacity="0.3" d="M159.712 123.04L159.605 122.525C159.56 122.31 159.431 122.121 159.248 122C159.064 121.879 158.841 121.835 158.625 121.877C158.506 121.901 158.393 121.95 158.295 122.022C158.197 122.095 158.117 122.188 158.06 122.295V122.317C158.049 122.34 158.043 122.365 158.042 122.39C158.041 122.414 158.045 122.439 158.054 122.463C158.063 122.486 158.076 122.507 158.094 122.525C158.111 122.543 158.132 122.558 158.155 122.567C158.177 122.579 158.202 122.586 158.227 122.587C158.252 122.588 158.277 122.585 158.301 122.576C158.325 122.567 158.346 122.553 158.364 122.535C158.382 122.517 158.396 122.496 158.405 122.472C158.432 122.408 158.475 122.352 158.53 122.308C158.584 122.265 158.649 122.235 158.717 122.222C158.778 122.21 158.841 122.209 158.902 122.221C158.963 122.232 159.022 122.256 159.074 122.29C159.126 122.324 159.171 122.368 159.205 122.42C159.24 122.471 159.265 122.529 159.277 122.59L159.385 123.107C159.398 123.155 159.428 123.197 159.469 123.224C159.511 123.251 159.561 123.262 159.61 123.255C159.632 123.25 159.653 123.24 159.671 123.225C159.689 123.211 159.703 123.193 159.713 123.172C159.723 123.151 159.728 123.129 159.728 123.106C159.728 123.083 159.722 123.061 159.712 123.04Z" fill="#21252B"/>
</g>
<path opacity="0.15" d="M164.272 130.54L162.287 129.21C162.248 129.177 162.218 129.135 162.199 129.087C162.18 129.04 162.174 128.988 162.18 128.938C162.189 128.858 162.229 128.785 162.291 128.735C162.353 128.685 162.433 128.662 162.512 128.67L163.99 128.81L164.272 130.54Z" fill="black"/>
<path d="M163.97 128.877L162.513 128.67C159.983 128.587 160.04 122.285 160.04 122.285L160.918 121.925C161.07 124.607 162.003 125.77 162.003 125.77C163.128 127.297 164.253 126.962 164.975 126.44C165.408 126.125 165.738 125.455 165.953 124.96C166.598 123.46 168.09 124.097 168.09 124.097L168.218 126.372C168.218 128.47 167.485 128.692 166.198 128.765C166.129 128.768 166.061 128.768 165.993 128.765" fill="black"/>
<path opacity="0.15" d="M157.295 125.772L159.002 125.157C158.706 124.957 158.437 124.718 158.202 124.447C158.148 124.718 158.039 124.975 157.883 125.202C157.727 125.43 157.527 125.624 157.295 125.772Z" fill="black"/>
<path d="M166.498 121.756C166.754 121.709 166.92 121.438 166.867 121.152C166.815 120.865 166.564 120.671 166.307 120.718C166.051 120.765 165.885 121.036 165.938 121.322C165.99 121.609 166.241 121.803 166.498 121.756Z" fill="black"/>
<path d="M166.618 121.033C166.656 121.033 166.688 121 166.688 120.96C166.688 120.92 166.656 120.888 166.618 120.888C166.579 120.888 166.548 120.92 166.548 120.96C166.548 121 166.579 121.033 166.618 121.033Z" fill="white"/>
<path d="M168.19 125.48C167.786 125.464 167.381 125.509 166.99 125.615C166.969 125.622 166.946 125.621 166.925 125.613C166.905 125.605 166.887 125.59 166.876 125.571C166.865 125.552 166.861 125.529 166.865 125.507C166.868 125.485 166.879 125.465 166.895 125.45C167.243 125.099 167.683 124.852 168.165 124.74L168.19 125.48Z" fill="white"/>
<path d="M167.145 119.397C167.118 119.505 166.645 119.545 166.088 119.7C165.53 119.855 165.113 120.057 165.023 119.982C164.983 119.945 165.043 119.835 165.208 119.705C165.431 119.535 165.686 119.41 165.958 119.337C166.236 119.259 166.527 119.232 166.815 119.257C167.04 119.285 167.158 119.345 167.145 119.397Z" fill="black"/>
<path opacity="0.15" d="M183.182 129.565C183.182 129.565 184.5 130.75 185.5 131.25" stroke="black" stroke-miterlimit="10" stroke-linecap="round"/>
<path opacity="0.2" d="M158.895 204.73C158.895 204.73 160.62 204.698 161.31 204.098" stroke="black" stroke-miterlimit="10"/>
<path opacity="0.2" d="M178.52 204.665C178.52 204.665 180.092 204.698 180.422 204.348" stroke="black" stroke-miterlimit="10"/>
<path opacity="0.15" d="M154.825 235.952L155.978 234.508L156.038 206.598L156.288 198L154.948 197.812C154.53 210.382 155.295 223.432 154.825 235.952Z" fill="black"/>
<g opacity="0.3">
<path opacity="0.3" d="M155.555 176.978L155.48 176.728C158.41 175.82 159.14 172.03 159.145 171.993L159.395 172.038C159.385 172.088 158.63 176.023 155.555 176.978Z" fill="black"/>
</g>
<path d="M262.343 238.222C262.343 238.222 262.13 232.255 265.433 230.442C268.735 228.63 292.933 227.672 292.933 227.672L304.75 235.88L304.125 242.207H262.338L262.343 238.222Z" fill="#3F4249"/>
<path d="M245.535 242.208C245.535 242.208 245.49 241.957 249.203 237.995C252.915 234.032 268.745 235.075 270.24 235.245C271.735 235.415 273.6 242.217 273.6 242.217L245.535 242.208Z" fill="#868A91"/>
<path d="M136.21 212.735H137.885V184.595H136.21V212.735Z" fill="#B2B6BB"/>
<path d="M123.143 212.735H124.818V184.595H123.143V212.735Z" fill="#B2B6BB"/>
<path opacity="0.2" d="M136.21 184.598H137.885V187.5L136.21 187.318V184.598ZM123.145 186.913L124.82 187.095V184.595H123.145V186.913Z" fill="black"/>
<path d="M123.188 182.5H137.84C138.06 182.503 138.269 182.592 138.423 182.749C138.577 182.906 138.662 183.118 138.66 183.337V184.5C138.662 184.72 138.577 184.931 138.423 185.088C138.269 185.245 138.06 185.335 137.84 185.337H135.34C134.546 185.346 133.764 185.144 133.075 184.75C132.284 184.339 131.405 184.125 130.514 184.125C129.622 184.125 128.744 184.339 127.953 184.75C127.257 185.138 126.471 185.333 125.675 185.315H123.175C123.066 185.314 122.959 185.291 122.859 185.248C122.759 185.205 122.669 185.143 122.593 185.066C122.517 184.988 122.457 184.896 122.417 184.795C122.376 184.694 122.356 184.586 122.358 184.477V183.328C122.358 183.219 122.379 183.111 122.421 183.01C122.463 182.91 122.524 182.818 122.601 182.742C122.678 182.665 122.769 182.604 122.87 182.562C122.971 182.521 123.079 182.5 123.188 182.5Z" fill="#21252B"/>
<path d="M120.573 239.235H139.673C140.443 239.235 141.068 238.61 141.068 237.84V203.37C141.068 202.599 140.443 201.975 139.673 201.975H120.573C119.802 201.975 119.178 202.599 119.178 203.37V237.84C119.178 238.61 119.802 239.235 120.573 239.235Z" fill="#363C54"/>
<path opacity="0.2" d="M120.573 239.235H139.673C140.443 239.235 141.068 238.61 141.068 237.84V203.37C141.068 202.599 140.443 201.975 139.673 201.975H120.573C119.802 201.975 119.178 202.599 119.178 203.37V237.84C119.178 238.61 119.802 239.235 120.573 239.235Z" fill="black"/>
<path d="M137.525 201.975V239.235" stroke="#1656BD" stroke-width="1.42" stroke-miterlimit="10"/>
<path d="M112.793 239.235H131.893C132.663 239.235 133.288 238.61 133.288 237.84V203.37C133.288 202.599 132.663 201.975 131.893 201.975H112.793C112.022 201.975 111.398 202.599 111.398 203.37V237.84C111.398 238.61 112.022 239.235 112.793 239.235Z" fill="#363C54"/>
<path d="M137.45 201.975H137.095V239.235H137.45V201.975Z" fill="#21252B"/>
<path d="M135.84 213.237H138.702V211.96H135.84V213.237Z" fill="white"/>
<path d="M135.84 229.25H138.702V227.973H135.84V229.25Z" fill="white"/>
<g opacity="0.3">
<path opacity="0.3" d="M129.385 236.29C129.576 236.29 129.76 236.214 129.896 236.078C130.031 235.943 130.107 235.759 130.107 235.568V206.028C130.108 205.933 130.089 205.838 130.053 205.75C130.017 205.662 129.964 205.582 129.897 205.515C129.829 205.448 129.75 205.394 129.662 205.358C129.574 205.321 129.48 205.303 129.385 205.303C129.29 205.303 129.195 205.321 129.108 205.358C129.02 205.394 128.94 205.448 128.873 205.515C128.806 205.582 128.753 205.662 128.717 205.75C128.68 205.838 128.662 205.933 128.662 206.028V235.568C128.662 235.759 128.738 235.943 128.874 236.078C129.009 236.214 129.193 236.29 129.385 236.29Z" fill="black"/>
<path opacity="0.3" d="M124.69 236.29C124.881 236.29 125.065 236.214 125.201 236.078C125.336 235.943 125.412 235.759 125.412 235.568V206.028C125.413 205.933 125.394 205.838 125.358 205.75C125.322 205.662 125.269 205.582 125.201 205.515C125.134 205.448 125.055 205.394 124.967 205.358C124.879 205.321 124.785 205.303 124.69 205.303C124.595 205.303 124.5 205.321 124.413 205.358C124.325 205.394 124.245 205.448 124.178 205.515C124.111 205.582 124.058 205.662 124.021 205.75C123.985 205.838 123.967 205.933 123.967 206.028V235.568C123.967 235.759 124.043 235.943 124.179 236.078C124.314 236.214 124.498 236.29 124.69 236.29Z" fill="black"/>
<path opacity="0.3" d="M120 236.29C120.191 236.29 120.375 236.214 120.511 236.078C120.646 235.943 120.722 235.759 120.722 235.568V206.028C120.723 205.933 120.704 205.838 120.668 205.75C120.632 205.662 120.579 205.582 120.511 205.515C120.444 205.448 120.365 205.394 120.277 205.358C120.189 205.321 120.095 205.303 120 205.303C119.905 205.303 119.81 205.321 119.723 205.358C119.635 205.394 119.555 205.448 119.488 205.515C119.421 205.582 119.368 205.662 119.331 205.75C119.295 205.838 119.277 205.933 119.277 206.028V235.568C119.277 235.759 119.353 235.943 119.489 236.078C119.624 236.214 119.808 236.29 120 236.29Z" fill="black"/>
<path opacity="0.3" d="M115.3 236.29C115.395 236.29 115.489 236.271 115.576 236.235C115.664 236.199 115.744 236.146 115.811 236.078C115.878 236.011 115.931 235.932 115.967 235.844C116.004 235.756 116.022 235.662 116.022 235.568V206.028C116.023 205.933 116.004 205.838 115.968 205.75C115.932 205.662 115.879 205.582 115.812 205.515C115.744 205.448 115.665 205.394 115.577 205.358C115.489 205.321 115.395 205.303 115.3 205.303C115.205 205.303 115.111 205.321 115.023 205.358C114.935 205.394 114.855 205.448 114.788 205.515C114.721 205.582 114.668 205.662 114.632 205.75C114.595 205.838 114.577 205.933 114.577 206.028V235.568C114.577 235.759 114.653 235.943 114.789 236.078C114.924 236.214 115.108 236.29 115.3 236.29Z" fill="black"/>
</g>
<path d="M121.507 242.37C122.329 242.37 122.995 241.704 122.995 240.883C122.995 240.061 122.329 239.395 121.507 239.395C120.686 239.395 120.02 240.061 120.02 240.883C120.02 241.704 120.686 242.37 121.507 242.37Z" fill="#3F4249"/>
<path d="M112.68 240.883C112.68 241.177 112.767 241.465 112.931 241.709C113.094 241.954 113.327 242.145 113.599 242.257C113.871 242.37 114.17 242.399 114.459 242.341C114.747 242.284 115.012 242.142 115.22 241.934C115.428 241.725 115.57 241.46 115.627 241.171C115.684 240.883 115.654 240.583 115.541 240.312C115.428 240.04 115.237 239.808 114.992 239.645C114.747 239.481 114.459 239.395 114.165 239.395C113.97 239.395 113.777 239.434 113.596 239.508C113.416 239.583 113.252 239.693 113.114 239.831C112.976 239.969 112.867 240.133 112.792 240.314C112.718 240.494 112.68 240.687 112.68 240.883Z" fill="#3F4249"/>
<path d="M114.168 240.147H138.23V239.175H114.168V240.147Z" fill="#21252B"/>
<path d="M136.727 240.882C136.727 241.176 136.814 241.463 136.977 241.708C137.14 241.952 137.372 242.143 137.643 242.255C137.914 242.368 138.212 242.399 138.501 242.342C138.789 242.286 139.054 242.145 139.262 241.939C139.471 241.732 139.613 241.468 139.672 241.18C139.731 240.893 139.703 240.594 139.593 240.322C139.482 240.05 139.293 239.817 139.05 239.652C138.807 239.487 138.521 239.397 138.227 239.395C138.031 239.393 137.836 239.431 137.654 239.505C137.472 239.579 137.307 239.688 137.168 239.826C137.028 239.964 136.917 240.129 136.842 240.31C136.766 240.492 136.727 240.686 136.727 240.882Z" fill="#3F4249"/>
<path d="M130.872 242.37C131.694 242.37 132.36 241.704 132.36 240.883C132.36 240.061 131.694 239.395 130.872 239.395C130.051 239.395 129.385 240.061 129.385 240.883C129.385 241.704 130.051 242.37 130.872 242.37Z" fill="#3F4249"/>
<path d="M130.872 241.46C131.191 241.46 131.45 241.202 131.45 240.883C131.45 240.564 131.191 240.305 130.872 240.305C130.553 240.305 130.295 240.564 130.295 240.883C130.295 241.202 130.553 241.46 130.872 241.46Z" fill="#868A91"/>
<path d="M137.638 240.883C137.638 240.997 137.671 241.108 137.735 241.203C137.798 241.298 137.889 241.372 137.994 241.416C138.1 241.46 138.216 241.471 138.328 241.449C138.44 241.427 138.542 241.372 138.623 241.291C138.704 241.21 138.759 241.107 138.781 240.995C138.804 240.883 138.792 240.767 138.749 240.662C138.705 240.556 138.631 240.466 138.536 240.402C138.441 240.339 138.329 240.305 138.215 240.305C138.062 240.305 137.915 240.366 137.807 240.474C137.698 240.583 137.638 240.729 137.638 240.883Z" fill="#868A91"/>
<path d="M222.872 115.75H218.752V242.262H222.872V115.75Z" fill="#B2B6BB"/>
<path opacity="0.2" d="M218.752 133.95L222.875 128.648V115.75H218.752V133.95Z" fill="black"/>
<path d="M251.878 90.75H192.253V118.188H251.878V90.75Z" fill="#363C54"/>
<path opacity="0.2" d="M251.878 90.75H192.253V118.188H251.878V90.75Z" fill="black"/>
<path d="M250.625 90.75H192.43V116.52H250.625V90.75Z" fill="#363C54"/>
<path d="M211.485 108.658H209.57V111.953H206.288V108.658H199.5V106.32L206.47 96.0552H209.568V106.055H211.483L211.485 108.658ZM206.288 106.05V103.353C206.288 102.903 206.306 102.25 206.343 101.395C206.378 100.54 206.408 100.043 206.428 99.8952H206.343C206.068 100.504 205.743 101.089 205.373 101.645L202.46 106.05H206.288Z" fill="white"/>
<path d="M225.978 104C225.978 106.775 225.523 108.83 224.613 110.165C223.703 111.5 222.302 112.166 220.41 112.165C218.577 112.165 217.194 111.476 216.263 110.1C215.331 108.723 214.865 106.69 214.865 104C214.865 101.195 215.318 99.1271 216.223 97.7971C217.128 96.4671 218.523 95.8006 220.41 95.7971C222.243 95.7971 223.63 96.4939 224.57 97.8871C225.51 99.2806 225.979 101.318 225.978 104ZM218.203 104C218.203 105.95 218.369 107.347 218.703 108.192C219.036 109.037 219.603 109.459 220.405 109.457C221.188 109.457 221.753 109.03 222.1 108.175C222.447 107.32 222.621 105.928 222.623 104C222.623 102.05 222.447 100.649 222.095 99.7971C221.745 98.9446 221.18 98.5196 220.405 98.5196C219.63 98.5196 219.05 98.9446 218.708 99.7971C218.365 100.65 218.203 102.055 218.203 104Z" fill="white"/>
<path d="M241.36 108.658H239.448V111.953H236.163V108.658H229.378V106.32L236.348 96.0552H239.448V106.055H241.36V108.658ZM236.163 106.05V103.353C236.163 102.903 236.181 102.25 236.218 101.395C236.255 100.54 236.283 100.043 236.305 99.8952H236.218C235.945 100.504 235.621 101.09 235.25 101.645L232.335 106.05H236.163Z" fill="white"/>
<path d="M236.75 88.5445L237.59 90.422C237.601 90.4405 237.617 90.4558 237.636 90.4663C237.655 90.4768 237.676 90.4823 237.697 90.482H238.837C239.235 90.482 239.73 90.3971 239.772 90.9621C239.772 91.1196 240.022 91.1221 240.022 90.9621C239.947 89.962 238.697 90.2371 238.007 90.2371H237.757C237.625 90.2371 237.825 90.352 237.78 90.2495L237.5 89.6196C237.32 89.2195 237.141 88.8195 236.962 88.4195C236.897 88.277 236.685 88.402 236.75 88.5445Z" fill="#21252B"/>
<path d="M237.705 90.2504C237.06 90.2504 236.008 90.0454 235.955 90.9754C235.955 91.1354 236.205 91.1354 236.205 90.9754C236.223 90.6229 236.455 90.4954 236.765 90.4954H237.7C237.733 90.4954 237.765 90.4821 237.789 90.4586C237.812 90.4351 237.825 90.4034 237.825 90.3704C237.825 90.3371 237.812 90.3054 237.789 90.2819C237.765 90.2584 237.733 90.2454 237.7 90.2454" fill="#21252B"/>
<path d="M230.432 85.37C230.432 85.37 234.88 81.3025 236.363 79.6675C237.845 78.0325 239.748 77.12 241.613 77.6525C243.478 78.185 244.69 80.2375 244.045 82.8225C243.4 85.4075 240.41 89.2075 236.365 89.0175C232.32 88.8275 231 86.13 230.432 85.37Z" fill="#DADDDF"/>
<path opacity="0.1" d="M230.432 85.37C230.432 85.37 234.88 81.3025 236.363 79.6675C237.845 78.0325 239.748 77.12 241.613 77.6525C243.478 78.185 244.69 80.2375 244.045 82.8225C243.4 85.4075 240.41 89.2075 236.365 89.0175C232.32 88.8275 231 86.13 230.432 85.37Z" fill="black"/>
<path d="M231.8 87.14C232.08 87.3377 232.404 87.465 232.744 87.5112C233.084 87.5572 233.43 87.521 233.752 87.405C233.752 87.405 233.165 88.055 234.207 88.185C235.25 88.315 237.397 87.4675 237.397 87.4675C237.397 87.4675 236.897 88.245 237.667 88.2C238.437 88.155 240.05 87.2625 241.375 85.905C242.7 84.5475 244.572 82.3725 243.395 79.8125C242.45 77.76 239.45 76.425 235.172 81.215L231.8 87.14Z" fill="#DADDDF"/>
<path d="M241.61 77.6525C239.748 77.12 237.845 78.0325 236.36 79.6675C235.833 80.25 234.925 81.1425 233.98 82.05L235 83.075L236.89 81.6525C236.89 81.6525 236.89 80.135 238.14 80.01C239.97 79.83 239.695 83.59 244.2 81.6225C244.265 79.6225 243.158 78.0975 241.595 77.6525" fill="#363C54"/>
<path opacity="0.2" d="M241.61 77.6525C239.748 77.12 237.845 78.0325 236.36 79.6675C235.833 80.25 234.925 81.1425 233.98 82.05L235 83.075L236.89 81.6525C236.89 81.6525 236.89 80.135 238.14 80.01C239.97 79.83 239.695 83.59 244.2 81.6225C244.265 79.6225 243.158 78.0975 241.595 77.6525" fill="black"/>
<path d="M242.37 80.7702C242.37 80.8909 242.335 81.0089 242.268 81.1092C242.2 81.2097 242.105 81.2877 241.993 81.3339C241.88 81.3799 241.758 81.3919 241.64 81.3682C241.523 81.3444 241.413 81.2862 241.328 81.2004C241.243 81.1149 241.185 81.0059 241.163 80.8874C241.138 80.7692 241.15 80.6464 241.198 80.5349C241.243 80.4234 241.323 80.3284 241.423 80.2617C241.523 80.1949 241.643 80.1597 241.763 80.1602C241.843 80.1602 241.923 80.1759 241.995 80.2067C242.07 80.2372 242.138 80.2822 242.193 80.3389C242.25 80.3957 242.295 80.4629 242.325 80.5369C242.355 80.6109 242.37 80.6902 242.37 80.7702Z" fill="black"/>
<path d="M244.08 80.3125C244.08 80.3125 245.345 80.94 245.373 81.1975C245.4 81.455 244.15 82.285 244.15 82.285C244.15 82.285 243.585 81.0825 244.08 80.3125Z" fill="#3F4249"/>
<path d="M236.18 88.75L237.02 90.625C237.031 90.6443 237.046 90.6603 237.065 90.6713C237.084 90.6823 237.106 90.688 237.128 90.6875H238.268C238.668 90.6875 239.16 90.6025 239.202 91.1675C239.215 91.325 239.452 91.325 239.452 91.1675C239.377 90.1675 238.128 90.44 237.453 90.44H237.203C237.068 90.44 237.268 90.555 237.223 90.455L236.94 89.825L236.403 88.625C236.338 88.48 236.125 88.605 236.19 88.75" fill="#21252B"/>
<path d="M237.127 90.4298C236.482 90.4298 235.432 90.2248 235.377 91.1573C235.377 91.3173 235.627 91.3148 235.627 91.1573C235.645 90.8048 235.877 90.6773 236.187 90.6773H237.122C237.155 90.6773 237.187 90.664 237.211 90.6408C237.234 90.6173 237.247 90.5855 237.247 90.5523C237.247 90.519 237.234 90.4873 237.211 90.464C237.187 90.4405 237.155 90.4273 237.122 90.4273" fill="#21252B"/>
<path d="M228 86.623C228 86.623 233.267 82.163 234.607 81.448C235.947 80.733 238.13 80.9255 238.682 82.823C239.29 84.913 237.207 88.638 231.33 86.623L229.557 89.4005L228 86.623Z" fill="#363C54"/>
<path opacity="0.2" d="M231.647 85.2502C231.647 85.2502 231.947 85.7502 233.487 84.5302C233.487 84.5302 232.832 85.3952 233.365 85.5302C233.897 85.6652 235.33 84.6452 235.33 84.6452C235.33 84.6452 234.6 85.3702 235.212 85.5802C235.825 85.7902 236.837 84.8977 237.067 84.3702C237.297 83.8427 237.8 82.6052 236.8 82.0502C235.8 81.4952 234.077 82.1477 232.887 83.1027C231.697 84.0577 231.36 84.6827 231.637 85.2502" fill="white"/>
<path d="M242.058 80.723C242.058 80.7487 242.05 80.7742 242.038 80.7957C242.023 80.8175 242.003 80.8345 241.98 80.8447C241.955 80.855 241.93 80.858 241.905 80.8532C241.878 80.8485 241.855 80.8362 241.838 80.8182C241.818 80.8002 241.805 80.777 241.8 80.7517C241.795 80.7265 241.798 80.7002 241.808 80.6762C241.818 80.6525 241.833 80.632 241.855 80.6175C241.878 80.6032 241.903 80.5955 241.928 80.5955C241.963 80.5955 241.995 80.6087 242.018 80.6327C242.043 80.6565 242.058 80.689 242.058 80.723Z" fill="white"/>
<path d="M259.625 232.543C259.375 233.183 259.142 233.825 258.9 234.468C258.89 234.487 258.875 234.503 258.858 234.515C258.84 234.527 258.82 234.534 258.797 234.535L257.66 234.605C257.263 234.63 256.763 234.575 256.755 235.143C256.755 235.3 256.505 235.318 256.505 235.158C256.505 234.158 257.78 234.35 258.47 234.308L258.72 234.293C258.855 234.293 258.663 234.41 258.7 234.308L258.95 233.66C259.103 233.25 259.258 232.84 259.413 232.43C259.468 232.283 259.688 232.395 259.633 232.543" fill="#21252B"/>
<path d="M258.783 234.287C259.425 234.247 260.463 233.98 260.565 234.905C260.583 235.065 260.338 235.077 260.315 234.92C260.275 234.57 260.035 234.457 259.725 234.477L258.793 234.535C258.76 234.537 258.728 234.526 258.703 234.504C258.678 234.482 258.663 234.451 258.66 234.417C258.658 234.384 258.67 234.352 258.69 234.327C258.713 234.302 258.745 234.287 258.778 234.285" fill="#21252B"/>
<path d="M265.75 228.98C265.75 228.98 261.057 225.195 259.477 223.655C257.897 222.115 255.942 221.322 254.117 221.97C252.292 222.617 251.192 224.75 252 227.28C252.807 229.81 256.025 233.427 260.047 232.99C264.07 232.552 265.22 229.775 265.742 228.99" fill="#DADDDF"/>
<path opacity="0.1" d="M265.75 228.98C265.75 228.98 261.057 225.195 259.477 223.655C257.897 222.115 255.942 221.322 254.117 221.97C252.292 222.617 251.192 224.75 252 227.28C252.807 229.81 256.025 233.427 260.047 232.99C264.07 232.552 265.22 229.775 265.742 228.99" fill="black"/>
<path d="M264.483 230.833C264.215 231.047 263.9 231.194 263.565 231.261C263.228 231.328 262.883 231.313 262.553 231.218C262.553 231.218 263.178 231.83 262.145 232.025C261.113 232.22 258.918 231.508 258.918 231.508C258.918 231.508 259.473 232.258 258.695 232.258C257.918 232.258 256.258 231.473 254.85 230.198C253.443 228.923 251.44 226.87 252.458 224.243C253.275 222.135 256.185 220.615 260.753 225.133L264.483 230.833Z" fill="#DADDDF"/>
<path d="M254.108 221.97C255.933 221.322 257.885 222.117 259.468 223.655C260.03 224.205 260.99 225.04 261.992 225.887L261.035 226.972L259.06 225.67C259.06 225.67 258.973 224.17 257.7 224.11C255.863 224.042 256.368 227.777 251.753 226.092C251.563 224.092 252.573 222.512 254.108 221.97Z" fill="#363C54"/>
<path opacity="0.2" d="M254.108 221.97C255.933 221.322 257.885 222.117 259.468 223.655C260.03 224.205 260.99 225.04 261.992 225.887L261.035 226.972L259.06 225.67C259.06 225.67 258.973 224.17 257.7 224.11C255.863 224.042 256.368 227.777 251.753 226.092C251.563 224.092 252.573 222.512 254.108 221.97Z" fill="black"/>
<path d="M253.54 225.127C253.548 225.247 253.59 225.362 253.663 225.458C253.738 225.553 253.835 225.625 253.95 225.664C254.063 225.702 254.185 225.707 254.303 225.676C254.418 225.645 254.523 225.581 254.603 225.491C254.68 225.401 254.733 225.29 254.748 225.171C254.765 225.052 254.745 224.931 254.693 224.823C254.64 224.715 254.558 224.625 254.453 224.564C254.35 224.504 254.23 224.475 254.11 224.482C253.95 224.493 253.8 224.566 253.693 224.687C253.585 224.808 253.53 224.966 253.54 225.127Z" fill="black"/>
<path d="M251.805 224.778C251.805 224.778 250.583 225.483 250.57 225.74C250.558 225.998 251.858 226.74 251.858 226.74C251.858 226.74 252.358 225.49 251.805 224.765" fill="#3F4249"/>
<path d="M260.212 232.7L259.487 234.625C259.477 234.644 259.465 234.661 259.445 234.673C259.427 234.685 259.407 234.692 259.385 234.692L258.25 234.762C257.85 234.787 257.352 234.735 257.342 235.3C257.342 235.457 257.092 235.475 257.092 235.315C257.107 234.315 258.37 234.507 259.057 234.465L259.307 234.45C259.44 234.45 259.247 234.57 259.287 234.465L259.537 233.82L260 232.59C260.055 232.44 260.275 232.552 260.22 232.7" fill="#21252B"/>
<path d="M259.37 234.445C260.015 234.405 261.05 234.138 261.152 235.065C261.17 235.223 260.925 235.238 260.902 235.08C260.862 234.728 260.622 234.615 260.312 234.635L259.38 234.693C259.348 234.695 259.315 234.683 259.29 234.661C259.265 234.639 259.25 234.608 259.248 234.575C259.245 234.542 259.258 234.51 259.28 234.485C259.3 234.46 259.332 234.445 259.365 234.443" fill="#21252B"/>
<path d="M268.25 230.083C268.25 230.083 262.715 225.955 261.335 225.333C259.955 224.71 257.788 225.03 257.353 226.958C256.875 229.083 259.185 232.673 264.925 230.298L266.865 232.958L268.25 230.083Z" fill="#363C54"/>
<path opacity="0.2" d="M264.52 228.94C264.52 228.94 264.252 229.465 262.637 228.335C262.637 228.335 263.345 229.157 262.822 229.335C262.3 229.512 260.805 228.585 260.805 228.585C260.805 228.585 261.58 229.262 260.98 229.51C260.38 229.757 259.317 228.93 259.055 228.415C258.792 227.9 258.215 226.7 259.18 226.085C260.145 225.47 261.902 226.012 263.147 226.892C264.392 227.772 264.772 228.375 264.52 228.96" fill="white"/>
<path d="M253.85 225.063C253.86 225.089 253.877 225.113 253.9 225.128C253.925 225.144 253.953 225.152 253.98 225.15C254.01 225.148 254.035 225.137 254.057 225.119C254.08 225.1 254.095 225.075 254.1 225.048C254.105 225.028 254.105 225.008 254.1 224.988C254.095 224.969 254.085 224.951 254.073 224.936C254.058 224.92 254.042 224.908 254.022 224.901C254.005 224.893 253.985 224.889 253.965 224.89C253.945 224.892 253.925 224.898 253.908 224.907C253.89 224.917 253.875 224.931 253.865 224.948C253.855 224.965 253.847 224.984 253.845 225.004C253.842 225.023 253.843 225.044 253.85 225.063Z" fill="white"/>
<path d="M214.263 231.878C213.223 230.628 212.04 229.403 211.135 228.06C210.935 227.763 209.898 225.858 210.755 226.09C211.613 226.323 212.368 227.763 212.73 228.463C213.093 229.163 213.48 229.86 213.813 230.575C213.982 230.881 214.124 231.201 214.235 231.533C214.235 231.575 214.335 231.96 214.263 231.878C214.393 232.03 213.48 230.945 214.263 231.878Z" fill="#363C54"/>
<path d="M218.455 242.25C218.442 241.808 218.375 241.368 218.255 240.943C218.004 240.078 217.61 239.263 217.087 238.53C215.997 236.965 214.48 235.49 212.67 234.818C212.251 234.655 211.813 234.543 211.367 234.485C211.157 234.463 210.507 234.363 210.345 234.548C210.182 234.733 210.387 234.693 210.547 234.76C210.867 234.903 211.174 235.07 211.467 235.26C214.217 236.95 217.467 238.925 218.195 242.26L218.455 242.25Z" fill="#363C54"/>
<path opacity="0.2" d="M218.455 242.25C218.442 241.808 218.375 241.368 218.255 240.943C218.004 240.078 217.61 239.263 217.087 238.53C215.997 236.965 214.48 235.49 212.67 234.818C212.251 234.655 211.813 234.543 211.367 234.485C211.157 234.463 210.507 234.363 210.345 234.548C210.182 234.733 210.387 234.693 210.547 234.76C210.867 234.903 211.174 235.07 211.467 235.26C214.217 236.95 217.467 238.925 218.195 242.26L218.455 242.25Z" fill="black"/>
<path d="M219.055 242.25C218.898 239.692 218.138 237.23 217.305 234.822C216.928 233.727 216.555 232.617 216.085 231.555C215.518 230.27 214.823 229.022 214.143 227.805C213.82 227.225 213.488 226.652 213.128 226.095C212.965 225.845 212.798 225.595 212.628 225.345C212.558 225.252 212.223 224.94 212.22 224.83C212.22 224.667 212.373 224.802 212.47 224.857C212.698 225.001 212.914 225.163 213.118 225.34C213.608 225.77 214.057 226.247 214.458 226.762C215.325 227.85 216.036 229.053 216.57 230.337C217.06 231.613 217.483 232.913 217.838 234.232C218.299 235.753 218.664 237.302 218.928 238.87C219.042 239.572 219.121 240.28 219.163 240.99C219.178 241.29 219.183 241.59 219.18 241.89C219.18 241.962 219.213 242.172 219.18 242.227C219.153 242.225 219.065 242.405 219.055 242.25Z" fill="#363C54"/>
<path opacity="0.2" d="M219.055 242.25C218.898 239.692 218.138 237.23 217.305 234.822C216.928 233.727 216.555 232.617 216.085 231.555C215.518 230.27 214.823 229.022 214.143 227.805C213.82 227.225 213.488 226.652 213.128 226.095C212.965 225.845 212.798 225.595 212.628 225.345C212.558 225.252 212.223 224.94 212.22 224.83C212.22 224.667 212.373 224.802 212.47 224.857C212.698 225.001 212.914 225.163 213.118 225.34C213.608 225.77 214.057 226.247 214.458 226.762C215.325 227.85 216.036 229.053 216.57 230.337C217.06 231.613 217.483 232.913 217.838 234.232C218.299 235.753 218.664 237.302 218.928 238.87C219.042 239.572 219.121 240.28 219.163 240.99C219.178 241.29 219.183 241.59 219.18 241.89C219.18 241.962 219.213 242.172 219.18 242.227C219.153 242.225 219.065 242.405 219.055 242.25Z" fill="black"/>
<path d="M218.97 242.25H219.18C219.18 242.11 219.152 241.962 219.147 241.852C219.122 241.233 219.058 240.616 218.955 240.005C218.74 238.67 218.34 237.372 217.767 236.147C216.7 233.897 215.125 231.855 212.907 230.672C212.697 230.562 210.232 229.47 210.157 229.802C210.115 229.962 210.967 230.427 211.102 230.525C211.54 230.842 211.972 231.172 212.392 231.525C214.24 233.025 216.015 234.68 217.18 236.775C218.088 238.483 218.694 240.335 218.97 242.25Z" fill="#363C54"/>
<path d="M220.133 242.25H220.233C220.233 242.09 220.233 241.927 220.233 241.767C220.233 241.315 220.233 240.862 220.213 240.41C220.188 239.392 220.138 238.372 220.043 237.36C219.873 235.492 219.673 233.63 219.025 231.86C218.88 231.452 218.713 231.052 218.525 230.662C218.49 230.595 218.233 230.002 218.153 230.12C218.125 230.162 218.188 230.385 218.195 230.435C218.223 230.605 218.253 230.775 218.28 230.935C218.35 231.347 218.423 231.757 218.5 232.167C218.843 234.005 219.293 235.82 219.578 237.667C219.808 239.195 219.98 240.72 220.133 242.25Z" fill="#363C54"/>
<path opacity="0.2" d="M220.133 242.25H220.233C220.233 242.09 220.233 241.927 220.233 241.767C220.233 241.315 220.233 240.862 220.213 240.41C220.188 239.392 220.138 238.372 220.043 237.36C219.873 235.492 219.673 233.63 219.025 231.86C218.88 231.452 218.713 231.052 218.525 230.662C218.49 230.595 218.233 230.002 218.153 230.12C218.125 230.162 218.188 230.385 218.195 230.435C218.223 230.605 218.253 230.775 218.28 230.935C218.35 231.347 218.423 231.757 218.5 232.167C218.843 234.005 219.293 235.82 219.578 237.667C219.808 239.195 219.98 240.72 220.133 242.25Z" fill="white"/>
<path d="M221.735 236.98C221.607 235.916 221.646 234.838 221.85 233.785C221.941 233.162 222.092 232.549 222.3 231.955C222.529 231.4 222.819 230.872 223.167 230.383C223.302 230.183 223.438 229.983 223.568 229.78C223.605 229.72 223.817 229.28 223.87 229.28C224.097 229.255 223.837 230.28 223.792 230.438C223.608 231 223.362 231.539 223.06 232.048C222.757 232.592 222.524 233.172 222.367 233.775C222.187 234.401 222.04 235.036 221.928 235.678C221.88 235.965 221.842 236.253 221.822 236.543C221.836 236.656 221.836 236.771 221.822 236.885C221.827 236.838 221.75 237.158 221.735 236.98Z" fill="#363C54"/>
<path opacity="0.2" d="M221.735 236.98C221.607 235.916 221.646 234.838 221.85 233.785C221.941 233.162 222.092 232.549 222.3 231.955C222.529 231.4 222.819 230.872 223.167 230.383C223.302 230.183 223.438 229.983 223.568 229.78C223.605 229.72 223.817 229.28 223.87 229.28C224.097 229.255 223.837 230.28 223.792 230.438C223.608 231 223.362 231.539 223.06 232.048C222.757 232.592 222.524 233.172 222.367 233.775C222.187 234.401 222.04 235.036 221.928 235.678C221.88 235.965 221.842 236.253 221.822 236.543C221.836 236.656 221.836 236.771 221.822 236.885C221.827 236.838 221.75 237.158 221.735 236.98Z" fill="black"/>
<path d="M221.133 228.5C221.18 228.978 221.215 229.458 221.253 229.938C221.418 232.09 221.503 234.25 221.478 236.405C221.453 238.155 221.403 240.428 221.455 242.258H221.623C221.623 241.915 221.623 241.533 221.623 241.385C221.653 240.85 221.673 240.115 221.713 239.583C221.808 238.378 221.923 237.178 222.005 235.973C222.148 233.883 222.275 231.785 221.823 229.723C221.726 229.264 221.6 228.811 221.445 228.368C221.37 228.153 221.285 227.943 221.195 227.735C221.173 227.685 221.105 227.44 221.033 227.523C220.96 227.605 221.048 227.795 221.055 227.858C221.085 228.065 221.113 228.278 221.133 228.5Z" fill="#363C54"/>
<path d="M222.82 242.5C222.935 241.5 223.07 240.185 223.163 239.727C223.425 238.397 223.728 237.077 224.083 235.77C224.653 233.672 225.53 231.64 226.423 229.662C226.655 229.147 226.888 228.63 227.133 228.12C227.198 227.99 227.633 227.272 227.383 227.285C227.258 227.285 226.95 227.65 226.85 227.742C226.645 227.931 226.451 228.13 226.268 228.34C225.907 228.739 225.58 229.167 225.29 229.62C224.06 231.532 223.575 233.745 223.16 235.95C222.798 238.118 222.559 240.305 222.443 242.5H222.82Z" fill="#363C54"/>
<path d="M233 225.63C232.75 225.61 232.318 225.842 232.1 225.932C231.8 226.055 231.506 226.192 231.22 226.345C230.673 226.64 230.152 226.98 229.663 227.362C227.263 229.222 225.863 231.972 224.71 234.717C223.815 236.85 222.765 239.967 222.71 242.5H222.978C222.978 242.347 222.978 242.227 222.978 242.21C223.003 241.884 223.048 241.56 223.113 241.24C223.271 240.457 223.489 239.686 223.763 238.935C224.334 237.379 225.008 235.864 225.78 234.397C227.155 231.78 228.962 229.413 231.125 227.397C231.645 226.897 232.195 226.447 232.76 226.01C232.938 225.88 233.378 225.66 233 225.63Z" fill="#363C54"/>
<path opacity="0.2" d="M233 225.63C232.75 225.61 232.318 225.842 232.1 225.932C231.8 226.055 231.506 226.192 231.22 226.345C230.673 226.64 230.152 226.98 229.663 227.362C227.263 229.222 225.863 231.972 224.71 234.717C223.815 236.85 222.765 239.967 222.71 242.5H222.978C222.978 242.347 222.978 242.227 222.978 242.21C223.003 241.884 223.048 241.56 223.113 241.24C223.271 240.457 223.489 239.686 223.763 238.935C224.334 237.379 225.008 235.864 225.78 234.397C227.155 231.78 228.962 229.413 231.125 227.397C231.645 226.897 232.195 226.447 232.76 226.01C232.938 225.88 233.378 225.66 233 225.63Z" fill="white"/>
<path d="M233.067 233.06C232.91 232.85 231.967 232.957 231.747 232.977C231.35 233.019 230.957 233.103 230.577 233.227C228.46 233.9 226.87 235.577 225.525 237.275C224.455 238.625 223.297 240.677 222.822 242.502H223.145C223.197 242.271 223.262 242.042 223.34 241.817C223.574 241.285 223.854 240.773 224.177 240.29C224.833 239.3 225.587 238.379 226.427 237.54C227.908 236.062 229.604 234.818 231.457 233.847C231.849 233.639 232.255 233.46 232.672 233.312C232.782 233.272 233.192 233.23 233.067 233.06Z" fill="#363C54"/>
<path opacity="0.2" d="M233.067 233.06C232.91 232.85 231.967 232.957 231.747 232.977C231.35 233.019 230.957 233.103 230.577 233.227C228.46 233.9 226.87 235.577 225.525 237.275C224.455 238.625 223.297 240.677 222.822 242.502H223.145C223.197 242.271 223.262 242.042 223.34 241.817C223.574 241.285 223.854 240.773 224.177 240.29C224.833 239.3 225.587 238.379 226.427 237.54C227.908 236.062 229.604 234.818 231.457 233.847C231.849 233.639 232.255 233.46 232.672 233.312C232.782 233.272 233.192 233.23 233.067 233.06Z" fill="black"/>
<path d="M288.605 242.75C288.605 242.75 286.355 242.02 286.122 237.842C285.932 234.51 283.452 235.685 281.652 233.28C279.6 230.53 281.403 229.317 280.038 226.18C279.195 224.242 276.677 225.325 276.455 220.822C276.232 216.32 275.757 215.405 274.807 213.572C274.807 213.572 277.457 216.785 279.557 218.027C281.51 219.19 281.882 218.817 283.117 219.685C284.595 220.72 283.617 222.46 285.117 223.597C286.617 224.735 288.02 224.282 289.103 225.782C290.993 228.395 289.695 230.282 291.155 231.995C292.615 233.707 295.203 233.687 297.068 236.72C298.178 238.524 298.575 240.677 298.18 242.757L288.605 242.75Z" fill="#363C54"/>
<path d="M294.008 242.75L280.677 223.443" stroke="black" stroke-width="0.61" stroke-linecap="round" stroke-linejoin="round"/>
<path d="M283.44 230.172L287.343 233.097" stroke="black" stroke-width="0.61" stroke-linecap="round" stroke-linejoin="round"/>
<path d="M283.598 224.703L284.083 228.378" stroke="black" stroke-width="0.61" stroke-linecap="round" stroke-linejoin="round"/>
<path d="M291.457 235.318L292.127 240.027" stroke="black" stroke-width="0.61" stroke-linecap="round" stroke-linejoin="round"/>
<path d="M294.698 242.75C294.698 242.75 291.85 235.915 292.127 231.285C292.405 226.655 293.802 225.56 293.055 222.175C292.307 218.79 289.555 217.948 290.71 213.565C291.865 209.183 293.535 208.49 293.21 199.065C293.21 199.065 294.403 205.885 297.508 209.853C300.16 213.243 301.24 214.138 300.258 220.338C299.36 226.048 300.863 226.88 302.405 229.213C303.948 231.545 304.87 237.608 302.905 242.738L294.698 242.75Z" fill="#363C54"/>
<path opacity="0.3" d="M294.698 242.75C294.698 242.75 291.85 235.915 292.127 231.285C292.405 226.655 293.802 225.56 293.055 222.175C292.307 218.79 289.555 217.948 290.71 213.565C291.865 209.183 293.535 208.49 293.21 199.065C293.21 199.065 294.403 205.885 297.508 209.853C300.16 213.243 301.24 214.138 300.258 220.338C299.36 226.048 300.863 226.88 302.405 229.213C303.948 231.545 304.87 237.608 302.905 242.738L294.698 242.75Z" fill="white"/>
<path d="M294.44 208.703C294.44 208.703 296.44 213.285 296.39 220.913C296.35 228.163 297.28 237.163 299.685 242.75" stroke="black" stroke-width="0.61" stroke-linecap="round" stroke-linejoin="round"/>
<path d="M292.5 214C292.5 214 294.935 216.138 296.345 218.685" stroke="black" stroke-width="0.61" stroke-linecap="round" stroke-linejoin="round"/>
<path d="M297.937 218.688C297.937 218.688 297.972 221.09 296.457 224.788" stroke="black" stroke-width="0.61" stroke-linecap="round" stroke-linejoin="round"/>
<path d="M294 228.962C294.23 229.849 294.632 230.681 295.185 231.41C295.737 232.14 296.43 232.752 297.223 233.212" stroke="black" stroke-width="0.61" stroke-linecap="round" stroke-linejoin="round"/>
<path d="M303.53 223.105C303.53 223.105 302.43 220.455 305.53 215.152C308.63 209.85 311.62 208.287 312.78 208.965C314.41 209.905 311.207 221.215 303.53 223.105Z" fill="#363C54"/>
<path d="M301.875 228.465C302.935 224.943 303.54 221.488 306.818 217.578" stroke="black" stroke-width="0.61" stroke-linecap="round" stroke-linejoin="round"/>
<path d="M306.973 238.23C306.973 238.23 305.363 235.828 306.495 229.205C307.628 222.583 309.55 219.873 310.995 220.193C312.555 220.543 313.445 233.35 306.973 238.23Z" fill="#363C54"/>
<path d="M305.1 242.75C305.1 242.75 308.007 237.808 308.27 230.395" stroke="black" stroke-width="0.61" stroke-linecap="round" stroke-linejoin="round"/>
<path d="M105.335 239.915C105.335 239.915 105.475 235.95 103.28 234.745C101.085 233.54 84.9999 232.905 84.9999 232.905L77.1499 238.357L77.5649 242.562H105.337L105.335 239.915Z" fill="#3F4249"/>
<path d="M96.5675 242C96.6375 241.412 96.7175 240.627 96.77 240.357C96.9275 239.57 97.1075 238.785 97.3175 238.01C97.6838 236.769 98.147 235.559 98.7025 234.39C98.84 234.085 98.9775 233.78 99.125 233.477C99.1625 233.4 99.4175 232.977 99.275 232.977C99.2 232.977 99.025 233.192 98.96 233.247C98.8388 233.36 98.7235 233.478 98.615 233.602C98.401 233.836 98.207 234.087 98.035 234.352C97.3075 235.487 97.0175 236.797 96.7725 238.102C96.5575 239.388 96.4155 240.684 96.3475 241.985L96.5675 242Z" fill="#363C54"/>
<path d="M102.605 232C102.418 232.028 102.238 232.089 102.073 232.18C101.894 232.254 101.72 232.337 101.55 232.43C101.226 232.604 100.917 232.806 100.628 233.033C99.205 234.135 98.3775 235.765 97.6925 237.393C97.16 238.653 96.5375 240.5 96.5 242H96.6575C96.6575 241.91 96.6575 241.84 96.6575 241.827C96.6758 241.633 96.7065 241.44 96.75 241.25C96.8443 240.786 96.973 240.33 97.135 239.885C97.4725 238.962 97.8718 238.064 98.33 237.195C99.146 235.647 100.217 234.247 101.497 233.055C101.807 232.762 102.132 232.49 102.467 232.23C102.565 232.147 102.825 232.018 102.605 232Z" fill="#363C54"/>
<path opacity="0.2" d="M102.605 232C102.418 232.028 102.238 232.089 102.073 232.18C101.894 232.254 101.72 232.337 101.55 232.43C101.226 232.604 100.917 232.806 100.628 233.033C99.205 234.135 98.3775 235.765 97.6925 237.393C97.16 238.653 96.5375 240.5 96.5 242H96.6575C96.6575 241.91 96.6575 241.84 96.6575 241.827C96.6758 241.633 96.7065 241.44 96.75 241.25C96.8443 240.786 96.973 240.33 97.135 239.885C97.4725 238.962 97.8718 238.064 98.33 237.195C99.146 235.647 100.217 234.247 101.497 233.055C101.807 232.762 102.132 232.49 102.467 232.23C102.565 232.147 102.825 232.018 102.605 232Z" fill="white"/>
<path d="M102.643 236.405C102.55 236.28 101.99 236.342 101.86 236.355C101.624 236.379 101.391 236.428 101.165 236.502C99.9151 236.9 98.9676 237.895 98.1651 238.902C97.4408 239.823 96.8993 240.875 96.5701 242H96.7501C96.7813 241.863 96.8196 241.728 96.8651 241.595C97.0056 241.278 97.1728 240.975 97.3651 240.687C97.7528 240.103 98.1976 239.559 98.6926 239.062C99.5706 238.186 100.576 237.447 101.675 236.872C101.907 236.75 102.148 236.644 102.395 236.555C102.473 236.53 102.715 236.5 102.643 236.405Z" fill="#363C54"/>
<path opacity="0.2" d="M102.643 236.405C102.55 236.28 101.99 236.342 101.86 236.355C101.624 236.379 101.391 236.428 101.165 236.502C99.9151 236.9 98.9676 237.895 98.1651 238.902C97.4408 239.823 96.8993 240.875 96.5701 242H96.7501C96.7813 241.863 96.8196 241.728 96.8651 241.595C97.0056 241.278 97.1728 240.975 97.3651 240.687C97.7528 240.103 98.1976 239.559 98.6926 239.062C99.5706 238.186 100.576 237.447 101.675 236.872C101.907 236.75 102.148 236.644 102.395 236.555C102.473 236.53 102.715 236.5 102.643 236.405Z" fill="black"/>
<path d="M89 235.295C89 235.295 91.6475 233.992 93.73 228.95C95.4475 224.797 94.935 222.347 94.0175 221.982C92.735 221.477 86.61 230.022 89 235.295Z" fill="#363C54"/>
<path opacity="0.15" d="M89 235.295C89 235.295 91.6475 233.992 93.73 228.95C95.4475 224.797 94.935 222.347 94.0175 221.982C92.735 221.477 86.61 230.022 89 235.295Z" fill="black"/>
<path d="M87.71 237.065C89.2725 235.125 91.3375 231.617 92.11 227.967" stroke="black" stroke-width="0.61" stroke-linecap="round" stroke-linejoin="round"/>
<path d="M84.315 225.697C84.315 225.697 87.19 225.03 90.3625 220.592C92.9775 216.937 93.035 214.435 92.225 213.872C91.1 213.092 83.195 220.022 84.315 225.697Z" fill="#363C54"/>
<path opacity="0.15" d="M84.315 225.697C84.315 225.697 87.19 225.03 90.3625 220.592C92.9775 216.937 93.035 214.435 92.225 213.872C91.1 213.092 83.195 220.022 84.315 225.697Z" fill="black"/>
<path d="M83.5 228.627C83.5675 225.172 86.695 222.587 89.1975 219.53" stroke="black" stroke-width="0.61" stroke-linecap="round" stroke-linejoin="round"/>
<path d="M80.2499 225.25C80.2499 225.25 77.2999 225.223 73.2349 221.585C69.8874 218.585 69.2874 216.155 69.9549 215.43C70.8749 214.415 80.0974 219.46 80.2499 225.25Z" fill="#363C54"/>
<path opacity="0.15" d="M80.2499 225.25C80.2499 225.25 77.2999 225.223 73.2349 221.585C69.8874 218.585 69.2874 216.155 69.9549 215.43C70.8749 214.415 80.0974 219.46 80.2499 225.25Z" fill="black"/>
<path d="M82.765 226.938C82.765 226.938 78.97 225 75.55 220.268" stroke="black" stroke-width="0.61" stroke-linecap="round" stroke-linejoin="round"/>
<path d="M83.6301 232.093C83.6301 232.093 81.2176 233.79 75.7951 233.203C71.3251 232.718 69.4226 231.093 69.5451 230.113C69.7076 228.75 80.1426 227.478 83.6301 232.093Z" fill="#363C54"/>
<path opacity="0.15" d="M83.6301 232.093C83.6301 232.093 81.2176 233.79 75.7951 233.203C71.3251 232.718 69.4226 231.093 69.5451 230.113C69.7076 228.75 80.1426 227.478 83.6301 232.093Z" fill="black"/>
<path d="M86.3601 233.955C84.1676 231.943 81.9601 231.093 76.9176 230.785" stroke="black" stroke-width="0.61" stroke-linecap="round" stroke-linejoin="round"/>
<path d="M81.2725 218.19C81.2725 218.19 79.4175 215.895 79.6425 210.44C79.8275 205.94 81.32 203.94 82.3075 203.995C83.6725 204.075 85.645 214.403 81.2725 218.19Z" fill="#363C54"/>
<path opacity="0.15" d="M81.2725 218.19C81.2725 218.19 79.4175 215.895 79.6425 210.44C79.8275 205.94 81.32 203.94 82.3075 203.995C83.6725 204.075 85.645 214.403 81.2725 218.19Z" fill="black"/>
<path d="M87.7099 239.907C87.9989 238.502 87.8417 237.041 87.2599 235.73C85.5674 232.072 82.5099 228.125 81.7899 223.447C81.5199 221.68 80.6449 217.057 82.1299 211.405" stroke="black" stroke-width="0.61" stroke-linecap="round" stroke-linejoin="round"/>
<path d="M101.25 242.5C101.25 242.5 101.275 242.338 99.3375 239.7C97.4 237.063 89.1375 237.76 88.3575 237.868C87.5775 237.975 86.6075 242.5 86.6075 242.5H101.25Z" fill="#868A91"/>
<path d="M92.4175 102.912C92.4175 102.912 95.325 103.31 108.695 103.032C112.31 105.227 127.982 103.832 134.16 103.25C141.302 104.575 144.832 101.115 141.66 99.2499C140.682 98.6724 139.065 98.2499 136.72 98.1599C136.872 90.7249 118.485 88.2874 113.362 99.1349C110.65 96.9399 104.995 97.1349 104.612 100.11C99.38 99.1524 95.2475 100.235 93.3625 101.36C92.375 101.962 92 102.575 92.4175 102.912Z" fill="white"/>
<path opacity="0.08" d="M92.4175 102.912C92.4175 102.912 95.325 103.31 108.695 103.032C112.31 105.227 127.982 103.832 134.16 103.25C141.302 104.575 144.832 101.115 141.66 99.25C141.684 99.7155 141.525 100.172 141.217 100.522C140.492 101.35 139.13 101.692 137.882 101.59C136.635 101.487 135.5 101 134.447 100.43C133.947 100.16 133.447 99.8625 132.842 99.805C131.782 99.7025 130.87 100.37 130.125 100.988C129.512 99.9875 127.957 99.46 126.65 99.7875C125.342 100.115 124.435 101.27 124.625 102.37C122.067 101.912 119.46 103.135 116.852 102.94C113.877 102.717 111.197 100.678 108.282 101.19C107.532 101.323 106.86 101.61 106.12 101.735C105.384 101.822 104.642 101.841 103.902 101.793C101.522 101.75 99.14 102.055 96.7625 101.935C95.6122 101.886 94.4727 101.694 93.37 101.363C92.375 101.963 92 102.575 92.4175 102.912Z" fill="#21252B"/>
<path d="M296.25 108.455C296.25 108.455 293.933 108.773 283.288 108.553C280.41 110.303 267.93 109.19 263.01 108.725C257.323 109.78 254.51 107.025 257.035 105.538C257.815 105.078 259.103 104.74 260.97 104.67C260.848 98.7504 275.49 96.8079 279.57 105.445C281.728 103.695 286.233 103.858 286.53 106.225C290.695 105.46 293.985 106.323 295.49 107.225C296.285 107.7 296.583 108.188 296.25 108.455Z" fill="white"/>
<path opacity="0.08" d="M296.25 108.455C296.25 108.455 293.933 108.772 283.288 108.552C280.41 110.302 267.93 109.19 263.01 108.725C257.323 109.78 254.51 107.025 257.035 105.537C257.018 105.908 257.143 106.271 257.388 106.55C257.965 107.21 259.05 107.485 260.045 107.4C261.015 107.286 261.953 106.972 262.795 106.48C263.183 106.228 263.618 106.058 264.073 105.98C264.915 105.897 265.643 106.43 266.235 106.922C266.735 106.132 267.96 105.705 269.003 105.965C270.045 106.225 270.753 107.147 270.615 108.022C272.653 107.657 274.73 108.632 276.803 108.477C279.173 108.297 281.303 106.675 283.63 107.087C284.218 107.19 284.76 107.422 285.35 107.52C285.935 107.588 286.528 107.604 287.115 107.567C289.01 107.532 290.908 107.775 292.803 107.68C293.718 107.641 294.625 107.488 295.503 107.225C296.285 107.7 296.583 108.187 296.25 108.455Z" fill="#21252B"/>
<path d="M322.22 243.13H61.905C61.8507 243.139 61.795 243.136 61.742 243.121C61.6887 243.107 61.6395 243.08 61.5975 243.045C61.5555 243.009 61.522 242.965 61.4987 242.915C61.4755 242.865 61.4635 242.81 61.4635 242.755C61.4635 242.7 61.4755 242.646 61.4987 242.596C61.522 242.546 61.5555 242.501 61.5975 242.466C61.6395 242.43 61.6887 242.404 61.742 242.389C61.795 242.374 61.8507 242.371 61.905 242.38H322.22C322.275 242.371 322.33 242.374 322.383 242.389C322.438 242.404 322.485 242.43 322.527 242.466C322.57 242.501 322.603 242.546 322.628 242.596C322.65 242.646 322.663 242.7 322.663 242.755C322.663 242.81 322.65 242.865 322.628 242.915C322.603 242.965 322.57 243.009 322.527 243.045C322.485 243.08 322.438 243.107 322.383 243.121C322.33 243.136 322.275 243.139 322.22 243.13Z" fill="#B2B6BB"/>
<path d="M149.668 118.397L146.058 116.5C146.114 114.842 145.546 113.223 144.467 111.962C143.388 110.702 141.876 109.892 140.229 109.691C138.582 109.491 136.92 109.916 135.57 110.881C134.221 111.846 133.282 113.282 132.94 114.905C132.597 116.529 132.875 118.222 133.719 119.65C134.563 121.078 135.912 122.138 137.5 122.621C139.087 123.104 140.798 122.974 142.294 122.257C143.79 121.541 144.964 120.289 145.583 118.75L149.668 118.397Z" fill="white"/>
<path d="M139.443 123.04C138.502 123.032 137.574 122.827 136.717 122.44C135.861 122.052 135.094 121.49 134.468 120.789C133.841 120.087 133.368 119.263 133.079 118.368C132.789 117.474 132.689 116.529 132.786 115.593C132.884 114.658 133.175 113.753 133.642 112.937C134.109 112.121 134.742 111.412 135.499 110.854C136.256 110.297 137.122 109.904 138.04 109.7C138.958 109.497 139.908 109.487 140.83 109.672C142.37 109.997 143.747 110.849 144.725 112.082C145.702 113.314 146.219 114.85 146.185 116.422L150.102 118.485L145.67 118.872C145.161 120.106 144.298 121.16 143.189 121.902C142.081 122.644 140.777 123.04 139.443 123.04ZM139.443 109.775C138.263 109.777 137.107 110.099 136.097 110.708C135.087 111.317 134.262 112.189 133.71 113.23C133.157 114.272 132.899 115.445 132.962 116.622C133.025 117.8 133.407 118.938 134.067 119.915C134.727 120.892 135.641 121.671 136.71 122.168C137.779 122.666 138.964 122.863 140.136 122.739C141.309 122.615 142.426 122.174 143.367 121.464C144.309 120.754 145.039 119.801 145.48 118.707L145.508 118.637L149.245 118.31L145.943 116.572V116.5C145.993 114.973 145.505 113.477 144.563 112.275C143.62 111.073 142.285 110.241 140.79 109.925C140.343 109.827 139.887 109.776 139.43 109.775H139.443Z" fill="#B2B6BB"/>
<path d="M138.5 118L138.483 117.633C138.462 117.343 138.519 117.053 138.648 116.793C138.828 116.486 139.069 116.219 139.355 116.008C139.605 115.827 139.827 115.611 140.015 115.368C140.117 115.21 140.166 115.025 140.155 114.838C140.157 114.743 140.135 114.65 140.091 114.566C140.047 114.482 139.983 114.41 139.905 114.358C139.7 114.243 139.464 114.195 139.23 114.22C138.634 114.275 138.06 114.47 137.553 114.788L136.96 113.728C137.648 113.292 138.437 113.042 139.25 113C139.832 112.941 140.416 113.087 140.903 113.413C141.106 113.56 141.272 113.752 141.387 113.975C141.502 114.198 141.564 114.444 141.568 114.695C141.593 115.027 141.522 115.359 141.365 115.653C141.125 116.019 140.82 116.337 140.465 116.593C140.247 116.753 140.053 116.943 139.888 117.158C139.803 117.305 139.766 117.476 139.783 117.645L139.798 117.945L138.5 118ZM138.423 119.708C138.409 119.593 138.42 119.477 138.453 119.366C138.487 119.255 138.543 119.153 138.618 119.065C138.79 118.901 139.02 118.811 139.258 118.815C139.49 118.79 139.724 118.857 139.908 119.003C140.063 119.171 140.154 119.388 140.165 119.617C140.175 119.846 140.105 120.071 139.965 120.253C139.883 120.334 139.785 120.398 139.677 120.441C139.569 120.484 139.454 120.505 139.338 120.503C139.103 120.528 138.867 120.46 138.683 120.313C138.597 120.235 138.529 120.141 138.482 120.036C138.435 119.931 138.411 119.818 138.41 119.703L138.423 119.708Z" fill="#363C54"/>
</svg>
