<svg width="390" height="300" viewBox="0 0 390 300" fill="none" xmlns="http://www.w3.org/2000/svg">
<path d="M331.525 256.925L340.475 126.875C340.725 123.35 339.6 119.875 337.35 117.15L279.575 47.4C276.7 43.95 272.325 42.1 267.85 42.475L99.25 56.425C93.85 56.875 89.2 60.45 87.4 65.575L50.525 170.4C49.775 172.55 49.55 174.85 49.9 177.1L62.375 256.725L331.525 256.925Z" fill="#F4F4F4"/>
<path d="M119.525 172.6H94.25V188.3H119.525V172.6Z" fill="#B2B6BB"/>
<path d="M119.525 172.6H114.15V188.3H119.525V172.6Z" fill="#61656D"/>
<path d="M81.9998 173.9L77.9248 153.8L78.0498 153.775L82.1248 173.875L81.9998 173.9Z" fill="#3F4249"/>
<path d="M83.1393 147.009L82.604 173.129L82.729 173.131L83.2643 147.011L83.1393 147.009Z" fill="#3F4249"/>
<path d="M89.1184 151.832L82.8914 159.657L82.9894 159.734L89.2164 151.909L89.1184 151.832Z" fill="#3F4249"/>
<path d="M85.1749 178.9L84.5499 177.975C83.9249 177.05 83.5999 175.95 83.5999 174.825V172.6H81.1999V174.825C81.1999 175.95 80.8749 177.05 80.2499 177.975L79.6249 178.9C78.3249 180.85 77.9249 183.275 78.4999 185.55L79.1999 188.3H85.5999L86.2999 185.55C86.8749 183.275 86.4499 180.85 85.1749 178.9Z" fill="#868A91"/>
<path d="M85.175 178.9L84.55 177.975C83.925 177.05 83.6 175.95 83.6 174.825V172.6H82.9V174.625C82.9 175.875 83.275 177.1 83.95 178.15C85 180.075 85 182.275 84.625 184.075C84.4 185.15 83.975 186.175 83.4 187.1L82.925 187.875C82.75 188.15 82.45 188.325 82.125 188.325H85.625L86.325 185.575C86.875 183.275 86.45 180.85 85.175 178.9Z" fill="#61656D"/>
<path d="M87.8618 159.847L80.4543 165.994L80.5343 166.09L87.9416 159.943L87.8618 159.847Z" fill="#3F4249"/>
<path d="M81.3999 170.9L74.8499 164.7L74.9249 164.625L81.4999 170.8L81.3999 170.9Z" fill="#3F4249"/>
<path d="M85.45 156.525L86.475 152.025C86.85 150.425 88.75 149.75 90.05 150.775C91.325 151.8 91.1 153.825 89.625 154.525L85.45 156.525Z" fill="#363C54"/>
<path opacity="0.3" d="M85.45 156.525L86.475 152.025C86.85 150.425 88.75 149.75 90.05 150.775C91.325 151.8 91.1 153.825 89.625 154.525L85.45 156.525Z" fill="white"/>
<path d="M90.8748 152.55C90.8748 153.35 90.4248 154.15 89.5998 154.525L85.4248 156.525L90.0248 150.775C90.6248 151.225 90.8998 151.9 90.8748 152.55Z" fill="#363C54"/>
<path d="M83.0748 154.525L80.1248 148.425C79.0748 146.25 80.6498 143.725 83.0748 143.725C85.4748 143.725 87.0748 146.25 86.0248 148.425L83.0748 154.525Z" fill="#363C54"/>
<path opacity="0.3" d="M83.0748 154.525L80.1248 148.425C79.0748 146.25 80.6498 143.725 83.0748 143.725C85.4748 143.725 87.0748 146.25 86.0248 148.425L83.0748 154.525Z" fill="white"/>
<path opacity="0.3" d="M83.225 143.75L83.075 154.525L86.025 148.425C87.05 146.3 85.55 143.825 83.225 143.75Z" fill="white"/>
<path d="M79.7999 162.65L75.4999 157.55C73.9749 155.725 74.8749 152.925 77.1749 152.35C79.4749 151.775 81.5999 153.8 81.1249 156.125L79.7999 162.65Z" fill="#363C54"/>
<path opacity="0.3" d="M81.1499 156.125C81.6249 153.8 79.4999 151.775 77.2 152.35L79.8249 162.625L81.1499 156.125Z" fill="white"/>
<path d="M79.1999 168.725L77.2499 163.85C76.5499 162.1 74.2749 161.7 73.0249 163.075C71.7499 164.45 72.3749 166.675 74.1749 167.225L79.1999 168.725Z" fill="#363C54"/>
<path opacity="0.3" d="M79.1999 168.725L77.2499 163.85C76.5499 162.1 74.2749 161.7 73.0249 163.075C71.7499 164.45 72.3749 166.675 74.1749 167.225L79.1999 168.725Z" fill="white"/>
<path opacity="0.3" d="M73.0999 162.975L79.1999 168.725L77.2499 163.85C76.5749 162.15 74.3749 161.725 73.0999 162.975Z" fill="white"/>
<path d="M82.45 164.45L84.575 159.3C85.325 157.475 87.75 157.05 89.075 158.525C90.4 160 89.725 162.35 87.8 162.9L82.45 164.45Z" fill="#363C54"/>
<path opacity="0.3" d="M82.45 164.45L84.575 159.3C85.325 157.475 87.75 157.05 89.075 158.525C90.4 160 89.725 162.35 87.8 162.9L82.45 164.45Z" fill="white"/>
<path d="M82.6999 170.775L82.6499 170.675L92.7749 165.125L92.8249 165.225L82.6999 170.775Z" fill="#3F4249"/>
<path d="M84.325 169.8L88 164.775C89.3 162.975 92.05 163.175 93.075 165.125C94.125 167.075 92.75 169.45 90.55 169.55L84.325 169.8Z" fill="#363C54"/>
<path opacity="0.3" d="M84.325 169.8L88 164.775C89.3 162.975 92.05 163.175 93.075 165.125C94.125 167.075 92.75 169.45 90.55 169.55L84.325 169.8Z" fill="white"/>
<path d="M93.175 167.775C92.725 168.75 91.775 169.5 90.55 169.55L84.325 169.8L93.075 165.125C93.55 166.025 93.525 166.975 93.175 167.775Z" fill="#363C54"/>
<path opacity="0.3" d="M84.575 159.3L82.45 164.45L89.075 158.525C87.75 157.075 85.35 157.475 84.575 159.3Z" fill="white"/>
<path d="M120.575 189.975H137.35C137.825 189.975 138.2 189.6 138.2 189.125C138.2 188.65 137.825 188.275 137.35 188.275H120.575V189.975Z" fill="#B2B6BB"/>
<path d="M135.175 189.15H118.25V241.275H135.175V189.15Z" fill="#B2B6BB"/>
<path d="M118.775 189.15H67V241.275H118.775V189.15Z" fill="#DADDDF"/>
<path d="M116.15 237.3H69.425V196.4L116.15 196.45V237.3ZM69.8 236.925H115.775V196.825H69.8V236.925Z" fill="#B2B6BB"/>
<path d="M65.0751 189.975H120.6C121.075 189.975 121.45 189.6 121.45 189.125C121.45 188.65 121.075 188.275 120.6 188.275H65.0751C64.6001 188.275 64.2251 188.65 64.2251 189.125C64.2501 189.6 64.6251 189.975 65.0751 189.975Z" fill="#DADDDF"/>
<path d="M116.15 216.6H69.425V216.975H116.15V216.6Z" fill="#B2B6BB"/>
<path d="M90.7751 202.975C91.4931 202.975 92.0751 202.393 92.0751 201.675C92.0751 200.957 91.4931 200.375 90.7751 200.375C90.0574 200.375 89.4751 200.957 89.4751 201.675C89.4751 202.393 90.0574 202.975 90.7751 202.975Z" fill="#B2B6BB"/>
<path opacity="0.15" d="M91.25 201.675C91.25 201.1 90.875 200.625 90.375 200.45C90.5 200.4 90.65 200.375 90.8 200.375C91.525 200.375 92.1 200.95 92.1 201.675C92.1 202.4 91.525 202.975 90.8 202.975C90.65 202.975 90.525 202.95 90.375 202.9C90.875 202.725 91.25 202.25 91.25 201.675Z" fill="black"/>
<path d="M90.7751 223.1C91.4931 223.1 92.0751 222.518 92.0751 221.8C92.0751 221.082 91.4931 220.5 90.7751 220.5C90.0574 220.5 89.4751 221.082 89.4751 221.8C89.4751 222.518 90.0574 223.1 90.7751 223.1Z" fill="#B2B6BB"/>
<path opacity="0.15" d="M91.25 221.8C91.25 221.225 90.875 220.75 90.375 220.575C90.5 220.525 90.65 220.5 90.8 220.5C91.525 220.5 92.1 221.075 92.1 221.8C92.1 222.525 91.525 223.1 90.8 223.1C90.65 223.1 90.525 223.075 90.375 223.025C90.875 222.85 91.25 222.375 91.25 221.8Z" fill="black"/>
<path d="M121.45 191.725L118.775 189.975H67V190.775L121.45 191.725Z" fill="#B2B6BB"/>
<path d="M131.85 241.275L133.15 255.7C133.25 256.225 132.85 256.725 132.325 256.725C131.975 256.725 131.65 256.5 131.525 256.15L127.75 241.275H131.85Z" fill="#DADDDF"/>
<path d="M131.375 249.675L129.8 249.3L127.775 241.3H131.875L133.175 255.725C133.25 256.125 133.025 256.525 132.675 256.675L131.375 249.675Z" fill="#B2B6BB"/>
<path d="M117.125 241.275L118.425 255.7C118.525 256.225 118.125 256.725 117.6 256.725C117.25 256.725 116.925 256.5 116.8 256.15L113.025 241.275H117.125Z" fill="#DADDDF"/>
<path d="M115.75 242.875L113.4 242.425L113 241.275H117.1L118.4 255.7C118.475 256.1 118.25 256.5 117.9 256.65L115.75 242.875Z" fill="#B2B6BB"/>
<path d="M84.675 241.275L83.375 255.7C83.275 256.225 83.675 256.725 84.2 256.725C84.55 256.725 84.875 256.5 85 256.15L88.775 241.275H84.675Z" fill="#DADDDF"/>
<path d="M85.4 248.95L84 248.6L84.675 241.275H88.775L85 256.15C84.875 256.5 84.55 256.725 84.2 256.725C84.175 256.725 84.175 256.725 84.15 256.725L85.4 248.95Z" fill="#B2B6BB"/>
<path d="M69.55 241.275L68.25 255.7C68.15 256.225 68.55 256.725 69.075 256.725C69.425 256.725 69.75 256.5 69.875 256.15L73.65 241.275H69.55Z" fill="#DADDDF"/>
<path d="M71.1501 242.525L69.3501 242.2L69.5501 241.275H73.6501L69.8751 256.15C69.7501 256.5 69.4251 256.725 69.0751 256.725C69.0501 256.725 69.0501 256.725 69.0251 256.725L71.1501 242.525Z" fill="#B2B6BB"/>
<path d="M105.2 241.8C105.5 242.9 105.55 243.3 105.525 244.375L105.55 251.625C105.5 252.875 105.15 254.125 104.525 255.225L104.375 255.475C104 256.125 103.325 256.525 102.575 256.525H100.5C99.5499 256.525 98.7249 255.875 98.4749 254.95C98.1999 253.875 98.1749 252.75 98.3749 251.675L100.125 243.925C100.25 243.275 100.425 242.525 100.75 241.825L105.2 241.8Z" fill="#363C54"/>
<path d="M133.3 224.775L133.725 238.3C133.725 239.575 134.05 240.925 134.55 241.6L140.6 252.125L139.2 254.05L133.725 251.325L128.85 242.525C128.875 241.025 128.7 240.125 128.45 238.1L126.025 223.175L133.3 224.775Z" fill="#FC9D9D"/>
<path opacity="0.15" d="M133.7 242.95C133.15 242.125 132.425 240.2 132.275 239.3L131.625 234.475C131.575 234.1 131.3 233.825 130.925 233.775L127.6 233.325L127.55 232.6H133.55L133.725 238.35C133.75 239.275 133.925 240.75 134.55 241.65L140.6 252.175L139.75 253.6L133.7 242.95Z" fill="black"/>
<path d="M143.45 253.9L140.575 252.15C138.5 252.5 136.4 251.7 135.05 250.075L128.825 242.525C127.7 244.925 127.3 247.6 127.675 250.25L128.575 256.5H129.3L129.5 250.075C129.525 249.6 130.1 249.4 130.4 249.775L134.2 254.425C135.275 255.75 136.9 256.525 138.6 256.525H144.525C145 256.525 145.3 256.05 145.125 255.625C144.8 254.85 144.2 254.225 143.45 253.9Z" fill="#363C54"/>
<path d="M105.475 238.525C105.175 241.125 105.025 243.75 105.075 246.375L105.125 249.5C105.075 250.875 103.95 251.975 102.575 251.975H102.15C100.6 251.975 99.3999 250.6 99.6249 249.075L100.35 245.375C100.725 243.5 100.85 241.575 100.75 239.65L100.05 227.025L106.575 227.125L105.475 238.525Z" fill="#FC9D9D"/>
<path d="M125.975 137.1L130.525 147.725L131.05 153.525C131.7 160.85 132.125 168.175 132.325 175.525L133.85 232.575H127.275L115.05 152.65C114.975 152.1 114.5 151.725 113.95 151.725C113.375 151.725 112.9 152.175 112.85 152.75L106.5 232.575L100.025 232.525L97.175 173.475C96.65 162.575 97.675 151.65 100.225 141.05L101.2 137.05L125.975 137.1Z" fill="#3F4249"/>
<path opacity="0.15" d="M106.025 232.575C106.025 232.575 105.25 240.675 105.175 241.75V241.775C105.075 243.3 105.05 244.825 105.075 246.35L105.125 249.475C105.075 250.8 104.025 251.875 102.7 251.925C103.9 251 103.8 249.5 103.825 248.375L104.025 234.65C104.025 234.2 103.725 233.825 103.275 233.725L100.375 233.2L100.35 232.55L106.025 232.575Z" fill="black"/>
<path opacity="0.2" d="M133.825 232.575H131.2L127.025 151.725C121.5 151.725 119.375 147.85 119.325 144.725C119.275 142.15 119.8 139.6 119.8 137.1L101.15 137.05C101.15 137.05 101.15 137.05 101.15 137.025L119.8 137.075L125.875 137.1H125.95L130.5 147.725L131.025 153.525C131.675 160.85 132.1 168.175 132.3 175.525L133.825 232.575Z" fill="black"/>
<path d="M108.95 139.35L119.675 139.375C119.975 114.725 120.875 101.45 122.225 95.925L120.65 95.475L108.65 95.375L106.55 95.825C108.875 108.425 109 133.15 108.95 139.35Z" fill="white"/>
<path opacity="0.2" d="M107 96.7C109.15 109.575 109 133.3 108.95 139.35H111.175C112.225 123.15 110.925 108.75 107 96.7Z" fill="black"/>
<path opacity="0.2" d="M101.25 137.675C101.075 138.575 100.6 139.575 99.9998 140.625C98.9498 144.05 98.0748 147.525 97.4248 151.05L103.525 150.75C107.3 150.75 110.475 147.85 110.8 144.075C111 141.7 111.025 141.65 111.15 139.325C111.175 139.35 101.3 137.475 101.25 137.675Z" fill="black"/>
<path d="M126.25 139.375H101.725V141.6H126.25V139.375Z" fill="black"/>
<path d="M114.05 73.0749C116.342 73.0749 118.2 71.2169 118.2 68.9249C118.2 66.6329 116.342 64.7749 114.05 64.7749C111.758 64.7749 109.9 66.6329 109.9 68.9249C109.9 71.2169 111.758 73.0749 114.05 73.0749Z" fill="#21252B"/>
<path d="M110.025 69.975C110.325 71.125 111.125 72.15 112.3 72.7C114.375 73.675 116.85 72.775 117.825 70.675C117.9 70.55 117.95 70.4 118 70.25C116.375 69.25 112.85 68.35 110.025 69.975Z" fill="#363C54"/>
<path d="M117.65 88.025C117.45 92.5 116.65 94.925 119.15 95.05C123.125 95.225 126.5 91.75 126.7 87.275C126.9 82.8 123.825 79.05 119.85 78.875C118.775 82.7 117.825 83.575 117.65 88.025Z" fill="#21252B"/>
<path d="M116.432 88.6581C116.78 84.6829 113.751 81.1701 109.666 80.8121C105.581 80.4538 101.987 83.3859 101.638 87.3611C101.289 91.3361 104.319 94.8489 108.404 95.2071C112.489 95.5654 116.083 92.6331 116.432 88.6581Z" fill="#21252B"/>
<path d="M107.775 95.575L108.5 96.175C112 99.125 117.125 99.1 120.6 96.125L121.2 95.6L119.075 95.025C118.7 94.925 118.425 94.6 118.375 94.225L118.05 91.75L117.8 89.925L116.925 83.325L116.9 83L110.925 84.475L110.05 94.35C110.025 94.775 109.7 95.125 109.3 95.225L107.775 95.575Z" fill="#FC9D9D"/>
<path d="M114.25 91.3C111.55 91.275 109.35 89.175 109.2 86.5L108.575 76L120.15 76.075L119.375 86.55C119.2 89.25 116.95 91.325 114.25 91.3Z" fill="#FC9D9D"/>
<path d="M114.25 91.3C111.55 91.275 109.35 89.175 109.2 86.5L108.575 76L120.15 76.075L119.375 86.55C119.2 89.25 116.95 91.325 114.25 91.3Z" fill="#FC9D9D"/>
<path d="M112.05 83.325C112.381 83.325 112.65 83.0562 112.65 82.725C112.65 82.3937 112.381 82.125 112.05 82.125C111.718 82.125 111.45 82.3937 111.45 82.725C111.45 83.0562 111.718 83.325 112.05 83.325Z" fill="#21252B"/>
<path d="M112.3 82.7251C112.369 82.7251 112.425 82.6691 112.425 82.6001C112.425 82.5311 112.369 82.4751 112.3 82.4751C112.231 82.4751 112.175 82.5311 112.175 82.6001C112.175 82.6691 112.231 82.7251 112.3 82.7251Z" fill="white"/>
<path d="M116.725 83.325C117.056 83.325 117.325 83.0562 117.325 82.725C117.325 82.3937 117.056 82.125 116.725 82.125C116.394 82.125 116.125 82.3937 116.125 82.725C116.125 83.0562 116.394 83.325 116.725 83.325Z" fill="#21252B"/>
<path d="M117 82.7C117.069 82.7 117.125 82.644 117.125 82.575C117.125 82.506 117.069 82.45 117 82.45C116.931 82.45 116.875 82.506 116.875 82.575C116.875 82.644 116.931 82.7 117 82.7Z" fill="white"/>
<g opacity="0.3">
<path opacity="0.3" d="M114.475 86.2249H113.95C113.85 86.2249 113.775 86.1499 113.775 86.0499C113.775 85.9499 113.85 85.8749 113.95 85.8749H114.475C114.675 85.8749 114.85 85.7249 114.85 85.4999C114.85 85.2999 114.7 85.1249 114.475 85.1249C114.375 85.1249 114.3 85.0499 114.3 84.9499C114.3 84.8499 114.375 84.7749 114.475 84.7749C114.875 84.7749 115.2 85.0999 115.2 85.4999C115.2 85.8999 114.875 86.2249 114.475 86.2249Z" fill="black"/>
</g>
<path d="M104.65 82.1751C105.55 81.5501 105.225 80.3751 105.225 80.3751C105.075 79.8751 104.95 79.3251 104.95 78.7501C104.9 77.4251 105.525 76.5251 105.925 76.1001C106.125 75.8751 106.25 75.5751 106.3 75.2501C106.85 69.5751 115.2 68.2751 119.325 71.7001C121.85 73.8001 122.425 76.1251 122.2 78.3251C122.2 78.3251 122.05 79.3001 122.95 79.7751L121.85 80.2251C121.425 81.8501 120.65 82.6001 120.225 83.7251C119.325 83.1251 119.55 80.5501 119.55 80.5501C117.075 80.2751 116.75 78.0751 116.75 78.0751C114.475 82.8501 108.7 81.8001 108.7 81.8001L108.65 83.0251C108.65 83.0251 106.325 82.5501 105.85 81.7001L104.925 82.3501L104.65 82.1751Z" fill="#21252B"/>
<path d="M119.525 84.9251C119.525 84.9251 121.475 84.7501 121.575 82.7751C121.675 80.8001 119.25 80.8501 119.225 82.8251L119.325 84.9751L119.525 84.9251Z" fill="#FC9D9D"/>
<path opacity="0.3" d="M119.925 82.3751C120 82.1251 120.15 81.9751 120.3 81.9001C120.475 81.8251 120.65 81.8501 120.875 81.9501C120.95 81.9751 120.975 82.0751 120.95 82.1501C120.925 82.2001 120.9 82.2251 120.875 82.2251C120.85 82.2501 120.8 82.2501 120.775 82.2251C120.625 82.1501 120.525 82.1251 120.425 82.1751C120.35 82.2251 120.275 82.3001 120.2 82.4751C120.15 82.6251 120.125 82.8501 120.125 83.0001C120.125 83.0751 120.05 83.1501 119.975 83.1501C119.9 83.1501 119.825 83.0751 119.825 82.9751C119.825 82.8001 119.85 82.5501 119.925 82.3751Z" fill="black"/>
<path d="M120.038 84.553C120.203 84.5495 120.334 84.3675 120.329 84.1465C120.324 83.9257 120.186 83.7495 120.02 83.7532C119.855 83.7567 119.724 83.9387 119.729 84.1595C119.734 84.3805 119.872 84.5565 120.038 84.553Z" fill="#363C54"/>
<path opacity="0.15" d="M119.925 84.475C120.1 84.475 120.25 84.275 120.225 84.05C120.225 83.975 120.2 83.9 120.175 83.825C120.25 83.9 120.3 84 120.3 84.15C120.3 84.375 120.175 84.55 120 84.55C119.925 84.55 119.875 84.525 119.825 84.475C119.875 84.475 119.9 84.475 119.925 84.475Z" fill="black"/>
<path d="M109.025 84.9251C109.025 84.9251 107.075 84.7501 106.975 82.7751C106.875 80.8001 109.3 80.8501 109.325 82.8251L109.225 84.9751L109.025 84.9251Z" fill="#FC9D9D"/>
<path opacity="0.3" d="M108.65 82.3751C108.55 82.1251 108.425 81.9751 108.25 81.9001C108.075 81.8251 107.875 81.8501 107.65 81.9501C107.575 81.9751 107.55 82.0751 107.575 82.1501C107.6 82.2001 107.625 82.2251 107.65 82.2251C107.675 82.2501 107.725 82.2501 107.75 82.2251C107.9 82.1501 108.025 82.1251 108.1 82.1751C108.2 82.2251 108.275 82.3001 108.325 82.4751C108.375 82.6251 108.4 82.8501 108.425 83.0001C108.425 83.0751 108.5 83.1501 108.575 83.1501C108.65 83.1501 108.725 83.0751 108.725 82.9751C108.775 82.8001 108.725 82.5501 108.65 82.3751Z" fill="black"/>
<path d="M108.825 84.1419C108.83 83.9212 108.699 83.7392 108.533 83.7354C108.368 83.7319 108.23 83.9082 108.225 84.1289C108.22 84.3499 108.35 84.5317 108.516 84.5354C108.682 84.5389 108.82 84.3629 108.825 84.1419Z" fill="#363C54"/>
<path opacity="0.15" d="M108.625 84.475C108.45 84.475 108.3 84.275 108.325 84.05C108.325 83.975 108.35 83.9 108.375 83.825C108.3 83.9 108.25 84 108.25 84.15C108.25 84.375 108.375 84.55 108.55 84.55C108.625 84.55 108.675 84.525 108.725 84.475C108.65 84.475 108.65 84.475 108.625 84.475Z" fill="black"/>
<path d="M115.9 87.2C115.975 87.2 116.025 87.275 116 87.35C115.7 87.925 115.125 88.325 114.45 88.325C113.775 88.325 113.2 87.925 112.9 87.35C112.875 87.275 112.9 87.2 113 87.2H115.9Z" fill="white"/>
<path d="M116.925 80.9501C116.175 81.0251 115.525 81.4251 115.125 82.0251C114.45 81.8001 113.875 81.9501 113.625 82.0501C113.15 81.3001 112.3 80.8251 111.35 80.9251C110.025 81.0501 109.025 82.2251 109.15 83.5501C109.275 84.8751 110.45 85.8751 111.775 85.7501C113.1 85.6251 114.1 84.4501 113.975 83.1251C113.95 82.8501 113.875 82.5751 113.775 82.3501C114 82.2751 114.45 82.1501 114.975 82.3251C114.775 82.7001 114.7 83.1501 114.725 83.6001C114.85 84.9251 116.025 85.9251 117.35 85.8001C118.675 85.6751 119.675 84.5001 119.55 83.1751C119.45 81.8001 118.25 80.8251 116.925 80.9501ZM111.775 85.4251C110.625 85.5251 109.575 84.6751 109.475 83.5001C109.375 82.3501 110.225 81.3001 111.4 81.2001C112.55 81.1001 113.6 81.9501 113.7 83.1251C113.8 84.3001 112.925 85.3251 111.775 85.4251ZM117.35 85.4501C116.2 85.5501 115.15 84.7001 115.05 83.5251C114.95 82.3751 115.8 81.3251 116.975 81.2251C118.125 81.1251 119.175 81.9751 119.275 83.1501C119.35 84.3251 118.5 85.3501 117.35 85.4501Z" fill="white"/>
<path opacity="0.15" d="M112.15 91.2749C112.85 91.5749 113.525 91.6749 114.15 91.6749C114.4 91.6749 114.625 91.6499 114.825 91.6249C115.225 91.7749 115.75 91.9249 116.25 91.9249C116.875 91.9249 117.475 91.8999 118 91.7249L117.75 89.8999C117.375 90.2499 116.925 90.5499 116.45 90.7749C116.075 90.9499 115.25 91.2249 114.275 91.2499C114.25 91.2499 114.225 91.2499 114.2 91.2499C114.175 91.2499 114.15 91.2499 114.125 91.2499C113.55 91.2499 112.9 91.1499 112.275 90.8749C112.175 90.8249 112.075 90.8749 112.025 90.9749C112.025 91.1249 112.075 91.2249 112.15 91.2749Z" fill="black"/>
<path d="M93.2249 104.125L98.5499 110.025L100.25 124.475C100.75 128.825 100.6 133.25 99.7749 137.55C99.1249 140.95 98.2499 145.35 97.2999 149.975C97.2499 150.275 97.4749 150.55 97.7749 150.55H101.625C105.65 150.55 109.025 147.475 109.375 143.45C110.9 125.55 109.9 108.775 106.8 95.75L98.2499 97.425C95.1249 98.2 93.3749 101.025 93.2249 104.125Z" fill="#363C54"/>
<path d="M121.9 95.825C120.65 100.9 118.85 121.425 119.2 144.125C119.25 147.7 122.175 150.575 125.75 150.6H129.975C130.6 150.6 131.1 150.05 131.025 149.425L129.525 136.7C128.9 131.3 128.825 125.85 129.35 120.45L130.7 106.35L132 104.275C132.025 101.05 130.5 98.35 127.425 97.375L121.9 95.825Z" fill="#363C54"/>
<path d="M115.05 121.275L116.425 118.8C116.575 118.525 116.675 118.225 116.675 117.9L116.75 116.275C116.75 116.2 116.825 116.125 116.9 116.15H117C117.6 116.2 118.1 116.65 118.225 117.25L118.25 117.325C118.4 118.1 118.45 118.875 118.45 119.675V119.95L122.8 120.65C123.1 120.7 123.3 120.95 123.275 121.25V121.275C123.25 121.625 122.925 121.875 122.575 121.8C122.4 121.775 122.275 121.75 122.275 121.75L122.525 121.8C122.925 121.875 123.2 122.225 123.15 122.625C123.125 123.05 122.75 123.35 122.325 123.35H122.125H122.325C122.75 123.375 123.05 123.725 123.025 124.15C123 124.5 122.725 124.775 122.375 124.825L122.025 124.85L122.275 124.825C122.625 124.8 122.95 125.1 122.925 125.45C122.9 125.7 122.725 125.9 122.5 125.975C121.075 126.35 119.575 126.475 118.1 126.325L115.3 126.075L105.7 127.575L105.675 122.15L115.05 121.275Z" fill="#FC9D9D"/>
<path d="M93.3998 102.775L96.2498 101.75C98.2998 105.175 99.5498 107.9 99.4248 111.875L100.05 113.55L98.7248 122.5L108.475 121.825L108.15 127.25L92.6748 130.25C90.6498 130.65 88.8498 128.875 89.1998 126.85L93.3998 102.775Z" fill="#363C54"/>
<path opacity="0.15" d="M92.3499 128.95C90.9749 129.225 89.7249 128.5 89.1499 127.375C89.1499 129.175 90.7999 130.6 92.6499 130.25L108.125 127.25L108.175 126.525L92.3499 128.95Z" fill="black"/>
<path opacity="0.15" d="M99.1249 119.775L97.4 122.05C97.225 122.3 97.3999 122.65 97.7249 122.625L98.7249 122.525L99.1249 119.775Z" fill="black"/>
<path opacity="0.15" d="M122.775 120.625L121.675 120.45C121.675 120.5 121.7 120.525 121.725 120.575L121.85 120.8C121.95 120.975 121.925 121.2 121.825 121.35C121.725 121.5 121.7 121.7 121.775 121.85L121.9 122.125C121.975 122.3 121.95 122.475 121.85 122.625L121.75 122.775C121.625 122.95 121.625 123.2 121.75 123.375L121.825 123.475C121.95 123.65 121.95 123.9 121.825 124.075L121.775 124.175C121.65 124.35 121.65 124.575 121.75 124.75L121.875 124.95C121.975 125.125 121.975 125.325 121.875 125.5L121.55 126.125C121.875 126.075 122.2 126 122.525 125.925C122.775 125.875 122.95 125.65 122.95 125.4C122.975 125.025 122.675 124.725 122.3 124.775H122.4C122.75 124.75 123.025 124.45 123.05 124.1C123.075 123.7 122.775 123.325 122.35 123.3C122.775 123.325 123.125 123 123.175 122.575C123.2 122.175 122.925 121.825 122.55 121.75C122.575 121.75 122.575 121.75 122.6 121.75C122.95 121.825 123.275 121.575 123.3 121.225V121.2C123.275 120.95 123.075 120.675 122.775 120.625ZM122.25 121.725C122.25 121.725 122.275 121.725 122.3 121.725H122.25Z" fill="black"/>
<path opacity="0.15" d="M115.3 126.05L115.125 126.025C114.45 125.95 113.75 125.95 113.075 126.025L108.2 126.525L108.15 127.175" fill="black"/>
<path opacity="0.2" d="M109.675 121.375L99.95 122.075L100 122.45L109.7 121.75C109.8 121.75 109.875 121.65 109.875 121.55C109.875 121.45 109.775 121.375 109.675 121.375Z" fill="black"/>
<path opacity="0.2" d="M113.95 151.725C113.65 151.725 113.4 151.825 113.2 152.025C113 152.2 112.875 152.45 112.85 152.75L106.475 232.6L104.175 232.575L108.075 157.325C108.25 154.175 110.825 151.725 113.95 151.725Z" fill="black"/>
<path opacity="0.2" d="M131.025 149.4L129.525 136.675C128.9 131.275 128.825 125.825 129.35 120.425L129.65 117.175L127.975 114.825C127.7 114.45 127.1 114.575 127.025 115.05L126.225 120.35C125.375 125.95 125.075 131.6 125.275 137.25L126.725 150.6H129.975C130.6 150.575 131.1 150.025 131.025 149.4Z" fill="black"/>
<path d="M131.05 100.2L137.825 115.825L148.075 105.9L150.85 110.025L137.9 126.225C136.65 127.8 134.175 127.55 133.275 125.75L127.225 113.75" fill="#363C54"/>
<path opacity="0.15" d="M150.3 110.675L138.15 125.85C136.975 127.5 135.35 127.575 134.025 126.65C134.95 126.625 135.85 126.35 136.55 125.525L150.2 109.25L150.3 110.675Z" fill="black"/>
<path opacity="0.15" d="M136.975 116.85L137.825 115.825L133.3 105.425L135.9 116.575C136 117.1 136.65 117.25 136.975 116.85Z" fill="black"/>
<path d="M306.85 173.225H292.875V202.725H306.85V173.225Z" fill="#DADDDF"/>
<path d="M301.325 173.225H307.3V176.075H306.85V202.725H302.225V176.075H301.325V173.225Z" fill="#B2B6BB"/>
<path d="M301.2 173.225H292.875V176.075H301.2V173.225Z" fill="#DADDDF"/>
<path d="M303.875 176.075H292.875V176.45H303.875V176.075Z" fill="#B2B6BB"/>
<path d="M312.275 151.125H309.875H254.275V153.525H309.875V202.725H254.275V205.125H309.875V256.725H312.275V151.125Z" fill="white"/>
<path d="M322.95 151.125H312.275V256.725H322.95V151.125Z" fill="#DADDDF"/>
<path d="M338.6 257.325H56.85C56.675 257.325 56.55 257.2 56.55 257.025C56.55 256.85 56.675 256.725 56.85 256.725H338.6C338.775 256.725 338.9 256.85 338.9 257.025C338.9 257.175 338.775 257.325 338.6 257.325Z" fill="#B2B6BB"/>
<path d="M293.2 256.9H147.45C145.475 256.9 143.9 255.3 143.9 253.35V107.6C143.9 105.625 145.5 104.05 147.45 104.05H293.2C295.175 104.05 296.75 105.65 296.75 107.6V253.35C296.75 255.325 295.175 256.9 293.2 256.9Z" fill="#363C54"/>
<path opacity="0.5" d="M293.2 256.9H147.45C145.475 256.9 143.9 255.3 143.9 253.35V107.6C143.9 105.625 145.5 104.05 147.45 104.05H293.2C295.175 104.05 296.75 105.65 296.75 107.6V253.35C296.75 255.325 295.175 256.9 293.2 256.9Z" fill="white"/>
<path d="M290.75 256.9H145C143.025 256.9 141.45 255.3 141.45 253.35V107.6C141.45 105.625 143.05 104.05 145 104.05H290.75C292.725 104.05 294.3 105.65 294.3 107.6V253.35C294.3 255.325 292.725 256.9 290.75 256.9Z" fill="#363C54"/>
<path opacity="0.7" d="M290.75 256.9H145C143.025 256.9 141.45 255.3 141.45 253.35V107.6C141.45 105.625 143.05 104.05 145 104.05H290.75C292.725 104.05 294.3 105.65 294.3 107.6V253.35C294.3 255.325 292.725 256.9 290.75 256.9Z" fill="white"/>
<path d="M220.225 69.4501C220.225 62.7751 225.275 57.2751 231.775 56.5501V56.4751H233.2C240.375 56.4751 246.175 62.2751 246.175 69.4501C246.175 76.6251 240.375 82.4251 233.2 82.4251H231.775V82.3501C225.275 81.6251 220.225 76.1251 220.225 69.4501Z" fill="#B2B6BB"/>
<path d="M231.775 82.4251C238.941 82.4251 244.75 76.6158 244.75 69.4501C244.75 62.2841 238.941 56.4751 231.775 56.4751C224.609 56.4751 218.8 62.2841 218.8 69.4501C218.8 76.6158 224.609 82.4251 231.775 82.4251Z" fill="#868A91"/>
<path d="M231.775 80.9999C238.154 80.9999 243.325 75.8289 243.325 69.4499C243.325 63.0711 238.154 57.8999 231.775 57.8999C225.396 57.8999 220.225 63.0711 220.225 69.4499C220.225 75.8289 225.396 80.9999 231.775 80.9999Z" fill="white"/>
<path d="M231.775 80.9999C238.154 80.9999 243.325 75.8289 243.325 69.4499C243.325 63.0711 238.154 57.8999 231.775 57.8999C225.396 57.8999 220.225 63.0711 220.225 69.4499C220.225 75.8289 225.396 80.9999 231.775 80.9999Z" fill="#868A91"/>
<path opacity="0.9" d="M231.775 80.9999C238.154 80.9999 243.325 75.8289 243.325 69.4499C243.325 63.0711 238.154 57.8999 231.775 57.8999C225.396 57.8999 220.225 63.0711 220.225 69.4499C220.225 75.8289 225.396 80.9999 231.775 80.9999Z" fill="white"/>
<path d="M231.775 57.8999C231.975 57.8999 232.2 57.8999 232.4 57.9249C226.3 58.2499 221.475 63.2749 221.475 69.4499C221.475 75.6249 226.325 80.6499 232.4 80.9749C232.2 80.9749 232 80.9999 231.775 80.9999C225.4 80.9999 220.225 75.8249 220.225 69.4499C220.225 63.0749 225.4 57.8999 231.775 57.8999Z" fill="#B2B6BB"/>
<path d="M231.675 70.3499L235.5 62.7249C235.65 62.4249 235.525 62.0749 235.225 61.9249C234.925 61.7749 234.575 61.8999 234.425 62.1999L231.125 68.7499L226.725 66.5999C226.425 66.4499 226.075 66.5749 225.925 66.8749C225.775 67.1749 225.9 67.5249 226.2 67.6749L231.675 70.3499Z" fill="#363C54"/>
<path opacity="0.5" d="M221.875 75.3999C220.825 73.6499 220.225 71.6249 220.225 69.4499C220.225 63.0749 225.4 57.8999 231.775 57.8999C232.1 57.8999 232.4 57.9249 232.725 57.9499L221.875 75.3999Z" fill="white"/>
<path opacity="0.5" d="M234.45 58.2251C235 58.3501 235.55 58.5251 236.075 58.7501L224.125 78.1251C223.65 77.7251 223.225 77.2501 222.825 76.7751L234.45 58.2251Z" fill="white"/>
<path d="M271.496 237H166.503C164.261 237 162.5 235.185 162.5 232.997V128.003C162.5 125.761 164.315 124 166.503 124H271.496C273.737 124 275.499 125.815 275.499 128.003V232.997C275.552 235.239 273.737 237 271.496 237Z" fill="#363C54"/>
<path opacity="0.5" d="M271.496 237H166.503C164.261 237 162.5 235.185 162.5 232.997V128.003C162.5 125.761 164.315 124 166.503 124H271.496C273.737 124 275.499 125.815 275.499 128.003V232.997C275.552 235.239 273.737 237 271.496 237Z" fill="white"/>
<path d="M269.443 237H164.503C162.261 237 160.5 235.185 160.5 232.997V128.003C160.5 125.761 162.315 124 164.503 124H269.497C271.739 124 273.5 125.815 273.5 128.003V232.997C273.5 235.239 271.685 237 269.443 237Z" fill="white"/>
<path d="M241.334 201H191.665C189.895 201 188.5 199.627 188.5 198C188.5 196.322 189.948 195 191.665 195H241.334C243.104 195 244.499 196.373 244.499 198C244.552 199.678 243.104 201 241.334 201Z" fill="#61656D"/>
<path d="M253.852 214H179.145C178.243 214 177.5 213.097 177.5 212C177.5 210.903 178.243 210 179.145 210H253.852C254.755 210 255.497 210.903 255.497 212C255.55 213.097 254.808 214 253.852 214Z" fill="#B2B6BB"/>
<path d="M238.849 224H194.151C193.246 224 192.5 223.323 192.5 222.5C192.5 221.677 193.246 221 194.151 221H238.849C239.754 221 240.5 221.677 240.5 222.5C240.5 223.323 239.754 224 238.849 224Z" fill="#B2B6BB"/>
<path d="M219 137H214.774V137.432C204.948 139.432 197.5 148.351 197.5 159C197.5 169.649 204.896 178.568 214.774 180.568V181H219C230.886 181 240.5 171.162 240.5 159C240.5 146.838 230.886 137 219 137Z" fill="#363C54"/>
<path opacity="0.2" d="M219 137H214.774V137.432C204.948 139.432 197.5 148.351 197.5 159C197.5 169.649 204.896 178.568 214.774 180.568V181H219C230.886 181 240.5 171.162 240.5 159C240.5 146.838 230.886 137 219 137Z" fill="black"/>
<path d="M217 181C228.874 181 238.5 171.15 238.5 159C238.5 146.85 228.874 137 217 137C205.126 137 195.5 146.85 195.5 159C195.5 171.15 205.126 181 217 181Z" fill="#363C54"/>
<path d="M212.995 167.679L205.777 160.345C205.408 159.97 205.408 159.328 205.777 158.9L207.674 156.972C208.042 156.598 208.675 156.598 209.096 156.972L213.733 161.683L224.904 150.281C225.273 149.906 225.905 149.906 226.326 150.281L228.223 152.208C228.592 152.583 228.592 153.225 228.223 153.654L214.418 167.679C213.997 168.107 213.364 168.107 212.995 167.679Z" fill="white"/>
<path d="M241.475 252.475C239.625 252.475 238.125 253.975 238.125 255.825C238.125 256.225 238.45 256.55 238.85 256.55H244.225C244.825 256.55 245.375 256.2 245.625 255.625L252.625 239.925L244.775 230.825C244.9 231.275 241.475 252.475 241.475 252.475Z" fill="#3F4249"/>
<path d="M280.25 239.55H266.95L272.3 244.675C273.075 245.425 273.425 246.5 273.225 247.575L272.275 252.475C270.5 252.475 269.075 253.9 269.075 255.675V255.825C269.075 256.225 269.4 256.55 269.8 256.55H274.675C275.25 256.55 275.8 256.225 276.05 255.7L280.625 246.425C281.225 245.2 281.375 243.775 281.025 242.45L280.25 239.55Z" fill="#3F4249"/>
<path d="M287.475 229.05C290.275 228.2 295.475 225.2 297.875 222.125C298.05 221.875 298.05 221.55 297.875 221.3C297.675 221.05 297.325 221 297.05 221.15C275.95 233.05 254.3 218.95 254.3 218.95C254 217.275 252.975 215.85 251.5 215C248.55 213.325 244.925 213.325 241.95 214.975C240.925 215.55 239.7 215.675 238.575 215.275L235.275 214.1C234.7 213.9 234.075 214.275 234.025 214.9L233.925 215.875C233.6 218.775 234.625 221.675 236.675 223.75L250.825 238.1C252.425 239.725 253.15 242 252.825 244.25L251.575 252.5C249.725 252.5 248.225 254 248.225 255.85C248.225 256.25 248.55 256.575 248.95 256.575H254.325C254.925 256.575 255.475 256.225 255.725 255.65L262.85 239.575H276.975L282.325 244.7C283.1 245.45 283.45 246.525 283.25 247.6L282.3 252.5C280.525 252.5 279.1 253.925 279.1 255.7C279.1 256.2 279.5 256.575 279.975 256.575H284.675C285.25 256.575 285.8 256.25 286.05 255.725L290.625 246.45C291.225 245.225 291.375 243.8 291.025 242.475L287.475 229.05Z" fill="#868A91"/>
<path d="M244.994 217.149C245.375 216.768 245.47 216.245 245.208 215.982C244.943 215.718 244.42 215.813 244.04 216.194C243.659 216.575 243.564 217.097 243.828 217.361C244.091 217.624 244.613 217.529 244.994 217.149Z" fill="#3F4249"/>
<path d="M284.325 236C284.325 238.85 286.625 241.15 289.475 241.15C289.85 241.15 290.225 241.1 290.6 241.025L288.025 231.075C285.875 231.675 284.325 233.65 284.325 236Z" fill="#3F4249"/>
<path d="M261.875 241.625L260.95 241.25C259.7 240.75 258.3 241.05 257.35 242C256.575 242.8 256.25 243.925 256.475 245.025L256.65 245.775C256.775 246.375 256.75 247 256.55 247.6L256.475 247.8C255.975 249.25 256.25 250.85 257.25 252.05L261.875 241.625Z" fill="#3F4249"/>
<path d="M255.625 219.775L256.525 225.3C257.025 228.4 259.8 230.425 262.6 229.75L265.2 229.125C265.775 228.975 266.4 228.975 266.975 229.075L272.55 230.15C275.275 230.675 278 229.325 279.45 226.75L279.9 225.95C268.575 226.275 259.05 221.675 255.625 219.775Z" fill="#3F4249"/>
<path d="M290.925 223.925C291.45 224.325 292.1 224.55 292.825 224.55C294.45 224.55 295.8 223.325 295.975 221.75C294.275 222.625 292.6 223.35 290.925 223.925Z" fill="#3F4249"/>
<path d="M241.075 221.6C240.325 220.575 240.025 219.3 240.175 218.05L240.5 215.5C239.85 215.6 239.175 215.55 238.55 215.325L235.25 214.15C234.675 213.95 234.05 214.325 234 214.95L233.9 215.925C233.575 218.825 234.6 221.725 236.65 223.8L240.8 228L241.4 226.9C242.325 225.2 242.2 223.15 241.075 221.6Z" fill="#B2B6BB"/>
<path d="M253.65 219.925L256.225 226.4C256.875 227.925 256.25 229.95 254.875 230.85C253.25 231.925 251.05 232 248.9 229.925C245.975 227.125 247.2 220.9 248.7 218.525" fill="#3F4249"/>
<path d="M276.9 239.575L274.075 236.5L276.45 241.675L276.9 239.575Z" fill="#3F4249"/>
<path d="M237.275 214.85L235.3 214.15C234.7 213.925 234.05 214.35 233.975 214.975L233.825 216.375C234.075 216.425 234.325 216.475 234.575 216.475C235.75 216.45 236.775 215.8 237.275 214.85Z" fill="#3F4249"/>
<path d="M253.4 219.3L256.1 226C256.5 226.975 256.15 228.1 255.25 228.65C253.925 229.475 251.775 230.05 249.45 227.825C246.975 225.45 247.325 220.4 248.925 218.125" fill="#868A91"/>
<path d="M252.825 229.55C251.775 229.55 250.575 229.125 249.325 227.925C248.15 226.8 247.5 225.025 247.475 222.9C247.45 221.025 247.95 219.15 248.775 217.975C248.825 217.9 248.925 217.875 249 217.925C249.075 217.975 249.1 218.075 249.05 218.15C247.55 220.25 247.1 225.275 249.55 227.65C251.8 229.8 253.825 229.275 255.15 228.45C255.975 227.925 256.3 226.925 255.925 226.025L253.225 219.325C253.2 219.25 253.225 219.15 253.325 219.1C253.4 219.075 253.5 219.1 253.55 219.2L256.25 225.9C256.7 226.95 256.3 228.15 255.35 228.75C254.65 229.2 253.8 229.55 252.825 229.55Z" fill="#3F4249"/>
<path d="M262.8 239.575C262.8 239.575 265.8 236.025 274.1 236.475L275.5 239.575H262.8Z" fill="#B2B6BB"/>
<path d="M287.275 228.2L287.475 229.075C287.475 229.075 289.6 228.4 291.5 227.25L287.275 228.2Z" fill="#3F4249"/>
<path d="M236.825 219.85C236.15 219.85 235.575 219.65 235.125 219.275C233.7 218.075 233.925 215.45 233.925 215.325C233.925 215.225 234.025 215.175 234.1 215.175C234.2 215.175 234.25 215.275 234.25 215.35C234.25 215.375 234.025 217.925 235.325 219C235.95 219.525 236.825 219.625 237.95 219.325C238.05 219.3 238.125 219.35 238.15 219.45C238.175 219.55 238.125 219.625 238.025 219.65C237.625 219.8 237.2 219.85 236.825 219.85Z" fill="#3F4249"/>
<path d="M149.65 103.1C149.65 103.625 150.075 104.05 150.6 104.05H152.5L152.9 108.05C152.925 108.35 153.2 108.6 153.5 108.6C153.825 108.6 154.075 108.35 154.1 108.025L154.35 104.2C154.35 104.15 154.4 104.1 154.475 104.1C154.525 104.1 154.575 104.15 154.6 104.2L154.85 108.025C154.875 108.35 155.15 108.6 155.475 108.6C155.8 108.6 156.1 108.325 156.1 108C156.15 106.75 156.3 104.125 156.3 104.125L156.125 107.925C156.1 108.3 156.4 108.6 156.775 108.6C157.1 108.6 157.35 108.375 157.4 108.05L157.975 104.15L157.55 107.05C157.5 107.35 157.75 107.65 158.05 107.65C158.275 107.65 158.475 107.5 158.55 107.3L159.4 104.75C159.525 104.125 159.3 103.475 158.825 103.075C156.9 101.4 154.15 101.075 151.9 102.3L149.8 102.95C149.725 102.925 149.65 103.025 149.65 103.1Z" fill="#FC9D9D"/>
<g opacity="0.15">
<path opacity="0.15" d="M156.12 104.115L156.003 107.638L156.353 107.65L156.47 104.126L156.12 104.115Z" fill="black"/>
</g>
<g opacity="0.15">
<path opacity="0.15" d="M157.772 104.313L157.536 107.153L157.885 107.182L158.121 104.342L157.772 104.313Z" fill="black"/>
</g>
<path opacity="0.2" d="M152.5 104.05H150.85L151.85 103.1C152.05 102.9 152.4 103.025 152.425 103.325L152.5 104.05Z" fill="black"/>
<path opacity="0.15" d="M99.425 117.55L100.2 113C100.225 112.85 100.45 112.85 100.475 113L101.725 121.95L99.95 122.075L99.425 117.55Z" fill="black"/>
</svg>
