<svg width="10" height="18" viewBox="0 0 10 18" fill="none" xmlns="http://www.w3.org/2000/svg">
<path d="M8.28746 17.75C8.10072 17.7506 7.91621 17.7094 7.74748 17.6294C7.57876 17.5493 7.43011 17.4325 7.31246 17.2875L1.27496 9.78749C1.09111 9.56383 0.990601 9.28327 0.990601 8.99374C0.990601 8.70421 1.09111 8.42366 1.27496 8.19999L7.52496 0.699994C7.73713 0.444723 8.04202 0.284192 8.37256 0.253718C8.70309 0.223243 9.03219 0.32532 9.28746 0.537494C9.54273 0.749667 9.70326 1.05456 9.73374 1.38509C9.76421 1.71562 9.66214 2.04472 9.44996 2.29999L3.86246 8.99999L9.26246 15.7C9.41532 15.8835 9.51241 16.1069 9.54226 16.3438C9.57211 16.5808 9.53346 16.8213 9.43089 17.037C9.32833 17.2526 9.16612 17.4344 8.96349 17.5607C8.76085 17.6871 8.52625 17.7528 8.28746 17.75Z" fill="#2A2A2A"/>
</svg>
