<svg width="30" height="30" viewBox="0 0 30 30" fill="none" xmlns="http://www.w3.org/2000/svg">
<path d="M17.2875 23.7501C17.1007 23.7507 16.9162 23.7095 16.7475 23.6295C16.5788 23.5494 16.4301 23.4326 16.3125 23.2876L10.275 15.7876C10.0911 15.5639 9.9906 15.2834 9.9906 14.9938C9.9906 14.7043 10.0911 14.4238 10.275 14.2001L16.525 6.7001C16.7371 6.44483 17.042 6.2843 17.3726 6.25382C17.7031 6.22335 18.0322 6.32543 18.2875 6.5376C18.5427 6.74977 18.7033 7.05466 18.7337 7.3852C18.7642 7.71573 18.6621 8.04483 18.45 8.3001L12.8625 15.0001L18.2625 21.7001C18.4153 21.8836 18.5124 22.107 18.5423 22.3439C18.5721 22.5809 18.5335 22.8214 18.4309 23.0371C18.3283 23.2527 18.1661 23.4345 17.9635 23.5609C17.7608 23.6872 17.5263 23.7529 17.2875 23.7501Z" fill="white"/>
</svg>
