<svg width="248" height="338" fill="none" xmlns="http://www.w3.org/2000/svg"><path opacity=".1" d="M156.269 280.439c-1.321 1.176-1.981 2.509-1.981 3.998 0 1.49.66 2.823 1.981 3.999 1.32 1.176 3.301 1.96 5.575 1.96 2.201 0 4.182-.784 5.576-1.96 1.321-1.176 1.981-2.509 1.981-3.999 0-1.411-.66-2.822-1.981-3.998-1.32-1.098-3.301-1.882-5.576-1.882-2.347 0-4.255.784-5.575 1.882Zm-27.586 7.683c1.467-1.176 2.054-2.509 2.054-3.92s-.66-2.744-2.054-3.92c-1.467-1.176-3.595-1.96-6.089-1.96-2.421 0-4.622.784-6.016 1.96-1.467 1.176-2.054 2.509-2.054 3.92 0 1.333.66 2.744 2.054 3.92 1.394 1.176 3.595 1.96 6.016 1.96 2.494.079 4.622-.784 6.089-1.96Zm-14.746 16.229c0 1.411.66 2.744 2.201 3.999 1.54 1.254 3.888 2.116 6.529 2.116s4.989-.862 6.53-2.116c1.54-1.255 2.201-2.666 2.201-3.999 0-1.411-.661-2.822-2.201-3.998-1.541-1.255-3.889-2.117-6.53-2.117-2.641 0-4.915.862-6.456 2.117-1.614 1.176-2.274 2.587-2.274 3.998ZM55.171 174.833c0-.078.44-6.272 1.54-15.053 1.174-8.78 3.009-20.148 6.017-30.654 2.054-7.056 4.548-13.642 7.85-19.051 1.32-2.117 2.787-4.077 4.475-5.724-2.348-13.25-5.062-20.07-5.136-20.305-.953-2.353 0-5.097 2.275-6.116 2.2-1.019 4.768 0 5.722 2.43.22.55 10.051 24.775 9.318 71.502-.367 23.363-3.375 52.372-11.592 86.789-.514 2.117-2.348 3.529-4.329 3.529-.367 0-.66-.079-1.027-.157-2.348-.627-3.741-3.136-3.155-5.645 7.997-33.791 10.932-62.015 11.299-84.673.22-13.485-.44-24.931-1.54-34.418-.955 1.725-1.908 3.764-2.789 5.959-2.42 5.958-4.328 13.328-5.869 20.541-3.008 14.425-4.182 28.459-4.402 31.438 0 .392-.073.628-.073.628-.147 2.587-2.055 4.547-4.329 4.547h-.367c-2.274-.471-4.035-2.823-3.888-5.567Zm33.455 100.196c0-2.195 1.76-3.92 3.961-3.92 2.201 0 3.962 1.725 3.962 3.92v39.279c0 2.195-1.76 3.92-3.962 3.92-2.127 0-3.961-1.725-3.961-3.92v-39.279Zm17.827-194.825c.954-2.352 3.522-3.45 5.723-2.352 2.201 1.019 3.228 3.763 2.274 6.115l-.073.157c-.073.157-.147.392-.294.706-.22.627-.587 1.646-1.027 3.057-.88 2.744-1.981 6.978-3.154 12.623-.221 1.176-.441 2.43-.734 3.763 1.687 1.646 3.155 3.606 4.475 5.723 1.908 3.058 3.522 6.586 4.989 10.349 2.861 7.448 4.916 15.915 6.456 23.991 3.082 16.072 4.035 30.341 4.035 30.497.147 2.744-1.614 5.096-4.035 5.253h-.293c-2.275 0-4.182-1.96-4.329-4.547v-.235c0-.157 0-.392-.073-.784a61.604 61.604 0 0 1-.22-2.979c-.22-2.509-.587-6.116-1.174-10.349-1.101-8.468-2.935-19.365-5.723-29.087-1.614-5.802-3.668-11.054-5.869-15.053-1.1 9.487-1.761 20.933-1.541 34.418.367 22.658 3.302 50.882 11.299 84.673.587 2.509-.807 5.017-3.155 5.645-.367.078-.66.156-1.027.156-1.981 0-3.815-1.411-4.329-3.528-8.143-34.418-11.225-63.426-11.591-86.789-.66-46.649 9.17-70.874 9.39-71.423Zm-.44 224.147c0-4.155 2.128-7.84 5.209-10.192l.147-.078c-2.788-2.352-4.769-5.88-4.769-9.8 0-4.077 2.054-7.605 4.989-10.036 2.935-2.43 6.823-3.763 11.005-3.763s8.07 1.333 11.005 3.763c2.934 2.352 4.988 5.959 4.988 10.036 0 3.92-1.98 7.448-4.768 9.8l.146.157c3.008 2.43 5.209 6.036 5.209 10.192 0 4.155-2.127 7.84-5.209 10.192-3.081 2.43-7.043 3.763-11.445 3.763-4.328 0-8.363-1.411-11.445-3.763-2.861-2.509-5.062-6.115-5.062-10.271Zm38.517-128.969c0-8.545.367-15.837.954-22.03.22-2.588 2.421-4.391 4.769-4.156 2.421.236 4.181 2.509 3.888 5.096-.587 5.802-.954 12.78-.954 21.09 0 12.152.807 27.205 3.008 45.394.294 2.587-1.394 4.861-3.741 5.253l-.587.078c-2.128 0-4.035-1.724-4.329-4.076-2.201-18.66-3.008-34.026-3.008-46.649Zm1.834 109.055c.074-8.075 7.337-13.798 15.407-13.798 6.309 0 12.032 3.45 14.306 8.781l.441.705c.146.314 1.467 3.45 1.467 8.233.147 7.761-3.889 19.835-20.249 29.321-.587.392-1.321.549-1.981.549a3.936 3.936 0 0 1-3.375-1.96c-1.1-1.881-.513-4.312 1.394-5.41 8.144-4.86 12.252-9.721 14.38-13.955-1.908.784-4.035 1.176-6.236 1.255-8.217 0-15.48-5.645-15.554-13.721Zm33.969-58.408c-2.128 0-4.036-1.725-4.329-4.077-2.274-18.581-3.081-33.947-3.081-46.648 0-8.546.366-15.837.953-22.031.22-2.587 2.348-4.39 4.769-4.155 2.421.235 4.182 2.509 3.888 5.096-.586 5.802-.953 12.779-.953 21.09 0 12.152.807 27.205 3.008 45.394.293 2.587-1.394 4.861-3.742 5.253l-.513.078Zm2.2 86.162c.661-2.117 2.862-3.214 4.916-2.587 1.394.47 3.301.627 5.576.784h1.1c2.788 0 5.723-.706 7.704-1.882 2.054-1.254 3.081-2.587 3.374-4.704.074-.392.074-.784.074-1.097-.074-2.823-1.101-3.842-3.375-5.175-2.201-1.176-5.502-1.646-7.85-1.646-1.101 0-1.981.078-2.274.157-1.174.47-2.568.313-3.669-.471-1.1-.784-1.761-1.96-1.687-3.292l.147-16.621c.073-2.117 1.834-3.92 3.961-3.92h15.554c2.201 0 3.962 1.803 3.962 3.92 0 2.195-1.761 3.92-3.962 3.92h-11.665l-.074 8.31c3.228.079 7.337.627 11.225 2.509 3.962 1.882 7.704 6.194 7.63 12.152 0 .706-.073 1.333-.146 2.117-.587 4.782-3.595 8.467-7.19 10.506-3.522 2.116-7.704 2.979-11.665 2.979-.514 0-1.101 0-1.614-.079-2.348-.156-4.843-.392-7.41-1.176-2.128-.392-3.302-2.665-2.642-4.704Zm31.181-69.776c-2.421 0-4.402-2.117-4.402-4.626V180.4h-13.719c-2.495 0-4.476-2.117-4.476-4.626 0-2.587 1.981-4.625 4.476-4.625h13.719v-18.111h-13.719c-2.495 0-4.476-2.117-4.476-4.704 0-2.587 1.981-4.626 4.476-4.626h13.719v-18.189h-13.719c-2.495 0-4.476-2.116-4.476-4.625 0-2.587 1.981-4.704 4.476-4.704h5.429c.073-1.49.146-3.058.146-4.547 0-7.292-1.174-15.602-4.915-27.52-.734-2.43.44-5.095 2.714-5.958 2.275-.862 4.769.47 5.503 2.98 3.962 12.622 5.355 22.109 5.355 30.576 0 1.568-.073 3.058-.146 4.547h7.703c-.073-1.489-.147-2.979-.147-4.547 0-8.467 1.468-17.954 5.356-30.576.807-2.43 3.228-3.764 5.502-2.98 2.275.863 3.522 3.528 2.715 5.959-3.742 11.917-4.915 20.227-4.915 27.519 0 1.568.073 3.057.146 4.547h5.429c2.495 0 4.476 2.117 4.476 4.704 0 2.587-1.981 4.625-4.476 4.625h-13.352v18.189h13.499c2.494 0 4.475 2.117 4.475 4.626 0 2.587-1.981 4.704-4.475 4.704h-13.499v18.111h13.499c2.494 0 4.475 2.116 4.475 4.625 0 2.587-1.981 4.626-4.475 4.626h-13.499v57.389c0 2.587-1.981 4.626-4.402 4.626Zm-25.531-130.224c0 5.88-.661 11.29-1.468 16.464-.367 2.274-2.201 3.842-4.328 3.842l-.734-.078c-2.348-.471-3.962-2.823-3.521-5.41.807-4.939 1.32-9.643 1.32-14.896 0-7.762-1.174-16.621-4.915-28.381-.734-2.43.44-5.096 2.714-5.88 2.274-.863 4.769.47 5.503 2.9 4.035 12.545 5.429 22.58 5.429 31.439Zm-14.233-.705c0 5.174-.514 9.957-1.248 14.739-.733 4.782-1.614 9.487-2.494 14.818-1.467 8.859-2.788 19.443-2.788 34.496 0 15.131 1.321 34.731 5.282 61.309.367 2.509-1.247 4.94-3.594 5.332l-.661.078c-2.127 0-3.961-1.646-4.328-3.92-4.035-26.97-5.429-47.04-5.429-62.799 0-15.68 1.394-26.97 2.934-36.143.881-5.409 1.834-10.192 2.495-14.661.66-4.468 1.1-8.702 1.1-13.249 0-7.448-1.174-15.916-4.915-27.754-.807-2.43.44-5.096 2.714-5.88 2.275-.863 4.769.47 5.503 2.9 4.035 12.545 5.429 22.11 5.429 30.734Zm-14.233.705c0 5.88-.66 11.29-1.468 16.464-.366 2.274-2.2 3.842-4.255 3.842l-.733-.078c-2.348-.471-3.962-2.823-3.522-5.41.807-4.939 1.321-9.643 1.321-14.896 0-7.762-1.248-16.621-4.916-28.381-.733-2.43.44-5.096 2.715-5.88 2.274-.863 4.768.47 5.502 2.9 3.962 12.545 5.429 22.58 5.356 31.439Zm-141.67 72.678c.808 29.322 6.53 60.055 21.497 88.671 34.922 66.797 92.661 98.549 106.087 105.135 0 0 62.727-22.266 106.013-105.135 14.966-28.616 20.762-59.349 21.569-88.671-18.341-7.213-30.74-21.952-29.933-38.338.587-13.328 9.758-24.696 23.33-31.439-7.85-37.867-19.588-64.053-19.588-64.053-52.823 19.992-101.318-26.421-101.318-26.421S97.136 71.03 44.386 51.038c0 0-11.812 26.187-19.589 64.054 13.573 6.664 22.744 18.111 23.33 31.439.514 16.386-11.811 31.125-30.08 38.338Zm14.894 93.296c-15.774-30.184-21.79-62.563-22.597-92.983l-.146-6.507 5.355-2.117c7.924-3.136 14.38-7.84 18.562-12.936 4.255-5.174 6.163-10.427 6.236-15.68v-.862c-.22-4.391-1.76-8.624-4.915-12.78-3.155-4.155-7.85-7.997-13.72-10.897l-5.942-2.98 1.467-7.291C25.31 74.245 37.343 47.511 37.49 47.04l3.008-6.742 6.236 2.352c9.684 3.685 19.222 5.174 28.392 5.174h.22c34.115 0 62.655-27.753 65.589-30.184l.22-.157 4.476-3.684 4.475 3.684.22.157c2.861 2.352 31.547 30.263 65.809 30.184 9.171 0 18.708-1.49 28.392-5.174l6.236-2.352 3.008 6.742c.147.392 11.079 24.618 19.075 60.447.147.784.367 1.568.514 2.352l.22.941c.073.47.22.941.294 1.411l.22.941.66 3.371.807 3.92-5.943 2.98c-5.942 2.9-10.638 6.742-13.719 10.897-3.155 4.156-4.695 8.389-4.916 12.78v.862c0 5.174 1.981 10.506 6.237 15.68 4.181 5.096 10.638 9.8 18.561 12.936l5.356 2.117-.147 5.331-.073 1.176c-.807 30.42-6.823 62.799-22.597 92.983-36.389 69.463-95.448 101.686-109.681 108.742l-3.008 1.019-3.008-1.019C128.39 379.851 69.33 347.55 32.941 278.165Zm-8.29 5.724c38.223 72.677 98.97 105.605 114.157 113.21l6.823 2.901 6.823-2.901c15.186-7.605 75.86-40.533 114.156-113.21 16.801-32.145 23.184-66.484 23.991-98.393v-.627l.367-14.112s-16.728-5.488-21.79-9.095c-7.63-5.488-9.757-11.917-6.089-20.227 3.521-7.919 23.697-14.661 23.697-14.661l-3.375-16.386c-.22-1.098-.44-2.117-.66-3.136-8.29-38.495-20.029-64.524-20.396-65.464l-6.823-15.132-14.086 5.332c-8.657 3.292-17.168 4.625-25.384 4.625-31.328.314-59.206-27.048-60.454-28.303L145.484 0l-10.125 8.31c-1.247 1.176-29.126 28.617-60.453 28.303-8.217 0-16.727-1.333-25.384-4.625l-14.086-5.332-6.823 15.132c-.44.94-12.766 28.459-21.13 68.6l-3.375 16.386s20.176 6.664 23.697 14.661c3.742 8.31 1.615 14.739-6.015 20.227C16.8 165.19 0 170.757 0 170.757l.367 14.739c1.1 31.909 7.483 66.248 24.284 98.393Z" fill="#fff"/></svg>