<svg width="83" height="27" viewBox="0 0 83 27" fill="none" xmlns="http://www.w3.org/2000/svg">
<path d="M0.576 0.223999H5.724L9.72 15.272L10.296 18.044H10.584L11.34 15.272L15.048 3.68H19.584L23.328 15.272L24.048 18.008H24.336L24.876 15.272L28.62 0.223999H33.768L26.928 26H22.248L18.216 13.58L17.46 10.736H17.172L16.416 13.58L12.384 26H7.704L0.576 0.223999ZM51.0989 21.752C50.2829 23.192 49.1789 24.356 47.7869 25.244C46.4189 26.132 44.7389 26.576 42.7469 26.576C41.4029 26.576 40.1549 26.348 39.0029 25.892C37.8749 25.412 36.8909 24.752 36.0509 23.912C35.2109 23.072 34.5509 22.088 34.0709 20.96C33.6149 19.808 33.3869 18.548 33.3869 17.18C33.3869 15.908 33.6149 14.708 34.0709 13.58C34.5269 12.428 35.1629 11.432 35.9789 10.592C36.7949 9.728 37.7549 9.044 38.8589 8.54C39.9869 8.036 41.2229 7.784 42.5669 7.784C43.9829 7.784 45.2429 8.024 46.3469 8.504C47.4509 8.96 48.3749 9.608 49.1189 10.448C49.8629 11.264 50.4269 12.236 50.8109 13.364C51.1949 14.492 51.3869 15.716 51.3869 17.036C51.3869 17.204 51.3869 17.348 51.3869 17.468C51.3629 17.612 51.3509 17.744 51.3509 17.864C51.3269 17.984 51.3149 18.116 51.3149 18.26H38.0309C38.1269 18.98 38.3189 19.604 38.6069 20.132C38.9189 20.636 39.2909 21.068 39.7229 21.428C40.1789 21.764 40.6709 22.016 41.1989 22.184C41.7269 22.328 42.2669 22.4 42.8189 22.4C43.8989 22.4 44.7869 22.16 45.4829 21.68C46.2029 21.176 46.7669 20.552 47.1749 19.808L51.0989 21.752ZM46.8149 14.912C46.7909 14.6 46.6829 14.252 46.4909 13.868C46.3229 13.484 46.0589 13.124 45.6989 12.788C45.3629 12.452 44.9309 12.176 44.4029 11.96C43.8989 11.744 43.2869 11.636 42.5669 11.636C41.5589 11.636 40.6709 11.924 39.9029 12.5C39.1349 13.076 38.5949 13.88 38.2829 14.912H46.8149ZM67.7146 23.876H67.4266C66.9946 24.62 66.3226 25.256 65.4106 25.784C64.4986 26.312 63.3706 26.576 62.0266 26.576C60.8986 26.576 59.8186 26.348 58.7866 25.892C57.7786 25.412 56.8786 24.764 56.0866 23.948C55.3186 23.108 54.7066 22.112 54.2506 20.96C53.7946 19.808 53.5666 18.548 53.5666 17.18C53.5666 15.812 53.7946 14.552 54.2506 13.4C54.7066 12.248 55.3186 11.264 56.0866 10.448C56.8786 9.608 57.7786 8.96 58.7866 8.504C59.8186 8.024 60.8986 7.784 62.0266 7.784C63.3706 7.784 64.4986 8.048 65.4106 8.576C66.3226 9.104 66.9946 9.74 67.4266 10.484H67.7146L67.4266 7.964V0.223999H72.1426V26H67.7146V23.876ZM62.9986 22.22C63.6226 22.22 64.2106 22.112 64.7626 21.896C65.3386 21.656 65.8426 21.32 66.2746 20.888C66.7066 20.456 67.0546 19.928 67.3186 19.304C67.5826 18.68 67.7146 17.972 67.7146 17.18C67.7146 16.388 67.5826 15.68 67.3186 15.056C67.0546 14.432 66.7066 13.904 66.2746 13.472C65.8426 13.04 65.3386 12.716 64.7626 12.5C64.2106 12.26 63.6226 12.14 62.9986 12.14C62.3746 12.14 61.7746 12.26 61.1986 12.5C60.6466 12.74 60.1546 13.076 59.7226 13.508C59.2906 13.94 58.9426 14.468 58.6786 15.092C58.4146 15.716 58.2826 16.412 58.2826 17.18C58.2826 17.948 58.4146 18.644 58.6786 19.268C58.9426 19.892 59.2906 20.42 59.7226 20.852C60.1546 21.284 60.6466 21.62 61.1986 21.86C61.7746 22.1 62.3746 22.22 62.9986 22.22ZM79.0045 26.216C78.1405 26.216 77.3965 25.916 76.7725 25.316C76.1725 24.692 75.8725 23.948 75.8725 23.084C75.8725 22.22 76.1725 21.488 76.7725 20.888C77.3965 20.288 78.1405 19.988 79.0045 19.988C79.8685 19.988 80.6005 20.288 81.2005 20.888C81.8005 21.488 82.1005 22.22 82.1005 23.084C82.1005 23.948 81.8005 24.692 81.2005 25.316C80.6005 25.916 79.8685 26.216 79.0045 26.216Z" fill="#376EE8"/>
</svg>
