<svg width="50" height="28" viewBox="0 0 50 28" fill="none" xmlns="http://www.w3.org/2000/svg">
<path d="M0.592 1.224H16.936V5.832H5.452V12.096H15.784V16.704H5.452V27H0.592V1.224ZM19.3871 9.36H23.8151V11.808H24.1031C24.3191 11.376 24.6071 10.98 24.9671 10.62C25.3271 10.26 25.7231 9.948 26.1551 9.684C26.6111 9.42 27.0911 9.216 27.5951 9.072C28.1231 8.928 28.6391 8.856 29.1431 8.856C29.7671 8.856 30.2951 8.916 30.7271 9.036C31.1831 9.156 31.5671 9.312 31.8791 9.504L30.6191 13.788C30.3311 13.644 30.0071 13.536 29.6471 13.464C29.3111 13.368 28.8911 13.32 28.3871 13.32C27.7391 13.32 27.1511 13.452 26.6231 13.716C26.0951 13.956 25.6391 14.304 25.2551 14.76C24.8951 15.216 24.6071 15.756 24.3911 16.38C24.1991 16.98 24.1031 17.64 24.1031 18.36V27H19.3871V9.36ZM36.6753 6.804C36.2673 6.804 35.8713 6.732 35.4873 6.588C35.1273 6.42 34.8033 6.204 34.5153 5.94C34.2513 5.652 34.0353 5.328 33.8673 4.968C33.7233 4.608 33.6513 4.212 33.6513 3.78C33.6513 3.348 33.7233 2.952 33.8673 2.592C34.0353 2.232 34.2513 1.92 34.5153 1.656C34.8033 1.368 35.1273 1.152 35.4873 1.008C35.8713 0.839998 36.2673 0.755999 36.6753 0.755999C37.5153 0.755999 38.2353 1.056 38.8353 1.656C39.4353 2.232 39.7353 2.94 39.7353 3.78C39.7353 4.62 39.4353 5.34 38.8353 5.94C38.2353 6.516 37.5153 6.804 36.6753 6.804ZM34.3353 27V9.36H39.0513V27H34.3353ZM46.2077 27.216C45.3437 27.216 44.5997 26.916 43.9757 26.316C43.3757 25.692 43.0757 24.948 43.0757 24.084C43.0757 23.22 43.3757 22.488 43.9757 21.888C44.5997 21.288 45.3437 20.988 46.2077 20.988C47.0717 20.988 47.8037 21.288 48.4037 21.888C49.0037 22.488 49.3037 23.22 49.3037 24.084C49.3037 24.948 49.0037 25.692 48.4037 26.316C47.8037 26.916 47.0717 27.216 46.2077 27.216Z" fill="#376EE8"/>
</svg>
