<svg width="63" height="28" viewBox="0 0 63 28" fill="none" xmlns="http://www.w3.org/2000/svg">
<path d="M10.476 27.576C9.372 27.576 8.316 27.42 7.308 27.108C6.3 26.796 5.376 26.328 4.536 25.704C3.696 25.08 2.964 24.324 2.34 23.436C1.716 22.524 1.224 21.468 0.864 20.268L5.436 18.468C5.772 19.764 6.36 20.844 7.2 21.708C8.04 22.548 9.144 22.968 10.512 22.968C11.016 22.968 11.496 22.908 11.952 22.788C12.432 22.644 12.852 22.452 13.212 22.212C13.596 21.948 13.896 21.624 14.112 21.24C14.328 20.856 14.436 20.412 14.436 19.908C14.436 19.428 14.352 18.996 14.184 18.612C14.016 18.228 13.728 17.868 13.32 17.532C12.936 17.196 12.42 16.872 11.772 16.56C11.148 16.248 10.368 15.924 9.432 15.588L7.848 15.012C7.152 14.772 6.444 14.448 5.724 14.04C5.028 13.632 4.392 13.14 3.816 12.564C3.24 11.988 2.76 11.316 2.376 10.548C2.016 9.756 1.836 8.868 1.836 7.884C1.836 6.876 2.028 5.94 2.412 5.076C2.82 4.188 3.384 3.42 4.104 2.772C4.848 2.1 5.724 1.584 6.732 1.224C7.764 0.839998 8.904 0.647998 10.152 0.647998C11.448 0.647998 12.564 0.827999 13.5 1.188C14.46 1.524 15.264 1.968 15.912 2.52C16.584 3.048 17.124 3.636 17.532 4.284C17.94 4.932 18.24 5.544 18.432 6.12L14.148 7.92C13.908 7.2 13.464 6.552 12.816 5.976C12.192 5.4 11.328 5.112 10.224 5.112C9.168 5.112 8.292 5.364 7.596 5.868C6.9 6.348 6.552 6.984 6.552 7.776C6.552 8.544 6.888 9.204 7.56 9.756C8.232 10.284 9.3 10.8 10.764 11.304L12.384 11.844C13.416 12.204 14.352 12.624 15.192 13.104C16.056 13.56 16.788 14.112 17.388 14.76C18.012 15.408 18.48 16.152 18.792 16.992C19.128 17.808 19.296 18.756 19.296 19.836C19.296 21.18 19.02 22.344 18.468 23.328C17.94 24.288 17.256 25.08 16.416 25.704C15.576 26.328 14.628 26.796 13.572 27.108C12.516 27.42 11.484 27.576 10.476 27.576ZM33.595 25.128H33.307C32.755 25.8 32.083 26.376 31.291 26.856C30.523 27.336 29.527 27.576 28.303 27.576C27.391 27.576 26.527 27.42 25.711 27.108C24.919 26.82 24.223 26.412 23.623 25.884C23.023 25.356 22.555 24.72 22.219 23.976C21.883 23.232 21.715 22.416 21.715 21.528C21.715 20.616 21.895 19.8 22.255 19.08C22.615 18.336 23.119 17.7 23.767 17.172C24.415 16.644 25.171 16.248 26.035 15.984C26.923 15.696 27.883 15.552 28.915 15.552C30.067 15.552 31.015 15.648 31.759 15.84C32.503 16.008 33.115 16.188 33.595 16.38V15.84C33.595 14.904 33.223 14.136 32.479 13.536C31.735 12.912 30.811 12.6 29.707 12.6C28.075 12.6 26.695 13.284 25.567 14.652L22.147 12.312C24.019 9.96 26.575 8.784 29.815 8.784C32.551 8.784 34.639 9.432 36.079 10.728C37.519 12 38.239 13.896 38.239 16.416V27H33.595V25.128ZM33.595 19.836C33.043 19.572 32.467 19.368 31.867 19.224C31.291 19.056 30.655 18.972 29.959 18.972C28.831 18.972 27.955 19.224 27.331 19.728C26.731 20.208 26.431 20.808 26.431 21.528C26.431 22.248 26.719 22.824 27.295 23.256C27.895 23.688 28.579 23.904 29.347 23.904C29.971 23.904 30.547 23.796 31.075 23.58C31.603 23.34 32.047 23.04 32.407 22.68C32.791 22.296 33.079 21.864 33.271 21.384C33.487 20.88 33.595 20.364 33.595 19.836ZM43.5811 13.392H40.4851V9.36H43.5811V3.96H48.2971V9.36H52.6171V13.392H48.2971V20.232C48.2971 20.64 48.3331 21.024 48.4051 21.384C48.5011 21.72 48.6691 22.008 48.9091 22.248C49.2451 22.632 49.7251 22.824 50.3491 22.824C50.7571 22.824 51.0811 22.788 51.3211 22.716C51.5611 22.62 51.7891 22.5 52.0051 22.356L53.3371 26.496C52.7851 26.76 52.1851 26.952 51.5371 27.072C50.9131 27.216 50.2171 27.288 49.4491 27.288C48.5611 27.288 47.7571 27.156 47.0371 26.892C46.3411 26.604 45.7531 26.22 45.2731 25.74C44.1451 24.66 43.5811 23.124 43.5811 21.132V13.392ZM58.9303 27.216C58.0663 27.216 57.3223 26.916 56.6983 26.316C56.0983 25.692 55.7983 24.948 55.7983 24.084C55.7983 23.22 56.0983 22.488 56.6983 21.888C57.3223 21.288 58.0663 20.988 58.9303 20.988C59.7943 20.988 60.5263 21.288 61.1263 21.888C61.7263 22.488 62.0263 23.22 62.0263 24.084C62.0263 24.948 61.7263 25.692 61.1263 26.316C60.5263 26.916 59.7943 27.216 58.9303 27.216Z" fill="#376EE8"/>
</svg>
