<?xml version="1.0" encoding="UTF-8"?>
<svg width="512px" height="512px" viewBox="0 0 512 512" version="1.1" xmlns="http://www.w3.org/2000/svg" xmlns:xlink="http://www.w3.org/1999/xlink">
    <!-- Generator: Sketch 52.3 (67297) - http://www.bohemiancoding.com/sketch -->
    <title>app-logo/white copy 2</title>
    <desc>Created with Sketch.</desc>
    <defs>
        <linearGradient x1="59.3905182%" y1="0%" x2="38.337076%" y2="100%" id="linearGradient-1">
            <stop stop-color="#00ACF9" offset="0%"></stop>
            <stop stop-color="#059DE1" offset="100%"></stop>
        </linearGradient>
        <rect id="path-2" x="0" y="0" width="512" height="512"></rect>
        <linearGradient x1="46.6922616%" y1="-14.5310208%" x2="38.0930241%" y2="254.77965%" id="linearGradient-4">
            <stop stop-color="#00ACF9" offset="0%"></stop>
            <stop stop-color="#059DE1" offset="100%"></stop>
        </linearGradient>
    </defs>
    <g id="app-logo/white-copy-2" stroke="none" stroke-width="1" fill="none" fill-rule="evenodd">
        <rect fill="#363C54" x="0" y="0" width="512" height="512"></rect>
        <g id="分组-5">
            <g id="分组-copy-2">
                <g id="矩形-+-矩形-+-矩形-+-矩形-+-矩形-+-矩形-+-矩形-+-矩形-+-矩形-+-^圣诞狂欢^-Mask">
                    <mask id="mask-3" fill="white">
                        <use xlink:href="#path-2"></use>
                    </mask>
                    <use id="Mask" fill="url(#linearGradient-1)" fill-rule="nonzero" xlink:href="#path-2"></use>
                    <g id="分组-4" opacity="0.06" mask="url(#mask-3)" fill="#FFFFFF" fill-rule="nonzero">
                        <g transform="translate(-95.573333, -143.360000)" id="矩形">
                            <rect transform="translate(240.640000, 116.053333) rotate(30.000000) translate(-240.640000, -116.053333) " x="238.933333" y="-13.6533333" width="3.41333333" height="259.413333"></rect>
                            <rect transform="translate(172.373333, 358.400000) rotate(30.000000) translate(-172.373333, -358.400000) " x="170.666667" y="228.693333" width="3.41333333" height="259.413333"></rect>
                            <rect transform="translate(325.973333, 221.866667) rotate(30.000000) translate(-325.973333, -221.866667) " x="324.266667" y="92.16" width="3.41333333" height="259.413333"></rect>
                            <rect transform="translate(363.520000, 286.720000) rotate(30.000000) translate(-363.520000, -286.720000) " x="361.813333" y="157.013333" width="3.41333333" height="259.413333"></rect>
                            <rect transform="translate(373.760000, 392.533333) rotate(30.000000) translate(-373.760000, -392.533333) " x="372.053333" y="262.826667" width="3.41333333" height="259.413333"></rect>
                            <rect transform="translate(547.840000, 221.866667) rotate(30.000000) translate(-547.840000, -221.866667) " x="546.133333" y="92.16" width="3.41333333" height="259.413333"></rect>
                            <rect transform="translate(551.253333, 361.813333) rotate(30.000000) translate(-551.253333, -361.813333) " x="549.546667" y="232.106667" width="3.41333333" height="259.413333"></rect>
                            <rect transform="translate(657.066667, 310.613333) rotate(30.000000) translate(-657.066667, -310.613333) " x="655.36" y="180.906667" width="3.41333333" height="259.413333"></rect>
                            <rect transform="translate(66.560000, 416.426667) rotate(30.000000) translate(-66.560000, -416.426667) " x="64.8533333" y="286.72" width="3.41333333" height="259.413333"></rect>
                            <rect transform="translate(138.240000, 546.133333) rotate(30.000000) translate(-138.240000, -546.133333) " x="136.533333" y="416.426667" width="3.41333333" height="259.413333"></rect>
                        </g>
                    </g>
                    <path d="M-1.02318154e-12,335.626675 C43.2355556,357.635558 130.844444,368.64 262.826667,368.64 C394.808889,368.64 477.866667,358.4 512,337.92 L512,512 L-1.02318154e-12,512 L-1.02318154e-12,335.626675 Z" id="矩形" fill="url(#linearGradient-4)" fill-rule="nonzero" mask="url(#mask-3)"></path>
                    <text id="圣诞狂欢" mask="url(#mask-3)" font-family="FZZCHJW--GB1-0, FZZhengHeiS-B-GB" font-size="61.44" font-weight="normal" fill="#FFFFFF">
                        <tspan x="133.12" y="456.773333">圣诞狂欢</tspan>
                    </text>
                </g>
            </g>
            <g id="圣诞鹿" transform="translate(54.613333, 385.706667)" opacity="0.900000036">
                <g id="分组">
                    <g id="分组-3" transform="translate(0.000000, 3.413333)" fill-rule="nonzero">
                        <path d="M53.2751018,49.494177 C60.253648,49.7486349 66.6857791,49.4105625 71.6666279,48.9573232 C73.3970823,48.7942028 74.9230284,50.1317903 75.0803424,51.9261151 C75.2376565,53.7204399 73.9476814,55.3027082 72.217227,55.4658286 C67.3876863,55.8736297 62.6839967,56.1019983 58.1218898,56.1019983 C57.7070696,56.1019983 57.2935096,56.1001572 56.8812304,56.0964784 C57.0207914,56.484911 57.1512492,56.8783261 57.272394,57.2764655 L58.6882203,61.9253979 L32.2437315,70.570781 C29.9469466,71.321135 27.6029675,71.68 25.3061826,71.68 C15.489787,71.68 6.36557317,65.1388705 3.25075533,54.9275312 L1.83492904,50.2785987 L14.1086859,46.2659921 C12.6222135,45.3876084 11.2101045,44.4521048 9.87367608,43.4601645 C1.77200343,37.4410204 -1.43720283,28.1594676 0.592148184,16.6431647 C2.05516868,8.38927065 5.72058563,1.88076524 5.87789967,1.6034605 C6.75885825,0.05381635 8.69382084,-0.468169047 10.1883041,0.461617441 C11.6827875,1.37509189 12.1861924,3.38147325 11.2895024,4.9311174 C11.2423082,5.01267762 7.97017629,10.8523892 6.74312684,17.9807523 C5.21718073,26.8871281 7.4982342,33.6729383 13.5233616,38.1587503 C16.0130886,40.0089934 18.725085,41.5769877 21.58599,42.9014346 C19.4843939,36.330746 19.5430544,29.1899536 21.8138111,21.8956428 C24.0634018,14.6367834 27.7288187,9.77579436 27.8861328,9.58004984 C28.9558682,8.16090204 30.938025,7.91622139 32.3066571,9.0417524 C33.6752892,10.1509714 33.9112602,12.2062889 32.8415248,13.6254367 C32.7785992,13.7233089 29.6323185,17.9481282 27.7602815,24.1140807 C25.8425121,30.4004762 25.8904248,36.3135316 27.873406,41.7659513 L28.2794179,41.6332156 C31.7214239,40.5071519 35.2926483,40.2352595 38.7600045,40.7946758 C38.8414703,37.8095465 39.5010319,34.7280861 40.7386892,31.6176208 C42.7680402,26.5282632 45.6626184,23.1190461 45.7727382,22.9722377 C46.9211307,21.6183381 48.9190189,21.5041537 50.2089939,22.6949329 C51.5147004,23.8857121 51.6248202,25.9410296 50.4764278,27.2949292 C50.4292336,27.3438654 48.0695231,30.182161 46.4806514,34.2764839 C45.3182777,37.2754396 44.8534742,40.1308362 45.0924371,42.8169743 C45.3629341,42.949579 45.6316965,43.0878573 45.8985895,43.2317959 C48.7956103,44.7941945 51.2917472,46.9275828 53.2751018,49.494177 Z" id="形状" fill="#FFFFFF"></path>
                        <path d="M9.79501907,54.503418 C13.1300766,62.692064 22.0183194,67.0636916 30.3402317,64.3395804 L50.7123988,57.6679545 C49.2021841,53.9324965 46.4963828,50.8821444 42.9882799,48.9899473 C39.0082349,46.8367575 34.4461279,46.4289564 30.1671862,47.8317922 L9.79501907,54.503418 Z" id="路径" fill="#02A7F0" opacity="0.699999988"></path>
                    </g>
                    <g id="分组-2" transform="translate(324.266667, 0.000000)">
                        <path d="M19.0158549,57.3690408 C14.3480152,57.3690408 9.53531153,57.1526167 4.57774388,56.6864724 C2.80718401,56.5199923 1.5034081,54.9051354 1.64827209,53.0738544 C1.80923208,51.2425733 3.37054397,49.8940845 5.14110384,50.0439166 C9.03633557,50.3935248 13.7846552,50.676541 18.9997589,50.676541 C33.6793098,50.676541 51.9643645,48.4124117 64.6319156,39.0229343 C70.8449712,34.4114357 73.162795,27.4359197 71.5370992,18.2628664 C70.2494192,10.9876863 66.9497395,5.16088295 66.9175475,5.11093892 C66.0161715,3.52937802 66.5151475,1.48167285 68.0442674,0.549384314 C69.5733873,-0.382904219 71.5531952,0.133184076 72.4545711,1.71474498 C72.6155311,1.99776114 76.3658988,8.64031694 77.8628267,17.0642098 C79.9392106,28.8177045 76.6556268,38.2737739 68.3661874,44.4335374 C60.8493559,50.0106206 50.9503166,53.8396628 38.9427015,55.8041279 C32.7296459,56.8529525 26.0498064,57.3690408 19.0158549,57.3690408 Z" id="路径" fill="#FFFFFF" fill-rule="nonzero"></path>
                        <path d="M50.6444926,52.1915098 C50.0811327,52.1915098 49.5016767,52.0416778 48.9705088,51.7087176 C47.4574849,50.759781 46.9746049,48.7120759 47.8920768,47.130515 C57.4691962,30.8321136 45.026989,14.1674561 44.898221,14.000976 C43.8036931,12.5525992 44.0451331,10.45495 45.429389,9.32288533 C46.8297409,8.19082068 48.8578368,8.44054083 49.9523647,9.87226965 C50.1133247,10.0720458 53.8475964,15.0498006 56.1654202,22.4415168 C59.288044,32.4469706 58.3222841,42.1694081 53.3969084,50.5766529 C52.8013565,51.6254775 51.7390206,52.1915098 50.6444926,52.1915098 Z M33.5344458,54.3391031 C33.0193739,54.3391031 32.5043019,54.205919 32.0214219,53.9395508 C30.4601101,53.0738544 29.8645581,51.0594452 30.70155,49.4279403 C32.9067019,45.1660498 32.9871819,40.3381271 30.926894,35.0773561 C29.2851021,30.8820577 26.8546063,27.985304 26.8224143,27.952008 C25.6474064,26.5702232 25.7761744,24.472574 27.0960463,23.2572693 C28.4159182,22.0419646 30.4601101,22.1751487 31.635118,23.5402855 C31.763886,23.6901175 34.7255498,27.1695515 36.7858376,32.3637305 C39.6348294,39.5057266 39.4899654,46.4978906 36.3512456,52.5577661 C35.7878857,53.6898307 34.6772618,54.3391031 33.5344458,54.3391031 Z" id="形状" fill="#FFFFFF" fill-rule="nonzero"></path>
                        <path d="M47.6989248,68.9560554 L23.7158865,61.131491 L24.1987665,59.5499301 C27.5950223,48.4290597 39.0714695,42.2526482 49.8235967,45.7653782 L73.806635,53.5899426 L73.323755,55.1715036 C69.9435953,66.2923739 58.4671481,72.4687854 47.6989248,68.9560554 Z" id="路径" fill="#FFFFFF"></path>
                        <path d="M53.8797884,73.2678899 C51.4814846,73.2678899 49.0831807,72.8849857 46.7331649,72.1191772 L19.6757908,63.2957322 L21.1244307,58.5510495 C25.0518544,45.6987861 38.3471495,38.523494 50.7893566,42.5856084 L77.8467307,51.4090534 L76.3980908,56.1537361 C74.4987629,62.3800917 70.3620912,67.4743826 64.7606836,70.4876723 C61.3483319,72.3356014 57.6301561,73.2678899 53.8797884,73.2678899 Z" id="路径" fill="#FFFFFF" fill-rule="nonzero"></path>
                        <path d="M48.6807808,65.7762856 C53.0588925,67.2080144 57.7267321,66.7918142 61.7990198,64.5942769 C65.3884276,62.6631078 68.1569394,59.5499301 69.7021553,55.7375359 L48.8578368,48.9285 C40.3269574,46.1482824 31.248814,50.6099489 27.8364622,58.9672497 L48.6807808,65.7762856 Z" id="路径" fill="#01A9F4" fill-rule="nonzero" opacity="0.699999988"></path>
                    </g>
                </g>
            </g>
            <g id="分组" transform="translate(51.200000, 88.746667)" fill="#FFFFFF">
                <path d="M140.117793,215.039989 C122.514873,214.492322 113.446838,206.003608 112.913417,189.573593 C112.913417,129.231438 112.913417,84.2837217 112.913417,54.7304428 C113.173065,44.3311348 117.822098,37.8763527 125.333058,34.9461024 C129.818284,33.1962815 135.524031,32.0080604 142.450301,31.3814392 C144.104237,31.3032949 144.926992,32.0619722 144.918566,33.6574713 L144.918566,79.4930409 L192.720174,79.4930409 C194.499223,79.4020893 195.239213,80.1249338 194.940144,81.6615746 C194.439601,83.8650507 192.767512,87.6188083 189.923877,92.9228473 C185.619378,100.951737 180.656232,104.966181 175.034439,104.966181 L144.918566,104.966181 L144.918566,179.708889 C144.385144,187.923896 148.119041,191.757509 156.120368,191.209842 C172.212497,191.187449 184.354361,191.176252 192.545961,191.176252 C194.535907,191.176252 194.870715,191.652362 194.535907,193.77456 C194.201099,195.896758 193.146722,199.321794 191.124168,204.048217 C187.397339,212.757287 181.702327,215.039989 177.143171,215.039989 C168.460125,215.039989 156.118332,215.039989 140.117793,215.039989 Z M10.5276641,102.602787 C10.8143687,101.777017 10.8650062,101.599191 11.0755421,101.005545 C12.1662457,97.930097 13.5522159,94.125573 15.2334526,89.5919725 C17.7301723,82.8593515 22.1005035,79.4930409 28.3444461,79.4930409 L58.5046634,79.4930409 C58.6135033,79.5185474 58.6135033,70.7539077 58.5046634,53.1991218 C58.6699975,45.32996 62.4791454,38.1308732 71.8440441,35.2453302 C77.4380773,33.5216785 83.0149756,32.3095413 88.5747389,31.6089186 C90.5459135,31.4529715 90.5098124,32.8036577 90.5098124,33.5126619 C90.5098124,68.1928688 90.5098124,120.213179 90.5098124,189.573593 C90.5098124,206.551275 81.4417775,215.039989 63.3054357,215.039989 C40.8907266,215.039989 24.0796947,215.039989 12.8723402,215.039989 C11.8370843,215.039989 9.4490192,215.069582 10.5026515,212.039996 C11.520817,208.395616 13.0347416,204.542833 15.0444254,200.481646 C18.8995238,192.691231 24.6957179,191.209842 27.4963621,191.209842 C32.3529907,191.209842 38.9551571,191.209842 47.3028613,191.209842 C55.3041885,191.757509 59.0380852,187.650067 58.5046634,178.887392 L58.5046634,104.966181 L13.8022553,104.966181 L12.2348052,104.966181 C10.7547918,104.903652 10.1857448,104.115854 10.5276641,102.602787 Z M269.221957,70.5276301 C270.304122,65.2083884 274.521366,50.6458626 280.841454,50.3101794 C283.279932,50.3101794 286.93765,50.3101794 291.814607,50.3101794 C290.370473,46.8243287 289.260564,43.7368443 288.08676,40.0624787 C287.049669,37.2347579 289.11301,34.9301671 293.645134,33.2889146 C297.404926,31.9273523 302.707291,30.0148931 309.55223,27.551537 C311.762326,26.7216262 312.332286,28.2082063 312.564386,28.9367161 C315.416269,37.8881097 318.334737,45.1411546 320.607306,50.3101794 L343.644236,50.3101794 C345.368222,46.1694739 347.402285,41.6793125 349.347337,36.244895 C351.080183,31.2806318 352.400003,31.0732046 354.659647,31.0247382 C359.63935,31.0247382 366.925311,31.0247382 376.517529,31.0247382 C378.833427,30.8864403 378.306052,32.9346977 378.214936,33.2794353 C376.56193,38.9717689 374.694012,44.253742 372.437433,50.3101794 C381.230253,50.3101794 387.824868,50.3101794 392.221277,50.3101794 C393.735949,50.3279387 394.515099,51.0535129 394.558728,52.4869018 C394.5749,52.5223709 394.5749,58.394105 394.558728,70.1021041 C394.527736,71.6720709 393.768275,72.456801 392.280347,72.4562943 L347.351133,72.4562943 L347.351133,102.541582 L386.858311,102.541582 C388.280617,102.470017 388.980455,103.079138 388.957827,104.368947 C388.948158,121.982533 388.956809,120.545526 388.957827,122.052811 C388.90847,123.25925 388.304723,123.869692 387.146588,123.884137 L347.351133,123.884137 L347.351133,154.772986 L398.232302,154.772986 C398.999499,154.760633 399.375232,155.121119 399.3595,155.854443 C399.360027,166.501784 399.360138,172.952736 399.359831,175.207299 C399.35167,175.835601 398.989698,176.138348 398.273916,176.11554 L347.351133,176.11554 L347.351133,211.389308 C347.421138,213.82301 346.42049,215.039904 344.349188,215.039989 C319.114567,214.982448 343.660045,215.028559 319.066512,215.039989 C317.082499,215.039802 316.109032,213.766925 316.146113,211.221359 L316.146113,176.11554 L266.598387,176.11554 C266.017255,176.117418 265.730609,175.830525 265.73845,175.254862 C265.744654,163.160158 265.744505,156.748768 265.738003,156.020693 C265.74394,155.157259 266.176604,154.741357 267.035998,154.772986 L316.146113,154.772986 L316.146113,123.884137 C294.814137,123.858222 282.255441,123.858222 278.470025,123.884137 C276.840111,123.813671 276.063329,122.910068 276.139676,121.173328 C276.130803,112.895667 276.130803,107.613556 276.139676,105.326995 C276.137016,103.454897 277.126521,102.526426 279.108193,102.541582 L316.146113,102.541582 L316.146113,72.4562943 L270.440131,72.4562943 C269.336221,72.8394907 268.930163,72.1966026 269.221957,70.5276301 Z M221.824464,204.062483 C224.750784,196.365959 228.444615,184.323659 230.064976,173.479494 C232.601951,156.500941 232.7897,150.437052 232.803594,140.594974 C232.604201,138.245087 234.220472,138.155364 234.928355,138.155364 C239.882204,138.155364 247.089355,138.155364 256.54981,138.155364 C258.835189,138.218331 259.355672,139.872416 259.37593,144.245315 C259.188044,154.134073 258.51711,164.297504 257.083875,173.479494 C255.621205,182.850062 252.875224,195.184858 250.040847,204.222014 C249.270155,206.048472 248.781303,208.522447 245.048122,208.803625 C235.628316,208.803625 228.431861,208.803625 223.458756,208.803625 C219.882344,208.807759 220.730389,206.623615 221.824464,204.062483 Z M230.560936,73.2487852 C229.341259,65.5690375 228.411329,60.7748207 226.533052,54.0129786 C224.094114,46.9470343 230.85236,44.9966074 233.998883,43.8522592 C236.785888,42.8386633 240.686207,41.4201698 245.699841,39.5967788 C249.883717,37.9218254 250.612913,41.0653388 251.050245,42.5520259 C254.121933,52.9940619 256.499289,64.2650832 257.939431,76.0916885 C258.036841,76.891634 258.113609,78.4856651 255.959545,78.4990658 C246.827343,78.4990658 239.889443,78.4990658 235.145846,78.4990658 C233.889525,78.4990658 230.722992,79.0870701 230.560936,73.2487852 Z M231.674827,122.757022 C230.468558,112.739789 228.998298,104.035077 225.862326,92.9542994 C224.497419,88.9540019 227.4917,88.7808069 228.833252,88.7791281 C236.355949,88.7697144 242.538077,88.7680054 247.379637,88.7740009 C249.281676,88.7763563 252.91886,88.241089 254.062258,95.2768661 C256.223254,104.695178 257.928987,115.043576 258.790689,125.843853 C258.778093,126.911366 258.612347,127.81002 256.891229,127.869795 C247.386911,127.869795 240.177529,127.869795 235.263082,127.869795 C234.262057,127.869795 231.761244,128.08288 231.674827,122.757022 Z" id="北洋"></path>
            </g>
        </g>
    </g>
</svg>