<?xml version="1.0" encoding="UTF-8"?>
<svg width="512px" height="512px" viewBox="0 0 512 512" version="1.1" xmlns="http://www.w3.org/2000/svg" xmlns:xlink="http://www.w3.org/1999/xlink">
    <!-- Generator: Sketch 52.3 (67297) - http://www.bohemiancoding.com/sketch -->
    <title>分组 copy 3</title>
    <desc>Created with Sketch.</desc>
    <defs>
        <linearGradient x1="59.3905182%" y1="0%" x2="37.8638599%" y2="100%" id="linearGradient-1">
            <stop stop-color="#00ACF9" offset="0%"></stop>
            <stop stop-color="#059DE1" offset="100%"></stop>
        </linearGradient>
    </defs>
    <g id="页面" stroke="none" stroke-width="1" fill="none" fill-rule="evenodd">
        <g id="app-logo/white-copy-2">
            <g id="分组-copy-3">
                <rect id="矩形" fill="url(#linearGradient-1)" fill-rule="nonzero" x="0" y="0" width="512" height="512"></rect>
                <g id="分组" transform="translate(51.200000, 133.120000)" fill="#FFFFFF">
                    <path d="M140.117793,215.039989 C122.514873,214.492322 113.446838,206.003608 112.913417,189.573593 C112.913417,129.231438 112.913417,84.2837217 112.913417,54.7304428 C113.173065,44.3311348 117.822098,37.8763527 125.333058,34.9461024 C129.818284,33.1962815 135.524031,32.0080604 142.450301,31.3814392 C144.104237,31.3032949 144.926992,32.0619722 144.918566,33.6574713 L144.918566,79.4930409 L192.720174,79.4930409 C194.499223,79.4020893 195.239213,80.1249338 194.940144,81.6615746 C194.439601,83.8650507 192.767512,87.6188083 189.923877,92.9228473 C185.619378,100.951737 180.656232,104.966181 175.034439,104.966181 L144.918566,104.966181 L144.918566,179.708889 C144.385144,187.923896 148.119041,191.757509 156.120368,191.209842 C172.212497,191.187449 184.354361,191.176252 192.545961,191.176252 C194.535907,191.176252 194.870715,191.652362 194.535907,193.77456 C194.201099,195.896758 193.146722,199.321794 191.124168,204.048217 C187.397339,212.757287 181.702327,215.039989 177.143171,215.039989 C168.460125,215.039989 156.118332,215.039989 140.117793,215.039989 Z M10.5276641,102.602787 C10.8143687,101.777017 10.8650062,101.599191 11.0755421,101.005545 C12.1662457,97.930097 13.5522159,94.125573 15.2334526,89.5919725 C17.7301723,82.8593515 22.1005035,79.4930409 28.3444461,79.4930409 L58.5046634,79.4930409 C58.6135033,79.5185474 58.6135033,70.7539077 58.5046634,53.1991218 C58.6699975,45.32996 62.4791454,38.1308732 71.8440441,35.2453302 C77.4380773,33.5216785 83.0149756,32.3095413 88.5747389,31.6089186 C90.5459135,31.4529715 90.5098124,32.8036577 90.5098124,33.5126619 C90.5098124,68.1928688 90.5098124,120.213179 90.5098124,189.573593 C90.5098124,206.551275 81.4417775,215.039989 63.3054357,215.039989 C40.8907266,215.039989 24.0796947,215.039989 12.8723402,215.039989 C11.8370843,215.039989 9.4490192,215.069582 10.5026515,212.039996 C11.520817,208.395616 13.0347416,204.542833 15.0444254,200.481646 C18.8995238,192.691231 24.6957179,191.209842 27.4963621,191.209842 C32.3529907,191.209842 38.9551571,191.209842 47.3028613,191.209842 C55.3041885,191.757509 59.0380852,187.650067 58.5046634,178.887392 L58.5046634,104.966181 L13.8022553,104.966181 L12.2348052,104.966181 C10.7547918,104.903652 10.1857448,104.115854 10.5276641,102.602787 Z M269.221957,70.5276301 C270.304122,65.2083884 274.521366,50.6458626 280.841454,50.3101794 C283.279932,50.3101794 286.93765,50.3101794 291.814607,50.3101794 C290.370473,46.8243287 289.260564,43.7368443 288.08676,40.0624787 C287.049669,37.2347579 289.11301,34.9301671 293.645134,33.2889146 C297.404926,31.9273523 302.707291,30.0148931 309.55223,27.551537 C311.762326,26.7216262 312.332286,28.2082063 312.564386,28.9367161 C315.416269,37.8881097 318.334737,45.1411546 320.607306,50.3101794 L343.644236,50.3101794 C345.368222,46.1694739 347.402285,41.6793125 349.347337,36.244895 C351.080183,31.2806318 352.400003,31.0732046 354.659647,31.0247382 C359.63935,31.0247382 366.925311,31.0247382 376.517529,31.0247382 C378.833427,30.8864403 378.306052,32.9346977 378.214936,33.2794353 C376.56193,38.9717689 374.694012,44.253742 372.437433,50.3101794 C381.230253,50.3101794 387.824868,50.3101794 392.221277,50.3101794 C393.735949,50.3279387 394.515099,51.0535129 394.558728,52.4869018 C394.5749,52.5223709 394.5749,58.394105 394.558728,70.1021041 C394.527736,71.6720709 393.768275,72.456801 392.280347,72.4562943 L347.351133,72.4562943 L347.351133,102.541582 L386.858311,102.541582 C388.280617,102.470017 388.980455,103.079138 388.957827,104.368947 C388.948158,121.982533 388.956809,120.545526 388.957827,122.052811 C388.90847,123.25925 388.304723,123.869692 387.146588,123.884137 L347.351133,123.884137 L347.351133,154.772986 L398.232302,154.772986 C398.999499,154.760633 399.375232,155.121119 399.3595,155.854443 C399.360027,166.501784 399.360138,172.952736 399.359831,175.207299 C399.35167,175.835601 398.989698,176.138348 398.273916,176.11554 L347.351133,176.11554 L347.351133,211.389308 C347.421138,213.82301 346.42049,215.039904 344.349188,215.039989 C319.114567,214.982448 343.660045,215.028559 319.066512,215.039989 C317.082499,215.039802 316.109032,213.766925 316.146113,211.221359 L316.146113,176.11554 L266.598387,176.11554 C266.017255,176.117418 265.730609,175.830525 265.73845,175.254862 C265.744654,163.160158 265.744505,156.748768 265.738003,156.020693 C265.74394,155.157259 266.176604,154.741357 267.035998,154.772986 L316.146113,154.772986 L316.146113,123.884137 C294.814137,123.858222 282.255441,123.858222 278.470025,123.884137 C276.840111,123.813671 276.063329,122.910068 276.139676,121.173328 C276.130803,112.895667 276.130803,107.613556 276.139676,105.326995 C276.137016,103.454897 277.126521,102.526426 279.108193,102.541582 L316.146113,102.541582 L316.146113,72.4562943 L270.440131,72.4562943 C269.336221,72.8394907 268.930163,72.1966026 269.221957,70.5276301 Z M221.824464,204.062483 C224.750784,196.365959 228.444615,184.323659 230.064976,173.479494 C232.601951,156.500941 232.7897,150.437052 232.803594,140.594974 C232.604201,138.245087 234.220472,138.155364 234.928355,138.155364 C239.882204,138.155364 247.089355,138.155364 256.54981,138.155364 C258.835189,138.218331 259.355672,139.872416 259.37593,144.245315 C259.188044,154.134073 258.51711,164.297504 257.083875,173.479494 C255.621205,182.850062 252.875224,195.184858 250.040847,204.222014 C249.270155,206.048472 248.781303,208.522447 245.048122,208.803625 C235.628316,208.803625 228.431861,208.803625 223.458756,208.803625 C219.882344,208.807759 220.730389,206.623615 221.824464,204.062483 Z M230.560936,73.2487852 C229.341259,65.5690375 228.411329,60.7748207 226.533052,54.0129786 C224.094114,46.9470343 230.85236,44.9966074 233.998883,43.8522592 C236.785888,42.8386633 240.686207,41.4201698 245.699841,39.5967788 C249.883717,37.9218254 250.612913,41.0653388 251.050245,42.5520259 C254.121933,52.9940619 256.499289,64.2650832 257.939431,76.0916885 C258.036841,76.891634 258.113609,78.4856651 255.959545,78.4990658 C246.827343,78.4990658 239.889443,78.4990658 235.145846,78.4990658 C233.889525,78.4990658 230.722992,79.0870701 230.560936,73.2487852 Z M231.674827,122.757022 C230.468558,112.739789 228.998298,104.035077 225.862326,92.9542994 C224.497419,88.9540019 227.4917,88.7808069 228.833252,88.7791281 C236.355949,88.7697144 242.538077,88.7680054 247.379637,88.7740009 C249.281676,88.7763563 252.91886,88.241089 254.062258,95.2768661 C256.223254,104.695178 257.928987,115.043576 258.790689,125.843853 C258.778093,126.911366 258.612347,127.81002 256.891229,127.869795 C247.386911,127.869795 240.177529,127.869795 235.263082,127.869795 C234.262057,127.869795 231.761244,128.08288 231.674827,122.757022 Z" id="北洋"></path>
                </g>
            </g>
        </g>
    </g>
</svg>