<svg width="24" height="24" viewBox="0 0 24 24" fill="none" xmlns="http://www.w3.org/2000/svg">
<path d="M18.8891 3H4.97076C3.87263 3 2.98242 3.89543 2.98242 5V19C2.98242 20.1046 3.87263 21 4.97076 21H18.8891C19.9873 21 20.8775 20.1046 20.8775 19V5C20.8775 3.89543 19.9873 3 18.8891 3Z" stroke="#2A2A2A" stroke-width="2" stroke-linecap="round" stroke-linejoin="round"/>
<path d="M8.45048 10C9.27408 10 9.94174 9.32843 9.94174 8.5C9.94174 7.67157 9.27408 7 8.45048 7C7.62689 7 6.95923 7.67157 6.95923 8.5C6.95923 9.32843 7.62689 10 8.45048 10Z" stroke="#2A2A2A" stroke-width="2" stroke-linecap="round" stroke-linejoin="round"/>
<path d="M20.8777 15L15.9068 10L4.97095 21" stroke="#2A2A2A" stroke-width="2" stroke-linecap="round" stroke-linejoin="round"/>
</svg>
