<svg width="18" height="18" viewBox="0 0 18 18" fill="none" xmlns="http://www.w3.org/2000/svg">
<path d="M9.00253 0.579102C4.36649 0.579102 0.608398 4.34021 0.608398 8.98016C0.608398 13.6201 4.36649 17.3812 9.00253 17.3812C13.639 17.3812 17.3971 13.6201 17.3971 8.98016C17.3971 4.34021 13.639 0.579102 9.00253 0.579102ZM10.828 12.6079C11.0275 12.8064 11.0473 13.1077 10.8734 13.2812C10.699 13.4548 10.3955 13.4345 10.1961 13.2364L6.29209 9.376C6.17898 9.26331 6.12548 9.11829 6.13064 8.98184C6.1246 8.84418 6.17814 8.69784 6.29169 8.58431L10.1961 4.72393C10.3955 4.52537 10.6985 4.5055 10.8734 4.67904C11.0473 4.85256 11.0275 5.15388 10.828 5.35243L7.1576 8.98016L10.828 12.6079Z" fill="white"/>
</svg>
