<svg width="12" height="12" viewBox="0 0 12 12" fill="none" xmlns="http://www.w3.org/2000/svg">
<path d="M5.99998 4.25008C6.11535 4.25008 6.22813 4.28429 6.32406 4.34839C6.41999 4.41249 6.49476 4.50359 6.53891 4.61018C6.58306 4.71677 6.59461 4.83406 6.5721 4.94722C6.5496 5.06037 6.49404 5.16431 6.41246 5.24589C6.33088 5.32747 6.22694 5.38303 6.11378 5.40554C6.00063 5.42805 5.88334 5.4165 5.77675 5.37234C5.67016 5.32819 5.57905 5.25343 5.51496 5.1575C5.45086 5.06157 5.41665 4.94879 5.41665 4.83341C5.41665 4.6787 5.4781 4.53033 5.5875 4.42094C5.6969 4.31154 5.84527 4.25008 5.99998 4.25008ZM1.91665 0.166748H10.0833C10.5474 0.166748 10.9926 0.351123 11.3207 0.679311C11.6489 1.0075 11.8333 1.45262 11.8333 1.91675V7.75008C11.8333 8.21421 11.6489 8.65933 11.3207 8.98752C10.9926 9.31571 10.5474 9.50008 10.0833 9.50008H3.32248L1.16415 11.6642C1.10964 11.7183 1.045 11.7611 0.973925 11.7901C0.902853 11.8191 0.82675 11.8339 0.749979 11.8334C0.673459 11.8354 0.597543 11.8194 0.528313 11.7867C0.421785 11.743 0.330594 11.6687 0.266232 11.5732C0.201872 11.4777 0.16722 11.3652 0.166645 11.2501V1.91675C0.166646 1.45262 0.35102 1.0075 0.679209 0.679311C1.0074 0.351123 1.45252 0.166748 1.91665 0.166748ZM1.33331 9.84425L2.66915 8.50258C2.72365 8.44852 2.78829 8.40574 2.85937 8.37671C2.93044 8.34768 3.00654 8.33297 3.08331 8.33341H10.0833C10.238 8.33341 10.3864 8.27196 10.4958 8.16256C10.6052 8.05316 10.6666 7.90479 10.6666 7.75008V1.91675C10.6666 1.76204 10.6052 1.61367 10.4958 1.50427C10.3864 1.39487 10.238 1.33341 10.0833 1.33341H1.91665C1.76194 1.33341 1.61356 1.39487 1.50417 1.50427C1.39477 1.61367 1.33331 1.76204 1.33331 1.91675V9.84425ZM8.33331 4.25008C8.44869 4.25008 8.56147 4.28429 8.6574 4.34839C8.75332 4.41249 8.82809 4.50359 8.87224 4.61018C8.91639 4.71677 8.92795 4.83406 8.90544 4.94722C8.88293 5.06037 8.82737 5.16431 8.74579 5.24589C8.66421 5.32747 8.56027 5.38303 8.44712 5.40554C8.33396 5.42805 8.21667 5.4165 8.11008 5.37234C8.00349 5.32819 7.91239 5.25343 7.84829 5.1575C7.78419 5.06157 7.74998 4.94879 7.74998 4.83341C7.74998 4.6787 7.81144 4.53033 7.92083 4.42094C8.03023 4.31154 8.1786 4.25008 8.33331 4.25008ZM3.66665 4.25008C3.78202 4.25008 3.8948 4.28429 3.99073 4.34839C4.08666 4.41249 4.16142 4.50359 4.20558 4.61018C4.24973 4.71677 4.26128 4.83406 4.23877 4.94722C4.21626 5.06037 4.16071 5.16431 4.07912 5.24589C3.99754 5.32747 3.8936 5.38303 3.78045 5.40554C3.66729 5.42805 3.55 5.4165 3.44341 5.37234C3.33682 5.32819 3.24572 5.25343 3.18162 5.1575C3.11752 5.06157 3.08331 4.94879 3.08331 4.83341C3.08331 4.6787 3.14477 4.53033 3.25417 4.42094C3.36356 4.31154 3.51194 4.25008 3.66665 4.25008Z" fill="#2A2A2A"/>
</svg>
