<svg width="24" height="24" viewBox="0 0 24 24" fill="none" xmlns="http://www.w3.org/2000/svg">
<path d="M17.8881 22.1076H5.53406C3.81086 22.1076 2.41406 20.7108 2.41406 18.9876V6.68396C2.41406 4.96076 3.81086 3.56396 5.53406 3.56396H18.3681C20.0913 3.56396 21.4881 4.96076 21.4881 6.68396V18.5076C21.4881 20.496 19.8765 22.1076 17.8881 22.1076Z" fill="#80B7F9"/>
<path d="M7.77688 5.87899C7.25368 5.87899 6.83008 5.45539 6.83008 4.93219V2.68459C6.83008 2.16139 7.25368 1.73779 7.77688 1.73779C8.30008 1.73779 8.72368 2.16139 8.72368 2.68459V4.93219C8.72368 5.45539 8.30008 5.87899 7.77688 5.87899ZM16.2117 5.87899C15.6885 5.87899 15.2649 5.45539 15.2649 4.93219V2.68459C15.2649 2.16139 15.6885 1.73779 16.2117 1.73779C16.7349 1.73779 17.1585 2.16139 17.1585 2.68459V4.93219C17.1585 5.45539 16.7349 5.87899 16.2117 5.87899Z" fill="#80B7F9"/>
<path d="M6.83008 3.56396V4.93197C6.83008 5.45517 7.25368 5.87877 7.77688 5.87877C8.30008 5.87877 8.72368 5.45517 8.72368 4.93197V3.56396H6.83008ZM15.2649 3.56396V4.93197C15.2649 5.45517 15.6885 5.87877 16.2117 5.87877C16.7349 5.87877 17.1585 5.45517 17.1585 4.93197V3.56396H15.2649Z" fill="#3E8BF8"/>
<path d="M18.5655 9.23885H5.33793C4.80753 9.23885 4.37793 8.80925 4.37793 8.27885C4.37793 7.74845 4.80753 7.31885 5.33793 7.31885H18.5655C19.0959 7.31885 19.5255 7.74845 19.5255 8.27885C19.5255 8.80925 19.0959 9.23885 18.5655 9.23885ZM7.05513 13.1712H5.45793C4.92753 13.1712 4.49793 12.7416 4.49793 12.2112C4.49793 11.6808 4.92753 11.2512 5.45793 11.2512H7.05513C7.58553 11.2512 8.01513 11.6808 8.01513 12.2112C8.01513 12.7416 7.58433 13.1712 7.05513 13.1712ZM12.7839 13.1712H11.1867C10.6563 13.1712 10.2267 12.7416 10.2267 12.2112C10.2267 11.6808 10.6563 11.2512 11.1867 11.2512H12.7839C13.3143 11.2512 13.7439 11.6808 13.7439 12.2112C13.7439 12.7416 13.3143 13.1712 12.7839 13.1712V13.1712ZM18.5139 13.1712H16.9167C16.3863 13.1712 15.9567 12.7416 15.9567 12.2112C15.9567 11.6808 16.3863 11.2512 16.9167 11.2512H18.5139C19.0443 11.2512 19.4739 11.6808 19.4739 12.2112C19.4739 12.7416 19.0443 13.1712 18.5139 13.1712ZM7.05513 16.2984H5.45793C4.92753 16.2984 4.49793 15.8688 4.49793 15.3384C4.49793 14.808 4.92753 14.3784 5.45793 14.3784H7.05513C7.58553 14.3784 8.01513 14.808 8.01513 15.3384C8.01513 15.8688 7.58433 16.2984 7.05513 16.2984ZM12.7839 16.2984H11.1867C10.6563 16.2984 10.2267 15.8688 10.2267 15.3384C10.2267 14.808 10.6563 14.3784 11.1867 14.3784H12.7839C13.3143 14.3784 13.7439 14.808 13.7439 15.3384C13.7439 15.8688 13.3143 16.2984 12.7839 16.2984V16.2984ZM18.5139 16.2984H16.9167C16.3863 16.2984 15.9567 15.8688 15.9567 15.3384C15.9567 14.808 16.3863 14.3784 16.9167 14.3784H18.5139C19.0443 14.3784 19.4739 14.808 19.4739 15.3384C19.4739 15.8688 19.0443 16.2984 18.5139 16.2984ZM7.05513 19.5H5.45793C4.92753 19.5 4.49793 19.0704 4.49793 18.54C4.49793 18.0096 4.92753 17.58 5.45793 17.58H7.05513C7.58553 17.58 8.01513 18.0096 8.01513 18.54C8.01513 19.0704 7.58433 19.5 7.05513 19.5ZM12.7839 19.5H11.1867C10.6563 19.5 10.2267 19.0704 10.2267 18.54C10.2267 18.0096 10.6563 17.58 11.1867 17.58H12.7839C13.3143 17.58 13.7439 18.0096 13.7439 18.54C13.7439 19.0704 13.3143 19.5 12.7839 19.5V19.5Z" fill="white"/>
</svg>
