<svg width="18" height="18" viewBox="0 0 18 18" fill="none" xmlns="http://www.w3.org/2000/svg">
<path d="M14.9899 2.3209C11.561 -0.79748 6.30976 -0.773419 2.90896 2.3929C-0.969653 6.00407 -0.969653 11.996 2.90896 15.6072C6.30976 18.7735 11.561 18.7974 14.9899 15.6792C19.0034 12.0291 19.0034 5.97083 14.9899 2.3209ZM12.7607 12.7939C12.5466 13.0091 12.1996 13.0091 11.9854 12.7939L9.02663 9.81967C9.01457 9.80755 8.99502 9.80755 8.98278 9.81967L6.0249 12.7931C5.81075 13.0084 5.46376 13.0084 5.24961 12.7931L5.24888 12.7924C5.03473 12.5771 5.03473 12.2283 5.24888 12.0131L8.20695 9.03962C8.21901 9.02749 8.21901 9.00784 8.20695 8.99553L5.24815 6.0217C5.034 5.80644 5.034 5.45765 5.24815 5.24238L5.24888 5.24165C5.46303 5.02639 5.81002 5.02639 6.02417 5.24165L8.98296 8.21585C8.99502 8.22797 9.01457 8.22797 9.02682 8.21585L11.9863 5.24091C12.2005 5.02565 12.5475 5.02565 12.7616 5.24091L12.7624 5.24165C12.9765 5.45691 12.9765 5.80571 12.7624 6.02097L9.80265 8.99572C9.79059 9.00784 9.79059 9.02749 9.80265 9.0398L12.7613 12.014C12.9754 12.2293 12.9749 12.5786 12.7607 12.7939Z" fill="#D9534F"/>
</svg>
