<svg width="21" height="16" viewBox="0 0 21 16" fill="none" xmlns="http://www.w3.org/2000/svg">
<path d="M3.40101 11.6748C2.52832 11.6748 1.69826 11.4415 1.06562 11.0175C0.379136 10.5576 0 9.92941 0 9.24741V6.81555C0 6.1358 0.379136 5.50765 1.06562 5.0455C1.69826 4.6215 2.52608 4.38818 3.40101 4.38818C3.64778 4.38818 3.84969 4.59009 3.84969 4.83687C3.84969 5.08364 3.64778 5.28555 3.40101 5.28555C2.71453 5.28555 2.04599 5.46951 1.5659 5.79031C1.13517 6.07971 0.897364 6.44315 0.897364 6.81331V9.24517C0.897364 9.61757 1.13517 9.98101 1.5659 10.2682C2.04599 10.589 2.71453 10.7729 3.40101 10.7729C3.64778 10.7729 3.84969 10.9748 3.84969 11.2216C3.84969 11.4684 3.64778 11.6748 3.40101 11.6748Z" fill="#2C7EDF"/>
<path d="M11.0057 0.897364C11.349 0.897364 11.7214 1.14414 11.7214 1.54571V14.4543C11.7214 14.8536 11.3512 15.1026 11.0057 15.1026C10.8846 15.1026 10.7657 15.0735 10.6535 15.0151L4.70846 11.9349C4.48636 11.8205 4.34951 11.6052 4.34951 11.3741V4.73135C4.34951 4.50477 4.48412 4.29164 4.69948 4.17499L10.6445 0.989344C10.7589 0.928772 10.8801 0.897364 11.0057 0.897364ZM11.0057 0C10.7432 0 10.4763 0.0628157 10.2205 0.199664L4.27548 3.38531C3.76623 3.659 3.45215 4.17274 3.45215 4.73135V11.3741C3.45215 11.9394 3.7752 12.4621 4.29567 12.7314L10.2407 15.8116C10.4897 15.9417 10.75 16 11.0057 16C11.8492 16 12.6187 15.3517 12.6187 14.4543V1.54571C12.6187 0.646102 11.8492 0 11.0057 0Z" fill="#2C7EDF"/>
<path d="M14.3943 12.3791C14.235 12.3791 14.0802 12.2938 13.9995 12.1435C13.8828 11.9259 13.9636 11.6522 14.1812 11.5356C15.507 10.8199 16.3304 9.49405 16.3304 8.07622C16.3304 6.59108 15.4487 5.23606 14.0309 4.53836C13.8088 4.42843 13.7168 4.15922 13.8267 3.93713C13.9367 3.71503 14.2059 3.62305 14.428 3.73298C16.1554 4.58098 17.2277 6.24559 17.2277 8.07622C17.2277 8.95563 16.9765 9.81935 16.5009 10.5731C16.0432 11.3 15.3881 11.9057 14.6074 12.3275C14.5379 12.3611 14.4661 12.3791 14.3943 12.3791Z" fill="#2C7EDF"/>
<path d="M16.4647 14.4405C16.3144 14.4405 16.1663 14.3642 16.0811 14.2251C15.9509 14.0142 16.0182 13.7383 16.2291 13.6082C18.0777 12.4753 19.2263 10.3642 19.2263 8.09837C19.2263 5.72709 17.9992 3.56893 16.0227 2.46741C15.8074 2.34627 15.7288 2.07257 15.85 1.8572C15.9711 1.64184 16.2448 1.56332 16.4602 1.68446C18.7193 2.94526 20.1237 5.40403 20.1237 8.10061C20.1237 9.39282 19.7984 10.6603 19.1815 11.7686C18.5825 12.8477 17.7232 13.7495 16.698 14.3754C16.6262 14.4181 16.5454 14.4405 16.4647 14.4405Z" fill="#2C7EDF"/>
</svg>
