<svg width="82" height="23" viewBox="0 0 82 23" fill="none" xmlns="http://www.w3.org/2000/svg">
<path d="M5.056 22.912L5.512 18.4L0.616 20.368L0.88 17.872L5.776 15.88L6.544 8.704H1.84L2.104 6.232H6.808L7.384 0.688H9.904L7.576 22.912H5.056ZM11.32 22.48L13.624 0.688H16.144L15.448 7.264L20.272 4.72L20.008 7.192L15.232 9.712L14.128 20.056H18.856L17.608 22.48H11.32ZM25.7106 5.44L23.6946 0.663999H26.4546L27.5346 5.44H25.7106ZM31.1346 22.96L31.7346 17.464H26.2866L26.5026 15.16H31.9746L32.3586 11.488H27.8226L28.0626 9.16H32.6226L32.9826 5.584H27.9426L28.1586 3.28H30.4626L29.7426 0.663999H32.3106L32.4306 3.28H36.3666L37.0146 0.663999H39.6306L38.3586 3.28H40.6386L40.3746 5.584H35.3586L34.9986 9.16H39.5346L39.2706 11.488H34.7346L34.3506 15.16H39.8226L39.5586 17.464H34.1106L33.5106 22.96H31.1346ZM24.4866 11.104L22.4466 6.376H25.1586L26.4786 11.104H24.4866ZM20.8626 22.48L24.4626 12.928H26.3346L23.4066 22.48H20.8626ZM45.0453 14.224L45.4293 10.504L42.6933 10.96L42.9333 8.632L45.6933 8.152L45.9813 5.2H43.3893L43.6293 2.992H46.2213L46.4853 0.688H48.7173L48.4773 2.992H50.3493L50.1093 5.2H48.2613L47.9492 7.768L49.8933 7.408L49.6773 9.736L47.7333 10.096L47.0613 16.312H43.5813L43.0293 14.224H45.0453ZM59.3733 16.048H56.1573L57.2613 5.392H55.2213L53.9012 9.088L55.7733 9.856L55.5093 12.376L53.1093 11.32L51.3813 16.168H49.4133L51.2373 10.504L50.1093 10.024L50.3733 7.6L51.9573 8.272L52.8933 5.392H50.8293L51.0933 3.064H53.6373L54.4053 0.688H56.9013L56.0613 3.064H59.7573L58.5813 13.744H60.3813L59.3733 16.048ZM41.2292 22.888L42.7653 17.128H45.4053L42.8373 22.888H41.2292ZM46.5093 17.128H49.1493L49.4613 22.888H47.8533L46.5093 17.128ZM51.5253 17.128H54.1653L54.4532 22.888H52.8453L51.5253 17.128ZM56.4693 17.128H59.1093L59.4213 22.888H57.7893L56.4693 17.128ZM67.9319 12.256L66.6119 12.808L65.5559 22.888H62.8439L62.2919 20.68H63.5639L64.2839 13.744L62.3879 14.536L62.6519 12.064L64.5479 11.296L65.0759 6.232H63.2759L63.5399 3.904H65.3159L65.6519 0.663999H67.8839L67.5479 3.904H68.8199L68.5559 6.232H67.3079L66.8759 10.336L68.1959 9.784L67.9319 12.256ZM80.1719 11.512H75.6119L75.4439 13.048H79.8839L79.6679 15.16L79.5719 16.288L75.2519 19L79.9319 22.96H77.4359L73.4759 20.128L68.9879 22.96H66.4679L71.8919 18.976L68.0279 16.216H71.9639L73.6919 17.68L77.1239 15.16H68.4599L68.6519 13.048H73.2599L73.4279 11.512H68.8439L69.8519 1.744H71.9159L73.6919 1.288L73.4759 3.4L71.7239 3.904L71.5079 5.728H73.1159L72.9479 7.504H71.3639L71.1479 9.352H73.6679L74.5559 0.663999H76.7399L75.8519 9.352H78.3479L78.5399 7.504H76.9559L77.1239 5.728H78.7559L78.9239 3.904H77.1239L77.3159 1.744H81.1799L80.1719 11.512Z" fill="#2A2A2A"/>
</svg>
