<svg width="79" height="23" viewBox="0 0 79 23" fill="none" xmlns="http://www.w3.org/2000/svg">
<path opacity="0.9" d="M10.5938 0.59375H12.9375V8L17.25 4.90625L18.5625 6.78125L12.9375 10.8125V18.5938C12.8125 19.3438 13.0938 19.6562 13.7812 19.5312H15.1875C15.875 19.6562 16.1875 19.3438 16.125 18.5938V15.875L18.4688 16.3438V19.5312C18.5938 21.2188 17.75 22 15.9375 21.875H12.6562C11.3438 21.9375 10.6562 21.125 10.5938 19.4375V0.59375ZM1.5 6.6875H5.8125V0.59375H8.25V22.4375H5.8125V18.5938L1.78125 20.0938L0.9375 17.8438L5.8125 16.1562V9.03125H1.5V6.6875ZM37.125 11.9375H33.375V14.9375H38.4375V17.2812H33.375V22.5312H31.0312V17.2812H25.875V14.9375H31.0312V11.9375H27.1875V9.6875H31.0312V7.15625H26.625V4.8125H29.4375L27.75 1.4375L29.8125 0.5L31.5938 4.0625L30 4.8125H32.4375L34.875 0.3125L36.9375 1.34375L35.0625 4.8125H37.875V7.15625H33.375V9.6875H37.125V11.9375ZM21 21.5938L23.1562 13.3438L25.4062 13.9062L23.25 22.1562L21 21.5938ZM20.5312 8.1875L22.2188 6.5L25.5938 9.875L23.9062 11.5625L20.5312 8.1875ZM21.2812 2.5625L22.9688 0.96875L26.0625 4.15625L24.375 5.75L21.2812 2.5625ZM47.4375 5.75H45.6562V7.90625L47.3438 7.625L47.5312 8.65625L48.6562 7.25L49.9688 8.28125C50.1562 7.40625 50.25 6.46875 50.25 5.46875H48.2812V3.3125H50.25V0.59375H52.5V3.3125H56.1562V7.4375C56.1562 10.1875 56.2188 12 56.3438 12.875C56.4688 13.25 56.5625 13.4375 56.625 13.4375C56.75 13.4375 56.8438 13.25 56.9062 12.875C56.9062 12.8125 56.9062 12.625 56.9062 12.3125C56.9688 11.75 57 11.3438 57 11.0938L58.7812 11.8438C58.7188 12.7812 58.5938 13.5938 58.4062 14.2812C58.1562 15.2812 57.5312 15.8125 56.5312 15.875C55.6562 15.8125 55 15.375 54.5625 14.5625C54.25 13.875 54.0625 12.8438 54 11.4688L52.6875 13.1562L51.1875 12.0312C50.5625 13.2812 49.5938 14.6562 48.2812 16.1562L46.5 14.6562C47.8125 13.2812 48.75 11.9062 49.3125 10.5312L47.625 9.21875L47.7188 9.78125L45.6562 10.1562V14.0938C45.6562 15.1562 45.125 15.6875 44.0625 15.6875H42.1875L41.625 13.5312H43.0312C43.2812 13.5312 43.4062 13.3438 43.4062 12.9688V10.5312L40.9688 10.9062L40.6875 8.75L43.4062 8.28125V5.75H40.875V3.59375H43.4062V0.59375H45.6562V3.59375H47.4375V5.75ZM56.25 22.4375L53.8125 17.375L55.9688 16.3438L58.4062 21.5L56.25 22.4375ZM42.75 22.5312L40.6875 21.5L43.125 16.3438L45.1875 17.375L42.75 22.5312ZM47.3438 22.0625L45.6562 17.4688L47.8125 16.625L49.5 21.2188L47.3438 22.0625ZM51.5625 21.875L49.7812 17.5625L51.9375 16.625L53.7188 20.9375L51.5625 21.875ZM53.9062 5.46875H52.5C52.5 7.15625 52.3438 8.59375 52.0312 9.78125L54 11.375C53.9375 10.6875 53.9062 9.375 53.9062 7.4375V5.46875ZM61.4062 16.3438L59.5312 15.3125C60.7188 12.6875 61.6875 9.90625 62.4375 6.96875H60.6562V4.71875H62.7188V0.6875H64.9688V4.71875H66.5625V6.96875H64.9688V10.4375L65.625 9.875L67.2188 11.9375V11.4688H71.4375V9.40625L73.6875 9.78125V11.4688H77.7188V13.625H71.4375V14C71.4375 14.125 71.4062 14.3125 71.3438 14.5625C71.3438 14.75 71.3438 14.875 71.3438 14.9375H76.7812V19.9062C76.8438 21.4688 76.1562 22.1875 74.7188 22.0625H72.6562L72 19.8125H73.7812C74.3438 19.875 74.5938 19.625 74.5312 19.0625V17.1875H71.0625C70.75 18.9375 69.5 20.75 67.3125 22.625L65.7188 21.0312C68.1562 18.9688 69.2812 16.625 69.0938 14V13.625H67.2188V12.4062L66 13.4375L64.9688 12.2188V22.5312H62.7188V12.4062C62.3438 13.8438 61.9062 15.1562 61.4062 16.3438ZM69.0938 10.9062H66.9375V6.96875H69.5625L68.25 5.46875L69.2812 4.625H66.8438V2.46875H71.1562V0.59375L73.4062 0.96875V2.46875H77.8125V4.625H75.375L76.5 5.375L75.2812 6.96875H78.1875V10.9062H76.0312V9.125H69.0938V10.9062ZM71.625 6.3125L70.875 6.96875H72.75L74.5312 4.625H70.2188L71.625 6.3125Z" fill="#2A2A2A"/>
</svg>
