<svg width="83" height="23" viewBox="0 0 83 23" fill="none" xmlns="http://www.w3.org/2000/svg">
<path opacity="0.9" d="M5.056 22.912L5.512 18.4L0.616 20.368L0.88 17.872L5.776 15.904L6.544 8.704H1.84L2.104 6.232H6.808L7.384 0.688H9.904L7.576 22.912H5.056ZM11.32 22.48L13.624 0.688H16.144L15.448 7.264L20.272 4.72L20.008 7.192L15.232 9.712L14.128 20.056H18.856L17.608 22.48H11.32ZM26.0153 5.44L23.9993 0.663999H26.7593L27.8393 5.44H26.0153ZM31.4633 22.96L32.0393 17.488H26.5913L26.8073 15.16H32.2793L32.6633 11.488H28.1273L28.3673 9.16H32.9273L33.2873 5.608H28.2473L28.4633 3.28H30.7673L30.0473 0.663999H32.6153L32.7353 3.28H36.6713L37.3193 0.663999H39.9353L38.6633 3.28H40.9433L40.7033 5.608H35.6633L35.3033 9.16H39.8393L39.5753 11.488H35.0393L34.6553 15.16H40.1273L39.8633 17.488H34.4153L33.8393 22.96H31.4633ZM24.7913 11.104L22.7513 6.376H25.4633L26.7833 11.104H24.7913ZM21.1433 22.504L24.7673 12.928H26.6393L23.7113 22.504H21.1433ZM45.6546 14.224L46.0386 10.504L43.3026 10.96L43.5426 8.632L46.3026 8.152L46.5906 5.2H43.9986L44.2386 2.992H46.8306L47.0946 0.688H49.3266L49.0866 2.992H50.9586L50.7186 5.2H48.8706L48.5586 7.768L50.5026 7.408L50.2866 9.736L48.3426 10.096L47.6706 16.312H44.1906L43.6146 14.224H45.6546ZM59.9826 16.048H56.7666L57.8946 5.392H55.8306L54.5106 9.088L56.3826 9.856L56.1186 12.376L53.7186 11.32L51.9906 16.168H50.0226L51.8466 10.504L50.7186 10.024L50.9826 7.6L52.5666 8.272L53.5026 5.392H51.4386L51.7026 3.064H54.2466L55.0146 0.688H57.5106L56.6706 3.064H60.3666L59.2146 13.768H60.9906L59.9826 16.048ZM41.8386 22.888L43.3746 17.128H45.9906L43.4466 22.888H41.8386ZM47.1186 17.128H49.7586L50.0706 22.888H48.4626L47.1186 17.128ZM52.1346 17.128H54.7746L55.0626 22.888H53.4546L52.1346 17.128ZM57.1026 17.128H59.7426L60.0306 22.888H58.4226L57.1026 17.128ZM69.2299 16.384H68.2459V8.776L66.7579 22.96H64.6459L66.4219 6.04L63.3739 21.952H62.4379L64.9579 6.04H64.3339L64.5739 3.808H66.6619L66.9739 0.663999H69.1099L68.7739 3.808H70.1179L69.8779 6.04H68.5339L68.3179 8.032H69.5659L69.2299 16.384ZM78.1339 2.008H82.3099L82.0939 4.072H71.1739L71.4139 2.008H75.6379L75.7819 0.663999H78.2779L78.1339 2.008ZM80.9659 4.768L80.0059 6.664H82.0459L81.6379 10.456H79.3339L79.5259 8.656H72.8059L72.6139 10.456H70.3099L70.7179 6.664H72.7339L72.1339 4.768H74.7739L74.8939 6.664H77.8699L78.3499 4.768H80.9659ZM77.3179 9.712L77.1259 11.272H81.8299L81.6379 13.336H74.0059L73.8139 15.04H80.3419L79.5259 22.96H75.9979L75.5659 20.92H77.3419L77.7499 17.104H73.3339L70.2859 22.96H68.2699L71.4139 15.4L71.6299 13.336H69.7339L69.9259 11.272H74.7739L74.9179 9.712H77.3179Z" fill="#2A2A2A"/>
</svg>
