<svg width="66" height="22" viewBox="0 0 66 22" fill="none" xmlns="http://www.w3.org/2000/svg">
<g opacity="0.9">
<path d="M22.885 8.148V14.674C22.885 16.299 23.548 16.676 25.667 16.676C26.148 16.676 30.022 16.676 30.555 16.676C32.7 16.676 33.116 15.974 33.376 13.569C33.077 13.517 32.648 13.348 32.375 13.166C32.206 15.272 31.985 15.714 30.555 15.714C29.684 15.714 26.291 15.714 25.602 15.714C24.172 15.714 23.886 15.519 23.886 14.7V8.148H22.885ZM23.431 10.28V11.255H31.101V10.28H23.431ZM22.209 5.899V6.861H30.711V11.892H31.712V5.899H22.209ZM39.914 7.979H44.256V9.019H39.914V7.979ZM39.914 6.25H44.256V7.29H39.914V6.25ZM39.017 5.509V9.773H45.192V5.509H39.017ZM38.419 10.709V11.528H45.907V10.709H38.419ZM41.617 11.112V16.052L42.527 16.429V11.112H41.617ZM39.875 13.504L39.277 13.725C40.07 16.377 41.565 16.845 43.736 16.845H46.024C46.05 16.598 46.18 16.182 46.31 15.974C45.855 15.987 44.1 15.987 43.775 15.987C41.968 15.987 40.538 15.662 39.875 13.504ZM42.241 13.049V13.855H45.257V13.049H42.241ZM39.277 12.139C39.069 14.063 38.484 15.532 37.327 16.455C37.522 16.598 37.899 16.884 38.055 17.04C39.225 16 39.901 14.388 40.161 12.243L39.277 12.139ZM34.064 11.996L34.311 12.945C35.416 12.594 36.833 12.126 38.185 11.684L38.042 10.787C36.586 11.255 35.078 11.723 34.064 11.996ZM34.207 7.706V8.616H38.172V7.706H34.207ZM35.819 5.093V15.818C35.819 16.013 35.767 16.065 35.598 16.065C35.442 16.065 34.948 16.065 34.376 16.052C34.506 16.325 34.623 16.728 34.662 16.962C35.481 16.962 35.988 16.936 36.287 16.78C36.612 16.624 36.729 16.364 36.729 15.831V5.093H35.819ZM47.596 8.018V17.053H48.558V8.018H47.596ZM47.739 5.717C48.402 6.406 49.247 7.342 49.676 7.901L50.417 7.368C49.988 6.822 49.104 5.899 48.454 5.262L47.739 5.717ZM51.015 5.821V6.731H57.879V5.821H51.015ZM57.216 5.821V15.675C57.216 15.896 57.138 15.974 56.904 15.987C56.696 15.987 55.903 16 55.123 15.961C55.253 16.234 55.409 16.676 55.448 16.949C56.514 16.962 57.216 16.936 57.632 16.78C58.035 16.611 58.191 16.312 58.191 15.688V5.821H57.216ZM51.067 9.032V9.916H54.2V12.932H51.067V13.816H55.149V9.032H51.067ZM50.573 9.032V14.661H51.47V9.032H50.573Z" fill="#363C54"/>
<ellipse cx="11" cy="10.9999" rx="6" ry="6.00001" fill="#363C54"/>
<path d="M11 14.6667H11.0102" stroke="white" stroke-width="2" stroke-linecap="round" stroke-linejoin="round"/>
<path d="M11 7.33331V11.3333" stroke="white" stroke-width="2" stroke-linecap="round" stroke-linejoin="round"/>
</g>
</svg>
