<svg width="20" height="20" viewBox="0 0 20 20" fill="none" xmlns="http://www.w3.org/2000/svg">
<path d="M16.291 8.33082C15.9118 7.47741 15.3606 6.71144 14.6719 6.08082L14.1035 5.55933C14.0842 5.54211 14.061 5.52989 14.0359 5.52374C14.0107 5.5176 13.9845 5.51771 13.9594 5.52407C13.9344 5.53044 13.9112 5.54286 13.8921 5.56024C13.8729 5.57763 13.8584 5.59945 13.8496 5.62379L13.5957 6.3523C13.4375 6.80933 13.1465 7.27613 12.7344 7.73512C12.707 7.76441 12.6758 7.77222 12.6543 7.77418C12.6328 7.77613 12.5996 7.77222 12.5703 7.74488C12.543 7.72144 12.5293 7.68629 12.5312 7.65113C12.6035 6.47535 12.252 5.14918 11.4824 3.70582C10.8457 2.5066 9.96094 1.57105 8.85547 0.918708L8.04883 0.444099C7.94336 0.381599 7.80859 0.46363 7.81445 0.586677L7.85742 1.52418C7.88672 2.1648 7.8125 2.73121 7.63672 3.20191C7.42188 3.77808 7.11328 4.31324 6.71875 4.79371C6.44419 5.12762 6.13299 5.42964 5.79102 5.6941C4.96739 6.32724 4.29768 7.1385 3.83203 8.06715C3.36753 9.00389 3.12557 10.0352 3.125 11.0808C3.125 12.0027 3.30664 12.8953 3.66602 13.7371C4.01302 14.5475 4.51379 15.2831 5.14063 15.9031C5.77344 16.5281 6.50781 17.0203 7.32617 17.3621C8.17383 17.7175 9.07227 17.8972 10 17.8972C10.9277 17.8972 11.8262 17.7175 12.6738 17.364C13.4902 17.0242 14.2325 16.5287 14.8594 15.905C15.4922 15.28 15.9883 14.5496 16.334 13.739C16.6928 12.8995 16.8769 11.9957 16.875 11.0828C16.875 10.1296 16.6797 9.20387 16.291 8.33082ZM13.9258 14.9578C12.877 15.9968 11.4844 16.5671 10 16.5671C8.51563 16.5671 7.12305 15.9968 6.07422 14.9578C5.0293 13.9207 4.45313 12.5457 4.45313 11.0828C4.45313 10.2332 4.64453 9.41871 5.02148 8.6609C5.38867 7.92066 5.93555 7.25855 6.59961 6.74879C7.02312 6.42495 7.40725 6.05262 7.74414 5.63941C8.23242 5.04371 8.61524 4.37965 8.88086 3.66676C8.98982 3.37269 9.06899 3.06843 9.11719 2.75855C9.58789 3.19215 9.98242 3.71558 10.3125 4.32886C10.9648 5.55152 11.2656 6.63941 11.207 7.56519C11.193 7.78323 11.2286 8.00161 11.3112 8.20391C11.3937 8.4062 11.5211 8.58715 11.6836 8.73316C11.8245 8.8604 11.9892 8.95838 12.1682 9.02142C12.3473 9.08445 12.5371 9.11128 12.7266 9.10035C13.1113 9.08082 13.4648 8.9109 13.7227 8.62379C13.9824 8.33277 14.207 8.0359 14.3945 7.73316C14.668 8.08277 14.8965 8.46363 15.0781 8.87379C15.3887 9.57301 15.5469 10.3171 15.5469 11.0828C15.5469 12.5457 14.9707 13.9226 13.9258 14.9578Z" fill="#CF4624"/>
<path d="M12.1639 12.9183C11.9584 13.2737 11.6684 13.5731 11.3196 13.7899C10.9709 14.0067 10.5741 14.1342 10.1644 14.1613C9.75464 14.1883 9.34454 14.114 8.97034 13.9449C8.59613 13.7758 8.26934 13.5172 8.01884 13.1918C7.76834 12.8664 7.60185 12.4843 7.53407 12.0793C7.4663 11.6743 7.49933 11.2589 7.63024 10.8697C7.76116 10.4805 7.98593 10.1295 8.2847 9.84778C8.58346 9.56607 8.94702 9.36229 9.34324 9.25445L10.8054 11.4516L12.4157 11.0216C12.5808 11.64 12.51 12.3213 12.1639 12.9183Z" stroke="#E8AD10" stroke-linecap="round" stroke-linejoin="round"/>
</svg>
