<svg width="12" height="12" viewBox="0 0 12 12" fill="none" xmlns="http://www.w3.org/2000/svg">
<rect width="12" height="12" rx="2" fill="#363C54"/>
<path d="M9.464 5.136V4.472H5.456C5.536 4.288 5.616 4.112 5.688 3.92L4.984 3.736L4.912 3.92V3.496H7.104V4.096H7.824V3.496H9.536V2.84H7.824V2.288H7.104V2.84H4.912V2.296H4.184V2.84H2.456V3.496H4.184V4.104H4.832C4.776 4.232 4.72 4.352 4.664 4.472H2.504V5.136H4.272C3.728 5.952 3.04 6.632 2.232 7.112C2.384 7.256 2.624 7.568 2.72 7.72C3.016 7.512 3.312 7.288 3.584 7.032V9.632H4.288V6.296C4.584 5.936 4.856 5.552 5.096 5.136H9.464ZM9.584 7.28H7.608V7.032C8.128 6.752 8.648 6.384 9.04 6.024L8.6 5.664L8.464 5.704H5.376V6.288H7.752C7.48 6.488 7.176 6.664 6.896 6.8V7.28H4.776V7.912H6.896V8.864C6.896 8.968 6.864 8.984 6.744 8.992C6.64 9 6.232 9 5.824 8.984C5.92 9.16 6.024 9.424 6.064 9.616C6.632 9.616 7.016 9.608 7.28 9.512C7.544 9.408 7.608 9.232 7.608 8.888V7.912H9.584V7.28Z" fill="#FDFDFE"/>
</svg>
