<svg width="28" height="28" viewBox="0 0 28 28" fill="none" xmlns="http://www.w3.org/2000/svg">
<path d="M7.50059 20.7319L12.4061 24.5218C13.4342 25.3147 14.9244 24.5847 14.9244 23.2858V22.2358C19.3295 22.2058 22.8979 18.5089 22.8979 13.9315C22.8979 12.9335 22.7311 12.0476 22.4549 11.1616C21.3475 14.3745 18.4135 16.6987 14.9244 16.6987V15.7034C14.9244 14.4046 13.4342 13.6745 12.4061 14.4675L7.50059 18.2601C6.69121 18.8835 6.69121 20.1058 7.50059 20.7319Z" fill="white" fill-opacity="0.6"/>
<path d="M20.6092 7.33364L15.7037 3.5438C14.6756 2.75083 13.1854 3.48091 13.1854 4.77974V5.82974C8.78027 5.85981 5.21191 9.55669 5.21191 14.134C5.21191 15.1321 5.37871 16.018 5.65488 16.904C6.7623 13.6911 9.69629 11.3668 13.1854 11.3668V12.3622C13.1854 13.661 14.6756 14.3911 15.7037 13.5981L20.6092 9.80552C21.4186 9.18208 21.4186 7.95982 20.6092 7.33364Z" fill="white" fill-opacity="0.6"/>
<path d="M13.2156 12.6547V4.48438C13.1992 4.58008 13.1883 4.67578 13.1883 4.77969V5.82969C8.7832 5.85977 5.21484 9.55664 5.21484 14.134C5.21484 15.132 5.38164 16.018 5.65781 16.9039C6.76523 13.691 9.69922 11.3668 13.1883 11.3668V12.3621C13.1883 12.4633 13.1965 12.5617 13.2156 12.6547ZM14.9246 16.7016V15.7063C14.9246 15.6051 14.9137 15.5066 14.8973 15.4109V23.584C14.9137 23.4883 14.9246 23.3926 14.9246 23.2887V22.2387C19.3297 22.2086 22.8981 18.5117 22.8981 13.9344C22.8981 12.9363 22.7313 12.0504 22.4551 11.1645C21.3477 14.3746 18.4109 16.7016 14.9246 16.7016Z" fill="white"/>
</svg>
