<svg width="12" height="12" viewBox="0 0 12 12" fill="none" xmlns="http://www.w3.org/2000/svg">
<path d="M6.00001 4.24996C6.11538 4.24996 6.22816 4.28417 6.32409 4.34827C6.42002 4.41237 6.49479 4.50347 6.53894 4.61006C6.58309 4.71665 6.59464 4.83394 6.57213 4.94709C6.54963 5.06025 6.49407 5.16419 6.41249 5.24577C6.33091 5.32735 6.22697 5.38291 6.11381 5.40542C6.00066 5.42793 5.88337 5.41637 5.77678 5.37222C5.67019 5.32807 5.57908 5.2533 5.51499 5.15738C5.45089 5.06145 5.41668 4.94867 5.41668 4.83329C5.41668 4.67858 5.47813 4.53021 5.58753 4.42081C5.69693 4.31142 5.8453 4.24996 6.00001 4.24996ZM1.91668 0.166626H10.0833C10.5475 0.166626 10.9926 0.351001 11.3208 0.679189C11.649 1.00738 11.8333 1.4525 11.8333 1.91663V7.74996C11.8333 8.21409 11.649 8.65921 11.3208 8.9874C10.9926 9.31559 10.5475 9.49996 10.0833 9.49996H3.32251L1.16418 11.6641C1.10967 11.7182 1.04503 11.761 0.973955 11.79C0.902884 11.819 0.82678 11.8337 0.75001 11.8333C0.67349 11.8353 0.597573 11.8193 0.528343 11.7866C0.421816 11.7429 0.330625 11.6685 0.266263 11.573C0.201902 11.4775 0.167251 11.3651 0.166676 11.25V1.91663C0.166677 1.4525 0.35105 1.00738 0.679239 0.679189C1.00743 0.351001 1.45255 0.166626 1.91668 0.166626ZM1.33334 9.84413L2.66918 8.50246C2.72368 8.4484 2.78833 8.40562 2.8594 8.37659C2.93047 8.34756 3.00657 8.33285 3.08334 8.33329H10.0833C10.2381 8.33329 10.3864 8.27183 10.4958 8.16244C10.6052 8.05304 10.6667 7.90467 10.6667 7.74996V1.91663C10.6667 1.76192 10.6052 1.61354 10.4958 1.50415C10.3864 1.39475 10.2381 1.33329 10.0833 1.33329H1.91668C1.76197 1.33329 1.61359 1.39475 1.5042 1.50415C1.3948 1.61354 1.33334 1.76192 1.33334 1.91663V9.84413ZM8.33334 4.24996C8.44872 4.24996 8.5615 4.28417 8.65743 4.34827C8.75335 4.41237 8.82812 4.50347 8.87227 4.61006C8.91642 4.71665 8.92798 4.83394 8.90547 4.94709C8.88296 5.06025 8.8274 5.16419 8.74582 5.24577C8.66424 5.32735 8.5603 5.38291 8.44715 5.40542C8.33399 5.42793 8.2167 5.41637 8.11011 5.37222C8.00352 5.32807 7.91242 5.2533 7.84832 5.15738C7.78422 5.06145 7.75001 4.94867 7.75001 4.83329C7.75001 4.67858 7.81147 4.53021 7.92086 4.42081C8.03026 4.31142 8.17863 4.24996 8.33334 4.24996ZM3.66668 4.24996C3.78205 4.24996 3.89483 4.28417 3.99076 4.34827C4.08669 4.41237 4.16146 4.50347 4.20561 4.61006C4.24976 4.71665 4.26131 4.83394 4.2388 4.94709C4.21629 5.06025 4.16074 5.16419 4.07915 5.24577C3.99757 5.32735 3.89363 5.38291 3.78048 5.40542C3.66732 5.42793 3.55003 5.41637 3.44344 5.37222C3.33685 5.32807 3.24575 5.2533 3.18165 5.15738C3.11755 5.06145 3.08334 4.94867 3.08334 4.83329C3.08334 4.67858 3.1448 4.53021 3.2542 4.42081C3.36359 4.31142 3.51197 4.24996 3.66668 4.24996Z" fill="#2A2A2A"/>
</svg>
