<svg width="66" height="22" viewBox="0 0 66 22" fill="none" xmlns="http://www.w3.org/2000/svg">
<g opacity="0.9">
<path d="M22.885 8.148V14.674C22.885 16.299 23.548 16.676 25.667 16.676C26.148 16.676 30.022 16.676 30.555 16.676C32.7 16.676 33.116 15.974 33.376 13.569C33.077 13.517 32.648 13.348 32.375 13.166C32.206 15.272 31.985 15.714 30.555 15.714C29.684 15.714 26.291 15.714 25.602 15.714C24.172 15.714 23.886 15.519 23.886 14.7V8.148H22.885ZM23.431 10.28V11.255H31.101V10.28H23.431ZM22.209 5.899V6.861H30.711V11.892H31.712V5.899H22.209ZM38.562 9.5H41.721V12.49H38.562V9.5ZM37.639 8.629V13.348H42.696V8.629H37.639ZM34.766 5.613V17.027H35.767V6.601H44.594V17.027H45.634V5.613H34.766ZM35.325 15.415V16.338H45.192V15.415H35.325ZM50.144 10.267H56.189V11.151H50.144V10.267ZM50.144 8.733H56.189V9.604H50.144V8.733ZM49.169 8.031V11.853H57.203V8.031H49.169ZM49.871 5.08C49.26 6.367 48.129 7.576 47.024 8.33C47.206 8.512 47.518 8.915 47.635 9.11C48.831 8.2 50.04 6.809 50.755 5.353L49.871 5.08ZM49.624 6.341L49.208 7.16H58.126V6.341H49.624ZM50.82 11.58C50.092 12.685 48.844 13.712 47.596 14.349C47.817 14.505 48.155 14.83 48.298 14.986C49.507 14.271 50.846 13.127 51.665 11.879L50.82 11.58ZM50.274 12.685L49.637 13.439H56.332V12.685H50.274ZM56.059 12.685V12.815C54.538 14.908 50.534 15.896 46.829 16.169C46.972 16.403 47.154 16.793 47.206 17.053C51.067 16.663 55.227 15.597 57.034 13.049L56.423 12.646L56.254 12.685H56.059ZM50.287 13.166L49.546 13.465C51.275 15.597 54.59 16.637 58.36 16.949C58.477 16.702 58.698 16.299 58.906 16.091C55.136 15.857 51.821 14.947 50.287 13.166Z" fill="#363C54"/>
<ellipse cx="11" cy="10.9999" rx="6" ry="6.00001" fill="#363C54"/>
</g>
<path d="M14.6667 9L10.0833 13.5833L8 11.5" stroke="white" stroke-width="1.5" stroke-linecap="round" stroke-linejoin="round"/>
</svg>
