<svg width="65" height="20" viewBox="0 0 65 20" fill="none" xmlns="http://www.w3.org/2000/svg">
<rect width="65" height="20" rx="10" fill="#363C54"/>
<path d="M24.992 14.233C23.562 14.233 23.328 14.116 23.328 13.31V10.541H29.23V11.152H30.842V4.717H21.209V6.251H29.23V9.02H23.328V7.252H21.729V13.31C21.729 15.273 22.496 15.767 25.005 15.767H29.308C31.674 15.767 32.246 15.052 32.545 12.608C32.09 12.517 31.388 12.257 30.985 12.01C30.79 13.895 30.582 14.233 29.243 14.233H24.992ZM39.005 8.305C39.291 8.552 39.577 8.981 39.707 9.28C39.798 9.241 39.889 9.189 39.98 9.15C39.798 10.125 39.473 11.113 39.005 11.802V8.305ZM37.003 13.128H37.744V14.519C37.744 14.649 37.705 14.688 37.588 14.688C37.51 14.688 37.276 14.688 37.003 14.675V13.128ZM35.235 11.997C35.261 11.555 35.274 11.139 35.274 10.749V10.671H35.989V11.997H35.235ZM36.86 6.368C36.743 6.706 36.613 7.031 36.496 7.317H35.118C35.274 7.005 35.43 6.706 35.573 6.368H36.86ZM35.274 8.448H35.989V9.566H35.274V8.448ZM37.744 10.671V11.997H37.003V10.671H37.744ZM37.003 9.566V8.448H37.744V9.566H37.003ZM45.245 12.608H43.308V11.438H44.972V10.138H43.308V9.098H41.839V10.138H41.059C41.137 9.865 41.202 9.579 41.241 9.306L40.097 9.085C41.397 8.344 41.891 7.265 42.099 5.913H43.542C43.49 6.992 43.425 7.434 43.308 7.577C43.217 7.694 43.113 7.72 42.944 7.72C42.788 7.72 42.437 7.707 42.021 7.668C42.216 8.006 42.346 8.513 42.372 8.916C42.905 8.929 43.399 8.916 43.685 8.877C44.023 8.825 44.257 8.721 44.478 8.448C44.751 8.123 44.868 7.213 44.933 5.146C44.946 4.977 44.959 4.652 44.959 4.652H39.252V5.913H40.708C40.526 6.875 40.123 7.655 39.005 8.149V7.317H37.835C38.108 6.797 38.368 6.199 38.55 5.705L37.64 5.133L37.432 5.198H36.015C36.119 4.899 36.21 4.587 36.288 4.288L34.91 3.989C34.559 5.523 33.87 7.031 32.986 7.98C33.259 8.162 33.727 8.552 34 8.812V10.749C34 12.205 33.935 14.129 33.064 15.468C33.35 15.611 33.922 15.975 34.156 16.17C34.702 15.338 34.988 14.233 35.131 13.128H35.989V15.325H37.003V14.857C37.146 15.208 37.263 15.65 37.302 15.962C37.874 15.962 38.277 15.936 38.602 15.702C38.927 15.481 39.005 15.104 39.005 14.545V11.867C39.317 12.01 39.837 12.27 40.084 12.439C40.266 12.153 40.448 11.815 40.617 11.438H41.839V12.608H39.382V13.934H41.839V16.118H43.308V13.934H45.245V12.608ZM49.248 7.265C48.819 6.498 47.87 5.328 47.142 4.496L45.92 5.237C46.635 6.134 47.545 7.356 47.909 8.11L49.248 7.265ZM47.961 10.32C47.272 11.893 46.388 13.583 45.751 14.61L47.09 15.546C47.805 14.233 48.533 12.686 49.144 11.256L47.961 10.32ZM54.032 7.369H55.41V9.787H53.98C54.019 9.345 54.032 8.929 54.032 8.5V7.369ZM57.971 11.269V9.787H56.892V5.913H54.032V3.976H52.394V5.913H50.054V7.369H52.394V8.487C52.394 8.916 52.381 9.345 52.355 9.787H49.469V11.269H52.082C51.692 12.647 50.756 13.973 48.663 14.909C49.04 15.208 49.573 15.806 49.794 16.157C51.848 15.065 52.94 13.596 53.486 12.049C54.214 13.947 55.319 15.338 57.126 16.092C57.347 15.676 57.802 15.039 58.153 14.727C56.463 14.142 55.371 12.894 54.747 11.269H57.971Z" fill="#FDFDFE"/>
<ellipse cx="10" cy="10" rx="6" ry="6.00001" fill="#FDFDFE"/>
<path d="M13.3333 7.5L8.74999 12.0833L6.66666 10" stroke="#363C54" stroke-width="1.5" stroke-linecap="round" stroke-linejoin="round"/>
</svg>
