<svg width="66" height="22" viewBox="0 0 66 22" fill="none" xmlns="http://www.w3.org/2000/svg">
<rect x="1" y="1" width="65" height="20" rx="10" fill="#363C54"/>
<path d="M33.324 11.671V10.137H28.319V8.473H32.388V6.939H28.319V5.002H26.668V6.939H22.716V8.473H26.668V10.137H21.741V11.671H25.953C24.809 13.114 23.041 14.492 21.312 15.233C21.676 15.558 22.183 16.182 22.443 16.572C23.964 15.779 25.485 14.518 26.668 13.088V17.144H28.319V13.01C29.502 14.492 31.01 15.792 32.544 16.585C32.804 16.182 33.298 15.558 33.662 15.246C31.933 14.492 30.165 13.114 29.034 11.671H33.324ZM40.005 9.305C40.291 9.552 40.577 9.981 40.707 10.28C40.798 10.241 40.889 10.189 40.98 10.15C40.798 11.125 40.473 12.113 40.005 12.802V9.305ZM38.003 14.128H38.744V15.519C38.744 15.649 38.705 15.688 38.588 15.688C38.51 15.688 38.276 15.688 38.003 15.675V14.128ZM36.235 12.997C36.261 12.555 36.274 12.139 36.274 11.749V11.671H36.989V12.997H36.235ZM37.86 7.368C37.743 7.706 37.613 8.031 37.496 8.317H36.118C36.274 8.005 36.43 7.706 36.573 7.368H37.86ZM36.274 9.448H36.989V10.566H36.274V9.448ZM38.744 11.671V12.997H38.003V11.671H38.744ZM38.003 10.566V9.448H38.744V10.566H38.003ZM46.245 13.608H44.308V12.438H45.972V11.138H44.308V10.098H42.839V11.138H42.059C42.137 10.865 42.202 10.579 42.241 10.306L41.097 10.085C42.397 9.344 42.891 8.265 43.099 6.913H44.542C44.49 7.992 44.425 8.434 44.308 8.577C44.217 8.694 44.113 8.72 43.944 8.72C43.788 8.72 43.437 8.707 43.021 8.668C43.216 9.006 43.346 9.513 43.372 9.916C43.905 9.929 44.399 9.916 44.685 9.877C45.023 9.825 45.257 9.721 45.478 9.448C45.751 9.123 45.868 8.213 45.933 6.146C45.946 5.977 45.959 5.652 45.959 5.652H40.252V6.913H41.708C41.526 7.875 41.123 8.655 40.005 9.149V8.317H38.835C39.108 7.797 39.368 7.199 39.55 6.705L38.64 6.133L38.432 6.198H37.015C37.119 5.899 37.21 5.587 37.288 5.288L35.91 4.989C35.559 6.523 34.87 8.031 33.986 8.98C34.259 9.162 34.727 9.552 35 9.812V11.749C35 13.205 34.935 15.129 34.064 16.468C34.35 16.611 34.922 16.975 35.156 17.17C35.702 16.338 35.988 15.233 36.131 14.128H36.989V16.325H38.003V15.857C38.146 16.208 38.263 16.65 38.302 16.962C38.874 16.962 39.277 16.936 39.602 16.702C39.927 16.481 40.005 16.104 40.005 15.545V12.867C40.317 13.01 40.837 13.27 41.084 13.439C41.266 13.153 41.448 12.815 41.617 12.438H42.839V13.608H40.382V14.934H42.839V17.118H44.308V14.934H46.245V13.608ZM50.248 8.265C49.819 7.498 48.87 6.328 48.142 5.496L46.92 6.237C47.635 7.134 48.545 8.356 48.909 9.11L50.248 8.265ZM48.961 11.32C48.272 12.893 47.388 14.583 46.751 15.61L48.09 16.546C48.805 15.233 49.533 13.686 50.144 12.256L48.961 11.32ZM55.032 8.369H56.41V10.787H54.98C55.019 10.345 55.032 9.929 55.032 9.5V8.369ZM58.971 12.269V10.787H57.892V6.913H55.032V4.976H53.394V6.913H51.054V8.369H53.394V9.487C53.394 9.916 53.381 10.345 53.355 10.787H50.469V12.269H53.082C52.692 13.647 51.756 14.973 49.663 15.909C50.04 16.208 50.573 16.806 50.794 17.157C52.848 16.065 53.94 14.596 54.486 13.049C55.214 14.947 56.319 16.338 58.126 17.092C58.347 16.676 58.802 16.039 59.153 15.727C57.463 15.142 56.371 13.894 55.747 12.269H58.971Z" fill="#FDFDFE"/>
<ellipse cx="11" cy="11" rx="6" ry="6.00001" fill="#FDFDFE"/>
<path d="M11 14.6667H11.0102" stroke="#363C54" stroke-width="2" stroke-linecap="round" stroke-linejoin="round"/>
<path d="M11 7.33325V11.3333" stroke="#363C54" stroke-width="2" stroke-linecap="round" stroke-linejoin="round"/>
</svg>
