<svg width="66" height="22" viewBox="0 0 66 22" fill="none" xmlns="http://www.w3.org/2000/svg">
<g opacity="0.9">
<path d="M33.207 11.385V10.436H27.981V8.2H32.31V7.251H27.981V5.132H26.98V7.251H22.781V8.2H26.98V10.436H21.845V11.385H26.434C25.264 13.062 23.301 14.674 21.494 15.48C21.715 15.662 22.027 16.039 22.196 16.273C23.899 15.415 25.719 13.868 26.98 12.139V17.001H27.981V12.087C29.242 13.816 31.088 15.428 32.804 16.273C32.973 16.026 33.285 15.649 33.506 15.467C31.699 14.674 29.723 13.049 28.54 11.385H33.207ZM37.834 13.166V11.45H39.004V13.166H37.834ZM35.949 13.166C35.975 12.711 35.988 12.256 35.988 11.853V11.45H37.132V13.166H35.949ZM38.159 7.043C38.003 7.498 37.782 8.005 37.574 8.395H35.832C36.066 7.979 36.274 7.511 36.482 7.043H38.159ZM37.834 9.162H39.004V10.722H37.834V9.162ZM35.988 9.162H37.132V10.722H35.988V9.162ZM39.823 8.395H38.471C38.77 7.849 39.069 7.186 39.29 6.614L38.705 6.237L38.562 6.276H36.768C36.872 5.951 36.976 5.626 37.067 5.301L36.196 5.119C35.793 6.705 35.078 8.239 34.168 9.24C34.363 9.37 34.74 9.656 34.87 9.799C34.961 9.682 35.065 9.565 35.156 9.448V11.84C35.156 13.296 35.065 15.22 34.194 16.585C34.389 16.663 34.766 16.897 34.896 17.04C35.468 16.169 35.741 15.038 35.871 13.933H37.132V16.312H37.834V13.933H39.004V15.883C39.004 16.026 38.965 16.065 38.822 16.065C38.705 16.065 38.341 16.065 37.886 16.052C38.016 16.286 38.107 16.65 38.146 16.884C38.796 16.884 39.199 16.871 39.459 16.715C39.745 16.559 39.823 16.312 39.823 15.896V8.395ZM44.867 6.601C44.776 8.109 44.672 8.707 44.542 8.876C44.451 8.993 44.347 9.006 44.165 8.993C43.996 8.993 43.515 8.993 42.995 8.941C43.125 9.162 43.203 9.5 43.229 9.747C43.762 9.773 44.295 9.786 44.568 9.76C44.88 9.734 45.101 9.643 45.27 9.435C45.543 9.123 45.66 8.291 45.764 6.159C45.777 6.029 45.777 5.782 45.777 5.782H40.33V6.601H42.098C41.877 7.823 41.37 8.863 40.057 9.448C40.239 9.604 40.486 9.916 40.59 10.111C42.124 9.383 42.722 8.122 42.969 6.601H44.867ZM46.128 13.66H43.866V12.074H45.803V11.242H43.866V10.007H42.956V11.242H41.838C41.942 10.904 42.033 10.553 42.111 10.202L41.292 10.033C41.071 11.125 40.681 12.204 40.109 12.932C40.317 13.023 40.694 13.218 40.85 13.335C41.11 12.984 41.331 12.555 41.526 12.074H42.956V13.66H40.33V14.505H42.956V16.988H43.866V14.505H46.128V13.66ZM49.923 8.2C49.52 7.498 48.61 6.406 47.869 5.639L47.102 6.107C47.843 6.9 48.727 8.031 49.091 8.746L49.923 8.2ZM49.182 11.554C48.506 13.062 47.583 14.804 46.946 15.818L47.765 16.416C48.467 15.181 49.299 13.543 49.897 12.152L49.182 11.554ZM54.655 8.096H56.631V11.073H54.577C54.642 10.514 54.655 9.968 54.655 9.448V8.096ZM58.854 12.009V11.073H57.567V7.173H54.655V5.145H53.667V7.173H51.067V8.096H53.667V9.448C53.667 9.968 53.654 10.514 53.602 11.073H50.404V12.009H53.446C53.082 13.582 52.133 15.142 49.663 16.26C49.897 16.442 50.209 16.819 50.352 17.027C52.848 15.779 53.914 14.102 54.356 12.373C55.045 14.583 56.306 16.169 58.295 16.975C58.438 16.728 58.711 16.338 58.932 16.143C57.034 15.493 55.799 13.998 55.175 12.009H58.854Z" fill="#363C54"/>
<ellipse cx="11" cy="11" rx="6" ry="6.00001" fill="#363C54"/>
<path d="M11 14.6667H11.0102" stroke="white" stroke-width="2" stroke-linecap="round" stroke-linejoin="round"/>
<path d="M11 7.33325V11.3333" stroke="white" stroke-width="2" stroke-linecap="round" stroke-linejoin="round"/>
</g>
</svg>
