<svg width="65" height="20" viewBox="0 0 65 20" fill="none" xmlns="http://www.w3.org/2000/svg">
<g opacity="0.9">
<path d="M24.602 14.675C23.198 14.675 22.912 14.493 22.912 13.674V10.242H29.698V10.879H30.686V4.938H21.248V5.887H29.698V9.293H22.912V7.161H21.937V13.661C21.937 15.26 22.587 15.624 24.667 15.624H29.529C31.648 15.624 32.077 14.922 32.324 12.543C32.038 12.491 31.609 12.335 31.349 12.153C31.167 14.246 30.959 14.675 29.542 14.675H24.602ZM36.834 12.166V10.45H38.004V12.166H36.834ZM34.949 12.166C34.975 11.711 34.988 11.256 34.988 10.853V10.45H36.132V12.166H34.949ZM37.159 6.043C37.003 6.498 36.782 7.005 36.574 7.395H34.832C35.066 6.979 35.274 6.511 35.482 6.043H37.159ZM36.834 8.162H38.004V9.722H36.834V8.162ZM34.988 8.162H36.132V9.722H34.988V8.162ZM38.823 7.395H37.471C37.77 6.849 38.069 6.186 38.29 5.614L37.705 5.237L37.562 5.276H35.768C35.872 4.951 35.976 4.626 36.067 4.301L35.196 4.119C34.793 5.705 34.078 7.239 33.168 8.24C33.363 8.37 33.74 8.656 33.87 8.799C33.961 8.682 34.065 8.565 34.156 8.448V10.84C34.156 12.296 34.065 14.22 33.194 15.585C33.389 15.663 33.766 15.897 33.896 16.04C34.468 15.169 34.741 14.038 34.871 12.933H36.132V15.312H36.834V12.933H38.004V14.883C38.004 15.026 37.965 15.065 37.822 15.065C37.705 15.065 37.341 15.065 36.886 15.052C37.016 15.286 37.107 15.65 37.146 15.884C37.796 15.884 38.199 15.871 38.459 15.715C38.745 15.559 38.823 15.312 38.823 14.896V7.395ZM43.867 5.601C43.776 7.109 43.672 7.707 43.542 7.876C43.451 7.993 43.347 8.006 43.165 7.993C42.996 7.993 42.515 7.993 41.995 7.941C42.125 8.162 42.203 8.5 42.229 8.747C42.762 8.773 43.295 8.786 43.568 8.76C43.88 8.734 44.101 8.643 44.27 8.435C44.543 8.123 44.66 7.291 44.764 5.159C44.777 5.029 44.777 4.782 44.777 4.782H39.33V5.601H41.098C40.877 6.823 40.37 7.863 39.057 8.448C39.239 8.604 39.486 8.916 39.59 9.111C41.124 8.383 41.722 7.122 41.969 5.601H43.867ZM45.128 12.66H42.866V11.074H44.803V10.242H42.866V9.007H41.956V10.242H40.838C40.942 9.904 41.033 9.553 41.111 9.202L40.292 9.033C40.071 10.125 39.681 11.204 39.109 11.932C39.317 12.023 39.694 12.218 39.85 12.335C40.11 11.984 40.331 11.555 40.526 11.074H41.956V12.66H39.33V13.505H41.956V15.988H42.866V13.505H45.128V12.66ZM48.923 7.2C48.52 6.498 47.61 5.406 46.869 4.639L46.102 5.107C46.843 5.9 47.727 7.031 48.091 7.746L48.923 7.2ZM48.182 10.554C47.506 12.062 46.583 13.804 45.946 14.818L46.765 15.416C47.467 14.181 48.299 12.543 48.897 11.152L48.182 10.554ZM53.655 7.096H55.631V10.073H53.577C53.642 9.514 53.655 8.968 53.655 8.448V7.096ZM57.854 11.009V10.073H56.567V6.173H53.655V4.145H52.667V6.173H50.067V7.096H52.667V8.448C52.667 8.968 52.654 9.514 52.602 10.073H49.404V11.009H52.446C52.082 12.582 51.133 14.142 48.663 15.26C48.897 15.442 49.209 15.819 49.352 16.027C51.848 14.779 52.914 13.102 53.356 11.373C54.045 13.583 55.306 15.169 57.295 15.975C57.438 15.728 57.711 15.338 57.932 15.143C56.034 14.493 54.799 12.998 54.175 11.009H57.854Z" fill="#363C54"/>
<path d="M15.5 10C15.5 13.0376 13.0376 15.5 10 15.5C6.96243 15.5 4.5 13.0376 4.5 10C4.5 6.96244 6.96243 4.5 10 4.5C13.0376 4.5 15.5 6.96244 15.5 10Z" fill="#363C54" stroke="#363C54"/>
<path d="M13.3334 7.5L8.75002 12.0833L6.66669 10" stroke="white" stroke-width="1.5" stroke-linecap="round" stroke-linejoin="round"/>
</g>
</svg>
