<svg width="66" height="22" viewBox="0 0 66 22" fill="none" xmlns="http://www.w3.org/2000/svg">
<g opacity="0.9">
<path d="M22.885 8.148V14.674C22.885 16.299 23.548 16.676 25.667 16.676C26.148 16.676 30.022 16.676 30.555 16.676C32.7 16.676 33.116 15.974 33.376 13.569C33.077 13.517 32.648 13.348 32.375 13.166C32.206 15.272 31.985 15.714 30.555 15.714C29.684 15.714 26.291 15.714 25.602 15.714C24.172 15.714 23.886 15.519 23.886 14.7V8.148H22.885ZM23.431 10.28V11.255H31.101V10.28H23.431ZM22.209 5.899V6.861H30.711V11.892H31.712V5.899H22.209ZM35.494 8.382V9.149H39.251V8.382H35.494ZM35.481 10.722V11.463H39.238V10.722H35.481ZM35.468 13.179V13.946H39.238V13.179H35.468ZM41.266 11.242V12.087H45.842V11.242H41.266ZM36.17 6.25V7.017H38.497V6.25H36.17ZM40.317 5.743V6.575H45.231V5.743H40.317ZM40.33 13.673V14.544H46.18V13.673H40.33ZM42.969 9.994V17.027H43.905V9.994H42.969ZM37.106 8.759V16.351H37.808V8.759H37.106ZM44.932 5.743V5.873C44.841 7.914 44.737 8.668 44.568 8.863C44.49 8.967 44.373 8.993 44.191 8.98C44.009 8.98 43.528 8.98 43.021 8.928C43.151 9.149 43.229 9.487 43.242 9.747C43.788 9.773 44.334 9.773 44.594 9.747C44.932 9.721 45.127 9.643 45.309 9.422C45.582 9.123 45.712 8.278 45.803 6.107C45.816 5.99 45.816 5.743 45.816 5.743H44.932ZM41.305 10.02C41.071 11.125 40.681 12.217 40.109 12.945C40.33 13.036 40.694 13.231 40.863 13.348C41.409 12.568 41.877 11.385 42.124 10.189L41.305 10.02ZM36.144 5.08C35.754 6.679 35.026 8.226 34.103 9.227C34.311 9.357 34.688 9.643 34.831 9.799C35.767 8.707 36.547 7.03 37.028 5.262L36.144 5.08ZM35.117 8.382V11.84C35.117 13.309 35.026 15.246 34.142 16.624C34.337 16.715 34.714 16.936 34.857 17.079C35.793 15.636 35.936 13.439 35.936 11.853V8.382H35.117ZM38.991 8.382V15.922C38.991 16.065 38.939 16.104 38.809 16.104C38.692 16.104 38.315 16.104 37.86 16.091C37.99 16.325 38.094 16.702 38.12 16.936C38.783 16.936 39.186 16.923 39.446 16.767C39.732 16.611 39.81 16.351 39.81 15.935V8.382H38.991ZM42.176 6.016C42.02 7.459 41.578 8.759 40.031 9.448C40.226 9.591 40.473 9.903 40.59 10.111C42.332 9.292 42.865 7.797 43.073 6.016H42.176ZM38.341 6.25V6.406C38.159 7.056 37.782 7.992 37.444 8.577C37.639 8.668 37.938 8.837 38.107 8.967C38.497 8.356 38.978 7.394 39.277 6.575L38.679 6.198L38.536 6.25H38.341ZM47.05 6.068C47.804 6.887 48.675 8.018 49.065 8.733L49.884 8.174C49.481 7.472 48.558 6.38 47.817 5.6L47.05 6.068ZM46.881 15.857L47.726 16.455C48.441 15.207 49.26 13.556 49.871 12.152L49.143 11.554C48.467 13.075 47.531 14.817 46.881 15.857ZM51.054 7.134V8.07H56.657V11.515H57.593V7.134H51.054ZM50.378 11.073V12.022H58.893V11.073H50.378ZM55.006 11.372L54.135 11.554C54.785 14.206 56.085 16.117 58.321 17.027C58.464 16.767 58.75 16.377 58.971 16.182C56.852 15.454 55.578 13.686 55.006 11.372ZM53.654 5.106V9.435C53.654 11.71 53.511 14.544 49.637 16.299C49.871 16.481 50.196 16.858 50.339 17.079C54.291 15.103 54.668 11.996 54.668 9.435V5.106H53.654Z" fill="#363C54"/>
<ellipse cx="11" cy="10.9999" rx="6" ry="6.00001" fill="#363C54"/>
</g>
<g clip-path="url(#clip0_11_31)">
<path d="M13.103 11.8127C13.1933 12.2324 13.273 12.6122 13.3421 12.9522C13.3739 13.0956 13.4032 13.239 13.4297 13.3825C13.4563 13.5259 13.4815 13.656 13.5054 13.7729C13.5293 13.8898 13.5492 13.9894 13.5652 14.0717C13.5811 14.1541 13.5917 14.2058 13.597 14.2271C13.613 14.3333 13.5891 14.4037 13.5253 14.4382C13.4616 14.4728 13.3899 14.49 13.3102 14.49C13.2836 14.49 13.2451 14.4807 13.1947 14.4622C13.1442 14.4436 13.1057 14.429 13.0791 14.4183L10.9994 13.2072C10.6223 13.4303 10.2796 13.6295 9.97155 13.8048C9.83875 13.8792 9.70727 13.9535 9.57713 14.0279C9.44698 14.1023 9.32879 14.1713 9.22254 14.2351C9.1163 14.2988 9.02467 14.3519 8.94764 14.3944C8.87062 14.4369 8.81883 14.4635 8.79226 14.4741C8.73914 14.5007 8.68469 14.51 8.62892 14.502C8.57314 14.494 8.52268 14.4741 8.47752 14.4422C8.43237 14.4104 8.39917 14.3718 8.37792 14.3267C8.35667 14.2815 8.35136 14.2351 8.36199 14.1873C8.3673 14.166 8.38058 14.1142 8.40183 14.0319C8.42307 13.9495 8.44698 13.8513 8.47354 13.7371C8.5001 13.6228 8.53064 13.4967 8.56517 13.3586C8.5997 13.2205 8.63556 13.0797 8.67274 12.9363C8.75242 12.6069 8.84273 12.2351 8.94366 11.8207C8.63025 11.5498 8.34871 11.3081 8.09904 11.0956C7.9928 11.0053 7.88788 10.9163 7.7843 10.8287C7.68071 10.741 7.58775 10.6614 7.50541 10.5896C7.42307 10.5179 7.35534 10.4595 7.30222 10.4143C7.2491 10.3692 7.21989 10.344 7.21457 10.3386C7.15083 10.2802 7.09638 10.2151 7.05123 10.1434C7.00607 10.0717 6.98881 9.99867 6.99943 9.9243C7.01006 9.84993 7.03928 9.7915 7.08708 9.749C7.13489 9.70651 7.18801 9.67995 7.24645 9.66932L9.7086 9.44622L10.6249 7.31076C10.6568 7.22576 10.702 7.15272 10.7604 7.09163C10.8188 7.03054 10.8985 7 10.9994 7C11.0526 7 11.099 7.01195 11.1389 7.03586C11.1787 7.05976 11.2119 7.08765 11.2385 7.11952C11.265 7.15139 11.2876 7.18327 11.3062 7.21514C11.3248 7.24701 11.3394 7.27357 11.35 7.29482L12.2425 9.43028L14.7046 9.66135C14.8109 9.68792 14.8852 9.71979 14.9277 9.75697C14.9702 9.79416 14.9915 9.85259 14.9915 9.93227C14.9915 10.0066 14.9689 10.0717 14.9237 10.1275C14.8786 10.1833 14.8215 10.251 14.7524 10.3307L13.103 11.8127Z" fill="white"/>
</g>
<defs>
<clipPath id="clip0_11_31">
<rect width="8" height="8" fill="white" transform="translate(7 7)"/>
</clipPath>
</defs>
</svg>
