<svg width="55" height="19" viewBox="0 0 55 19" fill="none" xmlns="http://www.w3.org/2000/svg">
<path d="M26.738 9.177H18.639V13.311C18.639 13.883 18.9293 14.169 19.51 14.169H26.257C26.5863 14.169 26.842 14.091 27.024 13.935C27.2927 13.649 27.466 12.7693 27.544 11.296L28.233 11.517C28.1117 13.0943 27.9037 14.065 27.609 14.429C27.3317 14.7063 26.946 14.845 26.452 14.845H19.302C18.3833 14.845 17.924 14.377 17.924 13.441V6.538H18.639V8.488H26.023V4.848H17.17V4.172H26.738V9.177ZM36.37 10.256C36.136 10.75 35.8587 11.1703 35.538 11.517L35.122 11.01C35.694 10.3773 36.084 9.52367 36.292 8.449L36.89 8.566C36.812 8.956 36.721 9.30267 36.617 9.606H38.021V8.345H38.71V9.606H40.764V10.256H38.71V12.037H41.037V12.7H38.71V15.3H38.021V12.7H35.148V12.037H38.021V10.256H36.37ZM35.252 4.887V4.263H40.556C40.5473 5.94433 40.4347 6.95833 40.218 7.305C40.01 7.643 39.6373 7.812 39.1 7.812C38.944 7.812 38.58 7.80333 38.008 7.786L37.839 7.175C37.9257 7.18367 38.294 7.201 38.944 7.227C39.3427 7.20967 39.594 7.07967 39.698 6.837C39.7933 6.577 39.854 5.927 39.88 4.887H37.748C37.618 5.51967 37.423 6.07433 37.163 6.551C36.8337 7.07967 36.3397 7.565 35.681 8.007L35.265 7.474C35.8717 7.11 36.3267 6.67233 36.63 6.161C36.8467 5.771 36.9983 5.34633 37.085 4.887H35.252ZM30.728 9.606V11.283L30.715 11.478H32.093V9.606H30.728ZM30.676 12.089C30.572 13.3717 30.2687 14.4637 29.766 15.365L29.298 14.923C29.8093 13.9523 30.078 12.6913 30.104 11.14V6.889L29.805 7.227L29.376 6.707C30.182 5.823 30.8277 4.70067 31.313 3.34L31.963 3.496C31.8243 3.87733 31.703 4.18933 31.599 4.432H34.004V4.939C33.6833 5.58033 33.3627 6.122 33.042 6.564H34.706V14.299C34.706 14.8883 34.42 15.183 33.848 15.183H33.029L32.873 14.585C33.2543 14.6023 33.5143 14.611 33.653 14.611C33.9477 14.611 34.095 14.4377 34.095 14.091V12.089H32.691V15.118H32.093V12.089H30.676ZM32.301 6.564C32.6217 6.13067 32.938 5.62367 33.25 5.043H31.3C31.04 5.54567 30.7237 6.05267 30.351 6.564H32.301ZM34.095 11.478V9.606H32.691V11.478H34.095ZM34.095 8.982V7.188H32.691V8.982H34.095ZM32.093 7.188H30.728V8.982H32.093V7.188ZM46.093 5.433H48.784V3.418H49.473V5.433H52.476V9.268H53.685V9.944H49.681C50.539 11.92 51.9343 13.5017 53.867 14.689L53.412 15.209C51.4013 13.883 49.9757 12.193 49.135 10.139C48.537 12.4877 47.1677 14.1993 45.027 15.274L44.598 14.715C46.6347 13.753 47.926 12.1627 48.472 9.944H45.547V9.268H48.615C48.7103 8.67 48.7667 8.01567 48.784 7.305V6.096H46.093V5.433ZM49.473 6.096V7.149C49.473 7.89433 49.421 8.60067 49.317 9.268H51.787V6.096H49.473ZM42.752 3.912C43.6447 5.01267 44.338 5.98767 44.832 6.837L44.247 7.253C43.7617 6.37767 43.0683 5.381 42.167 4.263L42.752 3.912ZM44.975 9.515C44.3163 11.413 43.5753 13.2113 42.752 14.91L42.089 14.624C42.9383 12.908 43.6923 11.1227 44.351 9.268L44.975 9.515Z" fill="#2C7EDF"/>
<path d="M11.5 10C11.5 13.0376 9.03757 15.5 6 15.5C2.96243 15.5 0.5 13.0376 0.5 10C0.5 6.96244 2.96243 4.5 6 4.5C9.03757 4.5 11.5 6.96244 11.5 10Z" fill="#2C7EDF" stroke="#2C7EDF"/>
<path d="M9.33366 7.5L4.75033 12.0833L2.66699 10" stroke="white" stroke-linecap="round" stroke-linejoin="round"/>
</svg>
