<?xml version="1.0" standalone="no"?><!DOCTYPE svg PUBLIC "-//W3C//DTD SVG 1.1//EN" "http://www.w3.org/Graphics/SVG/1.1/DTD/svg11.dtd"><svg t="1647787265215" class="icon" viewBox="0 0 1024 1024" version="1.1" xmlns="http://www.w3.org/2000/svg" p-id="22354" xmlns:xlink="http://www.w3.org/1999/xlink" width="200" height="200"><defs><style type="text/css">@font-face { font-family: "feedback-iconfont"; src: url("//at.alicdn.com/t/font_1031158_u69w8yhxdu.woff2?t=1630033759944") format("woff2"), url("//at.alicdn.com/t/font_1031158_u69w8yhxdu.woff?t=1630033759944") format("woff"), url("//at.alicdn.com/t/font_1031158_u69w8yhxdu.ttf?t=1630033759944") format("truetype"); }
</style></defs><path d="M525.653333 814.933333c-5.12 5.12-11.093333 7.68-18.773333 7.68-13.653333 0-24.746667-9.386667-26.453333-23.04L452.266667 614.4H328.533333c-11.946667 0-23.04-8.533333-25.6-19.626667-1.706667-7.68-13.653333-69.973333 57.173334-112.64 0.853333-0.853333 2.56-1.706667 3.413333-2.56 2.56-1.706667 5.12-4.266667 8.533333-6.826666 13.653333-10.24 25.6-40.96 28.16-75.093334 2.56-32.426667-3.413333-61.44-15.36-73.386666l-8.533333-8.533334c-11.946667-11.093333-29.866667-27.306667-29.866667-53.76 0-30.72 23.04-56.32 53.76-59.733333h208.213334c16.213333 0 30.72 5.973333 42.666666 17.92 11.093333 11.093333 17.92 26.453333 17.92 42.666667 0 25.6-17.92 42.666667-29.866666 53.76l-8.533334 8.533333c-11.093333 11.093333-17.066667 33.28-16.213333 60.586667 1.706667 39.253333 16.213333 76.8 29.013333 87.893333 4.266667 3.413333 11.946667 9.386667 12.8 10.24 69.12 41.813333 57.173333 104.106667 55.466667 110.933333-3.413333 11.946667-13.653333 20.48-25.6 20.48H552.96c-7.68 0-13.653333-5.973333-13.653333-13.653333s5.973333-13.653333 13.653333-13.653333h132.266667c0.853333-5.12-57.173333-19.626667-111.786667-52.053334-0.853333-0.853333 57.173333-37.546667 52.053333-41.813333-20.48-17.066667-143.36-144.213333-145.066666-188.586667-0.853333-24.746667-49.493333-64-28.16-85.333333 2.56-2.56 83.626667 3.413333 87.04 0 12.8-11.093333 80.213333 74.24 73.386666 68.266667-5.973333-5.973333-30.72-9.386667-40.106666-9.386667-1.706667 0-165.546667-49.493333-171.52-49.493333-16.213333 1.706667-29.013333 16.213333-29.013334 33.28 0 13.653333-21.333333-11.093333-9.386666 0 0-67.413333 86.186667-45.226667 88.746666-42.666667 17.92 17.92 30.72-32.426667 28.16 9.386667-2.56 34.133333-12.8 264.533333-37.546666 281.6-2.56 1.706667-37.546667 6.826667-39.253334 8.533333-1.706667 0.853333 34.133333 7.68 32.426667 7.68-54.613333 32.426667-34.133333-87.04-32.426667-81.92 29.866667-125.44 53.76-200.533333 71.68-226.133333 4.266667-5.973333 78.506667 121.173333 223.573334 381.44 0.853333-7.68-149.333333-7.68-141.653334-6.826667 7.68 0.853333 10.24 0 0 52.906667l-23.893333 152.746666c-0.853333 6.826667-3.413333 11.946667-6.826667 15.36z" fill="#d74e3c" p-id="22355"></path></svg>