<svg width="65" height="20" viewBox="0 0 65 20" fill="none" xmlns="http://www.w3.org/2000/svg">
    <g opacity="0.9">
        <path d="M21.885 7.148V13.674C21.885 15.299 22.548 15.676 24.667 15.676C25.148 15.676 29.022 15.676 29.555 15.676C31.7 15.676 32.116 14.974 32.376 12.569C32.077 12.517 31.648 12.348 31.375 12.166C31.206 14.272 30.985 14.714 29.555 14.714C28.684 14.714 25.291 14.714 24.602 14.714C23.172 14.714 22.886 14.519 22.886 13.7V7.148H21.885ZM22.431 9.28V10.255H30.101V9.28H22.431ZM21.209 4.899V5.861H29.711V10.892H30.712V4.899H21.209ZM37.562 8.5H40.721V11.49H37.562V8.5ZM36.639 7.629V12.348H41.696V7.629H36.639ZM33.766 4.613V16.027H34.767V5.601H43.594V16.027H44.634V4.613H33.766ZM34.325 14.415V15.338H44.192V14.415H34.325ZM49.144 9.267H55.189V10.151H49.144V9.267ZM49.144 7.733H55.189V8.604H49.144V7.733ZM48.169 7.031V10.853H56.203V7.031H48.169ZM48.871 4.08C48.26 5.367 47.129 6.576 46.024 7.33C46.206 7.512 46.518 7.915 46.635 8.11C47.831 7.2 49.04 5.809 49.755 4.353L48.871 4.08ZM48.624 5.341L48.208 6.16H57.126V5.341H48.624ZM49.82 10.58C49.092 11.685 47.844 12.712 46.596 13.349C46.817 13.505 47.155 13.83 47.298 13.986C48.507 13.271 49.846 12.127 50.665 10.879L49.82 10.58ZM49.274 11.685L48.637 12.439H55.332V11.685H49.274ZM55.059 11.685V11.815C53.538 13.908 49.534 14.896 45.829 15.169C45.972 15.403 46.154 15.793 46.206 16.053C50.067 15.663 54.227 14.597 56.034 12.049L55.423 11.646L55.254 11.685H55.059ZM49.287 12.166L48.546 12.465C50.275 14.597 53.59 15.637 57.36 15.949C57.477 15.702 57.698 15.299 57.906 15.091C54.136 14.857 50.821 13.947 49.287 12.166Z" fill="#363C54"/>
        <path d="M15.5 9.99995C15.5 13.0375 13.0376 15.5 10 15.5C6.96243 15.5 4.5 13.0375 4.5 9.99995C4.5 6.96238 6.96243 4.49994 10 4.49994C13.0376 4.49994 15.5 6.96238 15.5 9.99995Z" fill="#363C54" stroke="#363C54"/>
        <path d="M13.3333 7.49996L8.75 12.0833L6.66667 9.99996" stroke="white" stroke-linecap="round" stroke-linejoin="round"/>
    </g>
</svg>
