<svg width="39" height="14" viewBox="0 0 39 14" fill="none" xmlns="http://www.w3.org/2000/svg">
<path d="M12.324 7.671V6.137H7.319V4.473H11.388V2.939H7.319V1.002H5.668V2.939H1.716V4.473H5.668V6.137H0.741V7.671H4.953C3.809 9.114 2.041 10.492 0.312 11.233C0.676 11.558 1.183 12.182 1.443 12.572C2.964 11.779 4.485 10.518 5.668 9.088V13.144H7.319V9.01C8.502 10.492 10.01 11.792 11.544 12.585C11.804 12.182 12.298 11.558 12.662 11.246C10.933 10.492 9.165 9.114 8.034 7.671H12.324ZM19.005 5.305C19.291 5.552 19.577 5.981 19.707 6.28C19.798 6.241 19.889 6.189 19.98 6.15C19.798 7.125 19.473 8.113 19.005 8.802V5.305ZM17.003 10.128H17.744V11.519C17.744 11.649 17.705 11.688 17.588 11.688C17.51 11.688 17.276 11.688 17.003 11.675V10.128ZM15.235 8.997C15.261 8.555 15.274 8.139 15.274 7.749V7.671H15.989V8.997H15.235ZM16.86 3.368C16.743 3.706 16.613 4.031 16.496 4.317H15.118C15.274 4.005 15.43 3.706 15.573 3.368H16.86ZM15.274 5.448H15.989V6.566H15.274V5.448ZM17.744 7.671V8.997H17.003V7.671H17.744ZM17.003 6.566V5.448H17.744V6.566H17.003ZM25.245 9.608H23.308V8.438H24.972V7.138H23.308V6.098H21.839V7.138H21.059C21.137 6.865 21.202 6.579 21.241 6.306L20.097 6.085C21.397 5.344 21.891 4.265 22.099 2.913H23.542C23.49 3.992 23.425 4.434 23.308 4.577C23.217 4.694 23.113 4.72 22.944 4.72C22.788 4.72 22.437 4.707 22.021 4.668C22.216 5.006 22.346 5.513 22.372 5.916C22.905 5.929 23.399 5.916 23.685 5.877C24.023 5.825 24.257 5.721 24.478 5.448C24.751 5.123 24.868 4.213 24.933 2.146C24.946 1.977 24.959 1.652 24.959 1.652H19.252V2.913H20.708C20.526 3.875 20.123 4.655 19.005 5.149V4.317H17.835C18.108 3.797 18.368 3.199 18.55 2.705L17.64 2.133L17.432 2.198H16.015C16.119 1.899 16.21 1.587 16.288 1.288L14.91 0.988999C14.559 2.523 13.87 4.031 12.986 4.98C13.259 5.162 13.727 5.552 14 5.812V7.749C14 9.205 13.935 11.129 13.064 12.468C13.35 12.611 13.922 12.975 14.156 13.17C14.702 12.338 14.988 11.233 15.131 10.128H15.989V12.325H17.003V11.857C17.146 12.208 17.263 12.65 17.302 12.962C17.874 12.962 18.277 12.936 18.602 12.702C18.927 12.481 19.005 12.104 19.005 11.545V8.867C19.317 9.01 19.837 9.27 20.084 9.439C20.266 9.153 20.448 8.815 20.617 8.438H21.839V9.608H19.382V10.934H21.839V13.118H23.308V10.934H25.245V9.608ZM29.248 4.265C28.819 3.498 27.87 2.328 27.142 1.496L25.92 2.237C26.635 3.134 27.545 4.356 27.909 5.11L29.248 4.265ZM27.961 7.32C27.272 8.893 26.388 10.583 25.751 11.61L27.09 12.546C27.805 11.233 28.533 9.686 29.144 8.256L27.961 7.32ZM34.032 4.369H35.41V6.787H33.98C34.019 6.345 34.032 5.929 34.032 5.5V4.369ZM37.971 8.269V6.787H36.892V2.913H34.032V0.975999H32.394V2.913H30.054V4.369H32.394V5.487C32.394 5.916 32.381 6.345 32.355 6.787H29.469V8.269H32.082C31.692 9.647 30.756 10.973 28.663 11.909C29.04 12.208 29.573 12.806 29.794 13.157C31.848 12.065 32.94 10.596 33.486 9.049C34.214 10.947 35.319 12.338 37.126 13.092C37.347 12.676 37.802 12.039 38.153 11.727C36.463 11.142 35.371 9.894 34.747 8.269H37.971Z" fill="#FDFDFE"/>
</svg>
