<svg width="66" height="22" viewBox="0 0 66 22" fill="none" xmlns="http://www.w3.org/2000/svg">
<g opacity="0.9">
<path d="M25.602 15.675C24.198 15.675 23.912 15.493 23.912 14.674V11.242H30.698V11.879H31.686V5.938H22.248V6.887H30.698V10.293H23.912V8.161H22.937V14.661C22.937 16.26 23.587 16.624 25.667 16.624H30.529C32.648 16.624 33.077 15.922 33.324 13.543C33.038 13.491 32.609 13.335 32.349 13.153C32.167 15.246 31.959 15.675 30.542 15.675H25.602ZM36.209 10.007C37.301 8.837 38.289 7.316 38.952 5.665L37.925 5.379C37.171 7.355 35.858 9.149 34.311 10.267C34.558 10.449 34.961 10.813 35.143 11.008C35.481 10.722 35.832 10.41 36.157 10.059V10.956H38.653C38.354 13.14 37.639 15.194 34.584 16.221C34.792 16.403 35.078 16.793 35.195 17.04C38.458 15.844 39.316 13.517 39.667 10.956H43.19C43.034 14.18 42.852 15.454 42.527 15.779C42.384 15.909 42.241 15.948 41.968 15.948C41.656 15.948 40.876 15.935 40.031 15.857C40.213 16.13 40.33 16.533 40.343 16.819C41.149 16.871 41.955 16.884 42.384 16.845C42.839 16.819 43.112 16.715 43.398 16.39C43.84 15.896 44.009 14.414 44.191 10.475C44.204 10.345 44.217 10.007 44.217 10.007H36.209ZM41.552 5.717C42.462 7.628 44.009 9.708 45.361 10.891C45.543 10.631 45.881 10.267 46.141 10.072C44.789 9.058 43.229 7.108 42.423 5.353L41.552 5.717ZM57.554 7.147C57.19 6.679 56.436 5.873 55.877 5.301L55.136 5.769C55.695 6.367 56.423 7.186 56.774 7.68L57.554 7.147ZM56.033 11.307C55.565 12.36 54.876 13.257 54.044 13.985C53.16 13.244 52.458 12.334 51.964 11.307H56.033ZM56.683 10.319L56.501 10.371H52.146C52.302 9.929 52.458 9.461 52.601 8.993H58.451L58.464 8.057H52.861C53.069 7.173 53.238 6.237 53.381 5.236L52.302 5.08C52.185 6.133 52.003 7.121 51.756 8.057H49.416C49.754 7.381 50.131 6.51 50.352 5.678L49.338 5.483C49.104 6.471 48.623 7.524 48.467 7.784C48.324 8.07 48.181 8.252 47.999 8.304C48.103 8.525 48.259 9.006 48.324 9.214C48.441 9.071 48.883 8.993 49.702 8.993H51.509C50.651 11.684 49.221 13.803 46.855 15.246C47.089 15.415 47.427 15.766 47.57 15.987C49.247 14.947 50.469 13.621 51.366 12.022C51.886 12.997 52.536 13.842 53.303 14.557C52.198 15.337 50.898 15.883 49.559 16.195C49.728 16.403 49.962 16.78 50.066 17.027C51.509 16.637 52.874 16.039 54.07 15.181C55.227 16.052 56.644 16.676 58.295 17.04C58.425 16.767 58.685 16.377 58.893 16.182C57.307 15.883 55.942 15.337 54.811 14.57C55.929 13.569 56.8 12.282 57.333 10.644L56.683 10.319Z" fill="#363C54"/>
<ellipse cx="11" cy="10.9999" rx="6" ry="6.00001" fill="#363C54"/>
</g>
<path d="M11 15.1666C13.3012 15.1666 15.1666 13.3012 15.1666 11C15.1666 8.69879 13.3012 6.83331 11 6.83331C8.69879 6.83331 6.83331 8.69879 6.83331 11C6.83331 13.3012 8.69879 15.1666 11 15.1666Z" stroke="white" stroke-linecap="round" stroke-linejoin="round"/>
<path d="M11 8.5V11L12.6667 11.8333" stroke="white" stroke-linecap="round" stroke-linejoin="round"/>
</svg>
