<svg width="65" height="20" viewBox="0 0 65 20" fill="none" xmlns="http://www.w3.org/2000/svg">
<g opacity="0.9">
<path d="M21.885 7.148V13.674C21.885 15.299 22.548 15.676 24.667 15.676C25.148 15.676 29.022 15.676 29.555 15.676C31.7 15.676 32.116 14.974 32.376 12.569C32.077 12.517 31.648 12.348 31.375 12.166C31.206 14.272 30.985 14.714 29.555 14.714C28.684 14.714 25.291 14.714 24.602 14.714C23.172 14.714 22.886 14.519 22.886 13.7V7.148H21.885ZM22.431 9.28V10.255H30.101V9.28H22.431ZM21.209 4.899V5.861H29.711V10.892H30.712V4.899H21.209ZM34.494 7.382V8.149H38.251V7.382H34.494ZM34.481 9.722V10.463H38.238V9.722H34.481ZM34.468 12.179V12.946H38.238V12.179H34.468ZM40.266 10.242V11.087H44.842V10.242H40.266ZM35.17 5.25V6.017H37.497V5.25H35.17ZM39.317 4.743V5.575H44.231V4.743H39.317ZM39.33 12.673V13.544H45.18V12.673H39.33ZM41.969 8.994V16.027H42.905V8.994H41.969ZM36.106 7.759V15.351H36.808V7.759H36.106ZM43.932 4.743V4.873C43.841 6.914 43.737 7.668 43.568 7.863C43.49 7.967 43.373 7.993 43.191 7.98C43.009 7.98 42.528 7.98 42.021 7.928C42.151 8.149 42.229 8.487 42.242 8.747C42.788 8.773 43.334 8.773 43.594 8.747C43.932 8.721 44.127 8.643 44.309 8.422C44.582 8.123 44.712 7.278 44.803 5.107C44.816 4.99 44.816 4.743 44.816 4.743H43.932ZM40.305 9.02C40.071 10.125 39.681 11.217 39.109 11.945C39.33 12.036 39.694 12.231 39.863 12.348C40.409 11.568 40.877 10.385 41.124 9.189L40.305 9.02ZM35.144 4.08C34.754 5.679 34.026 7.226 33.103 8.227C33.311 8.357 33.688 8.643 33.831 8.799C34.767 7.707 35.547 6.03 36.028 4.262L35.144 4.08ZM34.117 7.382V10.84C34.117 12.309 34.026 14.246 33.142 15.624C33.337 15.715 33.714 15.936 33.857 16.079C34.793 14.636 34.936 12.439 34.936 10.853V7.382H34.117ZM37.991 7.382V14.922C37.991 15.065 37.939 15.104 37.809 15.104C37.692 15.104 37.315 15.104 36.86 15.091C36.99 15.325 37.094 15.702 37.12 15.936C37.783 15.936 38.186 15.923 38.446 15.767C38.732 15.611 38.81 15.351 38.81 14.935V7.382H37.991ZM41.176 5.016C41.02 6.459 40.578 7.759 39.031 8.448C39.226 8.591 39.473 8.903 39.59 9.111C41.332 8.292 41.865 6.797 42.073 5.016H41.176ZM37.341 5.25V5.406C37.159 6.056 36.782 6.992 36.444 7.577C36.639 7.668 36.938 7.837 37.107 7.967C37.497 7.356 37.978 6.394 38.277 5.575L37.679 5.198L37.536 5.25H37.341ZM46.05 5.068C46.804 5.887 47.675 7.018 48.065 7.733L48.884 7.174C48.481 6.472 47.558 5.38 46.817 4.6L46.05 5.068ZM45.881 14.857L46.726 15.455C47.441 14.207 48.26 12.556 48.871 11.152L48.143 10.554C47.467 12.075 46.531 13.817 45.881 14.857ZM50.054 6.134V7.07H55.657V10.515H56.593V6.134H50.054ZM49.378 10.073V11.022H57.893V10.073H49.378ZM54.006 10.372L53.135 10.554C53.785 13.206 55.085 15.117 57.321 16.027C57.464 15.767 57.75 15.377 57.971 15.182C55.852 14.454 54.578 12.686 54.006 10.372ZM52.654 4.106V8.435C52.654 10.71 52.511 13.544 48.637 15.299C48.871 15.481 49.196 15.858 49.339 16.079C53.291 14.103 53.668 10.996 53.668 8.435V4.106H52.654Z" fill="#363C54"/>
<path d="M15.5 9.99995C15.5 13.0375 13.0376 15.5 10 15.5C6.96243 15.5 4.5 13.0375 4.5 9.99995C4.5 6.96238 6.96243 4.49994 10 4.49994C13.0376 4.49994 15.5 6.96238 15.5 9.99995Z" fill="#363C54" stroke="#363C54"/>
<path d="M13.3334 7.49994L8.75008 12.0833L6.66675 9.99994" stroke="white" stroke-linecap="round" stroke-linejoin="round"/>
</g>
</svg>
