<svg width="38" height="14" viewBox="0 0 38 14" fill="none" xmlns="http://www.w3.org/2000/svg">
<path d="M3.992 11.233C2.562 11.233 2.328 11.116 2.328 10.31V7.541H8.23V8.152H9.842V1.717H0.209V3.251H8.23V6.02H2.328V4.252H0.729V10.31C0.729 12.273 1.496 12.767 4.005 12.767H8.308C10.674 12.767 11.246 12.052 11.545 9.608C11.09 9.517 10.388 9.257 9.985 9.01C9.79 10.895 9.582 11.233 8.243 11.233H3.992ZM18.005 5.305C18.291 5.552 18.577 5.981 18.707 6.28C18.798 6.241 18.889 6.189 18.98 6.15C18.798 7.125 18.473 8.113 18.005 8.802V5.305ZM16.003 10.128H16.744V11.519C16.744 11.649 16.705 11.688 16.588 11.688C16.51 11.688 16.276 11.688 16.003 11.675V10.128ZM14.235 8.997C14.261 8.555 14.274 8.139 14.274 7.749V7.671H14.989V8.997H14.235ZM15.86 3.368C15.743 3.706 15.613 4.031 15.496 4.317H14.118C14.274 4.005 14.43 3.706 14.573 3.368H15.86ZM14.274 5.448H14.989V6.566H14.274V5.448ZM16.744 7.671V8.997H16.003V7.671H16.744ZM16.003 6.566V5.448H16.744V6.566H16.003ZM24.245 9.608H22.308V8.438H23.972V7.138H22.308V6.098H20.839V7.138H20.059C20.137 6.865 20.202 6.579 20.241 6.306L19.097 6.085C20.397 5.344 20.891 4.265 21.099 2.913H22.542C22.49 3.992 22.425 4.434 22.308 4.577C22.217 4.694 22.113 4.72 21.944 4.72C21.788 4.72 21.437 4.707 21.021 4.668C21.216 5.006 21.346 5.513 21.372 5.916C21.905 5.929 22.399 5.916 22.685 5.877C23.023 5.825 23.257 5.721 23.478 5.448C23.751 5.123 23.868 4.213 23.933 2.146C23.946 1.977 23.959 1.652 23.959 1.652H18.252V2.913H19.708C19.526 3.875 19.123 4.655 18.005 5.149V4.317H16.835C17.108 3.797 17.368 3.199 17.55 2.705L16.64 2.133L16.432 2.198H15.015C15.119 1.899 15.21 1.587 15.288 1.288L13.91 0.988999C13.559 2.523 12.87 4.031 11.986 4.98C12.259 5.162 12.727 5.552 13 5.812V7.749C13 9.205 12.935 11.129 12.064 12.468C12.35 12.611 12.922 12.975 13.156 13.17C13.702 12.338 13.988 11.233 14.131 10.128H14.989V12.325H16.003V11.857C16.146 12.208 16.263 12.65 16.302 12.962C16.874 12.962 17.277 12.936 17.602 12.702C17.927 12.481 18.005 12.104 18.005 11.545V8.867C18.317 9.01 18.837 9.27 19.084 9.439C19.266 9.153 19.448 8.815 19.617 8.438H20.839V9.608H18.382V10.934H20.839V13.118H22.308V10.934H24.245V9.608ZM28.248 4.265C27.819 3.498 26.87 2.328 26.142 1.496L24.92 2.237C25.635 3.134 26.545 4.356 26.909 5.11L28.248 4.265ZM26.961 7.32C26.272 8.893 25.388 10.583 24.751 11.61L26.09 12.546C26.805 11.233 27.533 9.686 28.144 8.256L26.961 7.32ZM33.032 4.369H34.41V6.787H32.98C33.019 6.345 33.032 5.929 33.032 5.5V4.369ZM36.971 8.269V6.787H35.892V2.913H33.032V0.975999H31.394V2.913H29.054V4.369H31.394V5.487C31.394 5.916 31.381 6.345 31.355 6.787H28.469V8.269H31.082C30.692 9.647 29.756 10.973 27.663 11.909C28.04 12.208 28.573 12.806 28.794 13.157C30.848 12.065 31.94 10.596 32.486 9.049C33.214 10.947 34.319 12.338 36.126 13.092C36.347 12.676 36.802 12.039 37.153 11.727C35.463 11.142 34.371 9.894 33.747 8.269H36.971Z" fill="#FDFDFE"/>
</svg>
