<svg width="75" height="17" viewBox="0 0 75 17" fill="none" xmlns="http://www.w3.org/2000/svg">
<rect y="1" width="75" height="16" rx="8" fill="#363C54"/>
<path d="M15.752 8.93V7.885H11.407C11.44 7.522 11.451 7.159 11.451 6.829V5.619H15.301V4.563H6.666V5.619H10.384V6.818C10.384 7.148 10.373 7.511 10.329 7.885H6.27V8.93H10.131C9.713 10.404 8.635 11.933 5.951 12.967C6.182 13.165 6.49 13.583 6.622 13.836C9.251 12.802 10.472 11.295 11.022 9.755C11.913 11.735 13.321 13.121 15.433 13.825C15.576 13.528 15.895 13.099 16.126 12.879C13.948 12.285 12.496 10.855 11.726 8.93H15.752ZM21.161 5.399H19.291C19.423 4.926 19.555 4.442 19.665 3.947L18.642 3.76C18.257 5.652 17.597 7.456 16.607 8.578C16.849 8.732 17.289 9.051 17.476 9.227C18.059 8.479 18.565 7.489 18.972 6.367H20.864C20.688 7.423 20.424 8.336 20.094 9.15C19.654 8.787 19.082 8.38 18.642 8.083L18.026 8.776C18.543 9.15 19.192 9.645 19.643 10.063C18.895 11.383 17.872 12.307 16.607 12.912C16.882 13.088 17.3 13.506 17.465 13.759C19.852 12.516 21.524 9.909 22.085 5.586L21.359 5.366L21.161 5.399ZM23.878 7.335V3.771H22.8V13.858H23.878V8.05C24.659 8.776 25.528 9.645 25.968 10.239L26.837 9.535C26.276 8.842 25.11 7.797 24.252 7.06L23.878 7.335ZM37.152 8.93V7.885H32.807C32.84 7.522 32.851 7.159 32.851 6.829V5.619H36.701V4.563H28.066V5.619H31.784V6.818C31.784 7.148 31.773 7.511 31.729 7.885H27.67V8.93H31.531C31.113 10.404 30.035 11.933 27.351 12.967C27.582 13.165 27.89 13.583 28.022 13.836C30.651 12.802 31.872 11.295 32.422 9.755C33.313 11.735 34.721 13.121 36.833 13.825C36.976 13.528 37.295 13.099 37.526 12.879C35.348 12.285 33.896 10.855 33.126 8.93H37.152ZM43.1 7.544C42.396 7.544 41.824 8.116 41.824 8.82C41.824 9.524 42.396 10.096 43.1 10.096C43.804 10.096 44.376 9.524 44.376 8.82C44.376 8.116 43.804 7.544 43.1 7.544ZM56.418 11.24V12.483H51.523V11.24H56.418ZM56.055 7.412V8.567H51.523V7.412H56.055ZM51.523 9.447H57.078V6.532H50.478V13.847H51.523V13.385H56.418V13.792H57.463V10.338H51.523V9.447ZM54.614 4.761C54.515 4.442 54.339 4.024 54.174 3.716L53.129 3.947C53.261 4.189 53.371 4.486 53.448 4.761H49.114V6.774H50.137V5.718H57.397V6.774H58.475V4.761H54.614ZM69.307 6.598V5.597H64.786L65.523 5.278C65.369 4.838 65.028 4.178 64.742 3.683L63.741 4.057C63.994 4.53 64.291 5.157 64.434 5.597H59.726V6.598H62.608C62.498 9.018 62.245 11.68 59.517 13.077C59.792 13.286 60.111 13.638 60.265 13.913C62.3 12.813 63.103 11.042 63.455 9.15H67.162C66.986 11.394 66.788 12.406 66.48 12.67C66.337 12.78 66.194 12.802 65.952 12.802C65.644 12.802 64.896 12.791 64.115 12.725C64.324 13.011 64.467 13.429 64.478 13.726C65.215 13.77 65.93 13.781 66.337 13.748C66.799 13.704 67.085 13.616 67.382 13.308C67.822 12.868 68.031 11.658 68.24 8.622C68.273 8.479 68.284 8.16 68.284 8.16H63.609C63.675 7.643 63.708 7.115 63.741 6.598H69.307Z" fill="#FDFDFE"/>
</svg>
