<svg width="55" height="19" viewBox="0 0 55 19" fill="none" xmlns="http://www.w3.org/2000/svg">
<path d="M22.149 3.457H22.851V5.316H27.414V6.018H22.851V8.527H28.103V9.229H23.605C24.4717 10.9277 26.0273 12.4573 28.272 13.818L27.765 14.455C25.4857 12.9037 23.904 11.1617 23.02 9.229H22.851V15.235H22.149V9.229H21.98C21.0353 11.3697 19.4103 13.129 17.105 14.507L16.702 13.844C18.8947 12.6393 20.4633 11.101 21.408 9.229H16.897V8.527H22.149V6.018H17.677V5.316H22.149V3.457ZM34.173 4.029C33.5577 5.15567 32.9423 6.06567 32.327 6.759C31.6077 7.55633 30.7323 8.306 29.701 9.008L29.298 8.384C30.234 7.84667 31.066 7.15333 31.794 6.304C32.4787 5.524 33.0723 4.64433 33.575 3.665L34.173 4.029ZM31.157 9.32V8.657H38.918C38.8833 10.243 38.8053 11.53 38.684 12.518C38.554 13.4887 38.346 14.169 38.06 14.559C37.774 14.9403 37.3103 15.144 36.669 15.17H34.238L34.056 14.494C35.1307 14.5113 35.889 14.52 36.331 14.52C37.0503 14.52 37.527 14.2037 37.761 13.571C37.9863 12.921 38.138 11.504 38.216 9.32H34.511C34.199 10.8107 33.7657 11.9807 33.211 12.83C32.5783 13.7227 31.625 14.533 30.351 15.261L29.909 14.702C31.0703 14.0607 31.9543 13.3413 32.561 12.544C33.133 11.738 33.549 10.6633 33.809 9.32H31.157ZM37.02 3.522C37.7827 5.53267 39.139 7.123 41.089 8.293L40.608 8.839C38.606 7.565 37.2107 5.90533 36.422 3.86L37.02 3.522ZM43.038 7.253L44.065 3.795L44.767 3.899L43.948 6.59H46.496C46.7733 5.54133 46.9943 4.44067 47.159 3.288L47.874 3.366C47.6747 4.60533 47.458 5.68 47.224 6.59H53.399V7.253H47.042C46.8427 7.92033 46.652 8.488 46.47 8.956H51.865V9.567C51.501 10.7197 50.747 11.7727 49.603 12.726C50.7037 13.4193 52.0513 14.0433 53.646 14.598L53.295 15.248C51.5443 14.6067 50.123 13.9133 49.031 13.168C47.9563 13.9393 46.5913 14.6457 44.936 15.287L44.572 14.637C46.1147 14.0737 47.4017 13.441 48.433 12.739C47.2977 11.8723 46.509 10.932 46.067 9.918C45.0963 12.076 43.8527 13.779 42.336 15.027L41.972 14.377C43.9653 12.6437 45.4127 10.269 46.314 7.253H43.038ZM46.626 9.606C47.068 10.6027 47.861 11.5083 49.005 12.323C50.0537 11.491 50.7687 10.5853 51.15 9.606H46.626ZM50.058 3.47C51.02 4.21533 51.8087 4.94767 52.424 5.667L51.917 6.174C51.3363 5.446 50.5563 4.69633 49.577 3.925L50.058 3.47Z" fill="#2C7EDF"/>
<ellipse cx="6" cy="10" rx="6" ry="6.00001" fill="#2C7EDF"/>
<path d="M6 13.3333H6.01016" stroke="white" stroke-width="1.5" stroke-linecap="round" stroke-linejoin="round"/>
<path d="M6 6.6665V10.6665" stroke="white" stroke-width="1.5" stroke-linecap="round" stroke-linejoin="round"/>
</svg>
