<svg width="15" height="16" viewBox="0 0 15 16" fill="none" xmlns="http://www.w3.org/2000/svg">
<path d="M4.7579 1.38564C5.63223 0.880846 6.06939 0.628449 6.53416 0.529659C6.94539 0.442249 7.3704 0.442249 7.78163 0.529659C8.2464 0.628449 8.68356 0.880846 9.55789 1.38564L10.9568 2.19331C11.8311 2.6981 12.2683 2.9505 12.5862 3.30361C12.8676 3.61604 13.0801 3.98411 13.21 4.38395C13.3568 4.83584 13.3568 5.34064 13.3568 6.35023V7.96556C13.3568 8.97515 13.3568 9.47994 13.21 9.93184C13.0801 10.3317 12.8676 10.6998 12.5862 11.0122C12.2683 11.3653 11.8311 11.6177 10.9568 12.1225L9.55789 12.9301C8.68356 13.4349 8.2464 13.6873 7.78163 13.7861C7.3704 13.8735 6.94539 13.8735 6.53416 13.7861C6.06939 13.6873 5.63222 13.4349 4.75789 12.9301L3.35897 12.1225C2.48465 11.6177 2.04748 11.3653 1.72954 11.0122C1.44823 10.6998 1.23572 10.3317 1.10581 9.93184C0.958976 9.47994 0.958976 8.97515 0.958976 7.96556V6.35023C0.958976 5.34064 0.958976 4.83584 1.10581 4.38395C1.23572 3.98411 1.44823 3.61604 1.72954 3.30361C2.04748 2.9505 2.48465 2.6981 3.35898 2.19331L4.7579 1.38564Z" fill="#00A0E9"/>
<path d="M6.35795 2.98825C6.64939 2.81998 6.79511 2.73585 6.95003 2.70292C7.08711 2.67378 7.22878 2.67378 7.36586 2.70292C7.52078 2.73585 7.6665 2.81998 7.95795 2.98825L10.369 4.38028C10.6605 4.54854 10.8062 4.63267 10.9122 4.75038C11.0059 4.85452 11.0768 4.97721 11.1201 5.11049C11.169 5.26112 11.169 5.42939 11.169 5.76592V8.54997C11.169 8.88651 11.169 9.05477 11.1201 9.2054C11.0768 9.33868 11.0059 9.46137 10.9122 9.56552C10.8062 9.68322 10.6605 9.76735 10.369 9.93562L7.95795 11.3276C7.6665 11.4959 7.52078 11.58 7.36586 11.613C7.22878 11.6421 7.08711 11.6421 6.95003 11.613C6.79511 11.58 6.64939 11.4959 6.35795 11.3276L3.94688 9.93562C3.65544 9.76735 3.50972 9.68322 3.40374 9.56552C3.30997 9.46137 3.23913 9.33868 3.19582 9.2054C3.14688 9.05477 3.14688 8.88651 3.14688 8.54998V5.76592C3.14688 5.42939 3.14688 5.26112 3.19582 5.11049C3.23913 4.97721 3.30997 4.85452 3.40374 4.75038C3.50972 4.63267 3.65544 4.54854 3.94688 4.38028L6.35795 2.98825Z" fill="#00A0E9"/>
<path d="M6.35764 8.88302C6.64908 8.71476 6.7948 8.63063 6.94973 8.5977C7.0868 8.56856 7.22847 8.56856 7.36555 8.5977C7.52047 8.63063 7.66619 8.71476 7.95764 8.88302L9.63942 9.854C9.93086 10.0223 10.0766 10.1064 10.1826 10.2241C10.2763 10.3282 10.3472 10.4509 10.3905 10.5842C10.4394 10.7348 10.4394 10.9031 10.4394 11.2396V13.1816C10.4394 13.5181 10.4394 13.6864 10.3905 13.837C10.3472 13.9703 10.2763 14.093 10.1826 14.1971C10.0766 14.3148 9.93086 14.399 9.63942 14.5672L7.95764 15.5382C7.66619 15.7065 7.52047 15.7906 7.36555 15.8235C7.22847 15.8527 7.0868 15.8527 6.94973 15.8235C6.7948 15.7906 6.64908 15.7065 6.35764 15.5382L4.67586 14.5672C4.38441 14.399 4.23869 14.3148 4.13271 14.1971C4.03894 14.093 3.96811 13.9703 3.9248 13.837C3.87586 13.6864 3.87586 13.5181 3.87586 13.1816V11.2396C3.87586 10.9031 3.87586 10.7348 3.9248 10.5842C3.96811 10.4509 4.03894 10.3282 4.13271 10.2241C4.23869 10.1064 4.38441 10.0223 4.67586 9.854L6.35764 8.88302Z" fill="#00A0E9"/>
<mask id="mask0_1633_12870" style="mask-type:alpha" maskUnits="userSpaceOnUse" x="3" y="8" width="8" height="8">
<path d="M6.35764 8.88302C6.64908 8.71476 6.7948 8.63063 6.94973 8.5977C7.0868 8.56856 7.22847 8.56856 7.36555 8.5977C7.52047 8.63063 7.66619 8.71476 7.95764 8.88302L9.63942 9.854C9.93086 10.0223 10.0766 10.1064 10.1826 10.2241C10.2763 10.3282 10.3472 10.4509 10.3905 10.5842C10.4394 10.7348 10.4394 10.9031 10.4394 11.2396V13.1816C10.4394 13.5181 10.4394 13.6864 10.3905 13.837C10.3472 13.9703 10.2763 14.093 10.1826 14.1971C10.0766 14.3148 9.93086 14.399 9.63942 14.5672L7.95764 15.5382C7.66619 15.7065 7.52047 15.7906 7.36555 15.8235C7.22847 15.8527 7.0868 15.8527 6.94973 15.8235C6.7948 15.7906 6.64908 15.7065 6.35764 15.5382L4.67586 14.5672C4.38441 14.399 4.23869 14.3148 4.13271 14.1971C4.03894 14.093 3.96811 13.9703 3.9248 13.837C3.87586 13.6864 3.87586 13.5181 3.87586 13.1816V11.2396C3.87586 10.9031 3.87586 10.7348 3.9248 10.5842C3.96811 10.4509 4.03894 10.3282 4.13271 10.2241C4.23869 10.1064 4.38441 10.0223 4.67586 9.854L6.35764 8.88302Z" fill="#1378D5"/>
</mask>
<g mask="url(#mask0_1633_12870)">
<g filter="url(#filter0_d_1633_12870)">
<path d="M4.7579 1.38564C5.63223 0.880846 6.06939 0.628449 6.53416 0.529659C6.94539 0.442249 7.3704 0.442249 7.78163 0.529659C8.2464 0.628449 8.68356 0.880846 9.55789 1.38564L10.9568 2.19331C11.8311 2.6981 12.2683 2.9505 12.5862 3.30361C12.8676 3.61604 13.0801 3.98411 13.21 4.38395C13.3568 4.83584 13.3568 5.34064 13.3568 6.35023V7.96556C13.3568 8.97515 13.3568 9.47994 13.21 9.93184C13.0801 10.3317 12.8676 10.6998 12.5862 11.0122C12.2683 11.3653 11.8311 11.6177 10.9568 12.1225L9.55789 12.9301C8.68356 13.4349 8.2464 13.6873 7.78163 13.7861C7.3704 13.8735 6.94539 13.8735 6.53416 13.7861C6.06939 13.6873 5.63222 13.4349 4.75789 12.9301L3.35897 12.1225C2.48465 11.6177 2.04748 11.3653 1.72954 11.0122C1.44823 10.6998 1.23572 10.3317 1.10581 9.93184C0.958976 9.47994 0.958976 8.97515 0.958976 7.96556V6.35023C0.958976 5.34064 0.958976 4.83584 1.10581 4.38395C1.23572 3.98411 1.44823 3.61604 1.72954 3.30361C2.04748 2.9505 2.48465 2.6981 3.35898 2.19331L4.7579 1.38564Z" fill="#00A0E9"/>
</g>
</g>
<path d="M12.2555 10.0808L12.1713 10.0282C11.7718 9.7785 11.572 9.65366 11.4072 9.66692C11.2635 9.67847 11.1318 9.75146 11.0459 9.86718C10.9473 9.99994 10.9473 10.2355 10.9473 10.7066V12.0303C10.9473 12.5014 10.9473 12.737 11.0459 12.8697C11.1318 12.9854 11.2635 13.0584 11.4072 13.07C11.572 13.0832 11.7718 12.9584 12.1713 12.7087L12.2555 12.6561L12.2555 12.6561C12.3927 12.5703 12.4614 12.5274 12.5111 12.4693C12.5552 12.4179 12.5884 12.3581 12.6086 12.2935C12.6315 12.2205 12.6315 12.1395 12.6315 11.9777V10.7592C12.6315 10.5974 12.6315 10.5164 12.6086 10.4434C12.5884 10.3788 12.5552 10.319 12.5111 10.2676C12.4614 10.2095 12.3927 10.1666 12.2555 10.0808Z" fill="#00A0E9"/>
<mask id="mask1_1633_12870" style="mask-type:alpha" maskUnits="userSpaceOnUse" x="10" y="9" width="3" height="5">
<path d="M12.2555 10.0808L12.1713 10.0282C11.7718 9.7785 11.572 9.65366 11.4072 9.66692C11.2635 9.67847 11.1318 9.75146 11.0459 9.86718C10.9473 9.99994 10.9473 10.2355 10.9473 10.7066V12.0303C10.9473 12.5014 10.9473 12.737 11.0459 12.8697C11.1318 12.9854 11.2635 13.0584 11.4072 13.07C11.572 13.0832 11.7718 12.9584 12.1713 12.7087L12.2555 12.6561L12.2555 12.6561C12.3927 12.5703 12.4614 12.5274 12.5111 12.4693C12.5552 12.4179 12.5884 12.3581 12.6086 12.2935C12.6315 12.2205 12.6315 12.1395 12.6315 11.9777V10.7592C12.6315 10.5974 12.6315 10.5164 12.6086 10.4434C12.5884 10.3788 12.5552 10.319 12.5111 10.2676C12.4614 10.2095 12.3927 10.1666 12.2555 10.0808Z" fill="#00A0E9"/>
</mask>
<g mask="url(#mask1_1633_12870)">
<g filter="url(#filter1_d_1633_12870)">
<path d="M4.7579 1.38564C5.63223 0.880846 6.06939 0.628449 6.53416 0.529659C6.94539 0.442249 7.3704 0.442249 7.78163 0.529659C8.2464 0.628449 8.68356 0.880846 9.55789 1.38564L10.9568 2.19331C11.8311 2.6981 12.2683 2.9505 12.5862 3.30361C12.8676 3.61604 13.0801 3.98411 13.21 4.38395C13.3568 4.83584 13.3568 5.34064 13.3568 6.35023V7.96556C13.3568 8.97515 13.3568 9.47994 13.21 9.93184C13.0801 10.3317 12.8676 10.6998 12.5862 11.0122C12.2683 11.3653 11.8311 11.6177 10.9568 12.1225L9.55789 12.9301C8.68356 13.4349 8.2464 13.6873 7.78163 13.7861C7.3704 13.8735 6.94539 13.8735 6.53416 13.7861C6.06939 13.6873 5.63222 13.4349 4.75789 12.9301L3.35897 12.1225C2.48465 11.6177 2.04748 11.3653 1.72954 11.0122C1.44823 10.6998 1.23572 10.3317 1.10581 9.93184C0.958976 9.47994 0.958976 8.97515 0.958976 7.96556V6.35023C0.958976 5.34064 0.958976 4.83584 1.10581 4.38395C1.23572 3.98411 1.44823 3.61604 1.72954 3.30361C2.04748 2.9505 2.48465 2.6981 3.35898 2.19331L4.7579 1.38564Z" fill="#00A0E9"/>
</g>
</g>
<path d="M2.06093 10.0808L2.14514 10.0282C2.54463 9.7785 2.74437 9.65366 2.90921 9.66692C3.05289 9.67847 3.18459 9.75146 3.27054 9.86718C3.36914 9.99994 3.36914 10.2355 3.36914 10.7066V12.0303C3.36914 12.5014 3.36914 12.737 3.27054 12.8697C3.18459 12.9854 3.05289 13.0584 2.90921 13.07C2.74437 13.0832 2.54463 12.9584 2.14514 12.7087L2.06093 12.6561L2.06093 12.6561C1.92368 12.5703 1.85506 12.5274 1.80527 12.4693C1.76121 12.4179 1.72805 12.3581 1.70781 12.2935C1.68493 12.2205 1.68493 12.1395 1.68493 11.9777V10.7592C1.68493 10.5974 1.68493 10.5164 1.70781 10.4434C1.72805 10.3788 1.76121 10.319 1.80527 10.2676C1.85506 10.2095 1.92368 10.1666 2.06093 10.0808Z" fill="#00A0E9"/>
<mask id="mask2_1633_12870" style="mask-type:alpha" maskUnits="userSpaceOnUse" x="1" y="9" width="3" height="5">
<path d="M2.06093 10.0808L2.14514 10.0282C2.54463 9.7785 2.74437 9.65366 2.90921 9.66692C3.05289 9.67847 3.18459 9.75146 3.27054 9.86718C3.36914 9.99994 3.36914 10.2355 3.36914 10.7066V12.0303C3.36914 12.5014 3.36914 12.737 3.27054 12.8697C3.18459 12.9854 3.05289 13.0584 2.90921 13.07C2.74437 13.0832 2.54463 12.9584 2.14514 12.7087L2.06093 12.6561L2.06093 12.6561C1.92368 12.5703 1.85506 12.5274 1.80527 12.4693C1.76121 12.4179 1.72805 12.3581 1.70781 12.2935C1.68493 12.2205 1.68493 12.1395 1.68493 11.9777V10.7592C1.68493 10.5974 1.68493 10.5164 1.70781 10.4434C1.72805 10.3788 1.76121 10.319 1.80527 10.2676C1.85506 10.2095 1.92368 10.1666 2.06093 10.0808Z" fill="#00A0E9"/>
</mask>
<g mask="url(#mask2_1633_12870)">
<g filter="url(#filter2_d_1633_12870)">
<path d="M4.7579 1.38564C5.63223 0.880846 6.06939 0.628449 6.53416 0.529659C6.94539 0.442249 7.3704 0.442249 7.78163 0.529659C8.2464 0.628449 8.68356 0.880846 9.55789 1.38564L10.9568 2.19331C11.8311 2.6981 12.2683 2.9505 12.5862 3.30361C12.8676 3.61604 13.0801 3.98411 13.21 4.38395C13.3568 4.83584 13.3568 5.34064 13.3568 6.35023V7.96556C13.3568 8.97515 13.3568 9.47994 13.21 9.93184C13.0801 10.3317 12.8676 10.6998 12.5862 11.0122C12.2683 11.3653 11.8311 11.6177 10.9568 12.1225L9.55789 12.9301C8.68356 13.4349 8.2464 13.6873 7.78163 13.7861C7.3704 13.8735 6.94539 13.8735 6.53416 13.7861C6.06939 13.6873 5.63222 13.4349 4.75789 12.9301L3.35897 12.1225C2.48465 11.6177 2.04748 11.3653 1.72954 11.0122C1.44823 10.6998 1.23572 10.3317 1.10581 9.93184C0.958976 9.47994 0.958976 8.97515 0.958976 7.96556V6.35023C0.958976 5.34064 0.958976 4.83584 1.10581 4.38395C1.23572 3.98411 1.44823 3.61604 1.72954 3.30361C2.04748 2.9505 2.48465 2.6981 3.35898 2.19331L4.7579 1.38564Z" fill="#00A0E9"/>
</g>
</g>
<g filter="url(#filter3_i_1633_12870)">
<path d="M5.55759 1.7658C6.14047 1.42927 6.43192 1.26101 6.74176 1.19515C7.01592 1.13687 7.29926 1.13687 7.57341 1.19515C7.88326 1.26101 8.1747 1.42927 8.75759 1.7658L11.0272 3.07618C11.6101 3.41271 11.9016 3.58097 12.1135 3.81638C12.3011 4.02466 12.4427 4.27004 12.5293 4.5366C12.6272 4.83787 12.6272 5.1744 12.6272 5.84746V8.46821C12.6272 9.14126 12.6272 9.47779 12.5293 9.77906C12.4427 10.0456 12.3011 10.291 12.1135 10.4993C11.9016 10.7347 11.6101 10.903 11.0272 11.2395L8.75759 12.5499C8.1747 12.8864 7.88326 13.0547 7.57341 13.1205C7.29926 13.1788 7.01592 13.1788 6.74176 13.1205C6.43192 13.0547 6.14047 12.8864 5.55759 12.5499L3.28795 11.2395C2.70507 10.903 2.41362 10.7347 2.20166 10.4993C2.01412 10.291 1.87245 10.0456 1.78584 9.77906C1.68795 9.47779 1.68795 9.14126 1.68795 8.4682V5.84746C1.68795 5.1744 1.68795 4.83787 1.78584 4.5366C1.87245 4.27004 2.01412 4.02466 2.20166 3.81638C2.41362 3.58097 2.70507 3.41271 3.28795 3.07618L5.55759 1.7658Z" fill="url(#paint0_linear_1633_12870)"/>
</g>
<path d="M4.4474 7.73068L6.6403 9.64382L10.0361 5.33025" stroke="#EBF7FF" stroke-width="1.5" stroke-linecap="round" stroke-linejoin="round"/>
<defs>
<filter id="filter0_d_1633_12870" x="-0.0410156" y="-0.0358887" width="14.3975" height="15.3877" filterUnits="userSpaceOnUse" color-interpolation-filters="sRGB">
<feFlood flood-opacity="0" result="BackgroundImageFix"/>
<feColorMatrix in="SourceAlpha" type="matrix" values="0 0 0 0 0 0 0 0 0 0 0 0 0 0 0 0 0 0 127 0" result="hardAlpha"/>
<feOffset dy="0.5"/>
<feGaussianBlur stdDeviation="0.5"/>
<feComposite in2="hardAlpha" operator="out"/>
<feColorMatrix type="matrix" values="0 0 0 0 0 0 0 0 0 0 0 0 0 0 0 0 0 0 0.2 0"/>
<feBlend mode="normal" in2="BackgroundImageFix" result="effect1_dropShadow_1633_12870"/>
<feBlend mode="normal" in="SourceGraphic" in2="effect1_dropShadow_1633_12870" result="shape"/>
</filter>
<filter id="filter1_d_1633_12870" x="-0.0410156" y="-0.0358887" width="14.3975" height="15.3877" filterUnits="userSpaceOnUse" color-interpolation-filters="sRGB">
<feFlood flood-opacity="0" result="BackgroundImageFix"/>
<feColorMatrix in="SourceAlpha" type="matrix" values="0 0 0 0 0 0 0 0 0 0 0 0 0 0 0 0 0 0 127 0" result="hardAlpha"/>
<feOffset dy="0.5"/>
<feGaussianBlur stdDeviation="0.5"/>
<feComposite in2="hardAlpha" operator="out"/>
<feColorMatrix type="matrix" values="0 0 0 0 0 0 0 0 0 0 0 0 0 0 0 0 0 0 0.2 0"/>
<feBlend mode="normal" in2="BackgroundImageFix" result="effect1_dropShadow_1633_12870"/>
<feBlend mode="normal" in="SourceGraphic" in2="effect1_dropShadow_1633_12870" result="shape"/>
</filter>
<filter id="filter2_d_1633_12870" x="-0.0410156" y="-0.0358887" width="14.3975" height="15.3877" filterUnits="userSpaceOnUse" color-interpolation-filters="sRGB">
<feFlood flood-opacity="0" result="BackgroundImageFix"/>
<feColorMatrix in="SourceAlpha" type="matrix" values="0 0 0 0 0 0 0 0 0 0 0 0 0 0 0 0 0 0 127 0" result="hardAlpha"/>
<feOffset dy="0.5"/>
<feGaussianBlur stdDeviation="0.5"/>
<feComposite in2="hardAlpha" operator="out"/>
<feColorMatrix type="matrix" values="0 0 0 0 0 0 0 0 0 0 0 0 0 0 0 0 0 0 0.2 0"/>
<feBlend mode="normal" in2="BackgroundImageFix" result="effect1_dropShadow_1633_12870"/>
<feBlend mode="normal" in="SourceGraphic" in2="effect1_dropShadow_1633_12870" result="shape"/>
</filter>
<filter id="filter3_i_1633_12870" x="1.6875" y="1.15137" width="10.9395" height="12.0129" filterUnits="userSpaceOnUse" color-interpolation-filters="sRGB">
<feFlood flood-opacity="0" result="BackgroundImageFix"/>
<feBlend mode="normal" in="SourceGraphic" in2="BackgroundImageFix" result="shape"/>
<feColorMatrix in="SourceAlpha" type="matrix" values="0 0 0 0 0 0 0 0 0 0 0 0 0 0 0 0 0 0 127 0" result="hardAlpha"/>
<feOffset/>
<feGaussianBlur stdDeviation="0.5"/>
<feComposite in2="hardAlpha" operator="arithmetic" k2="-1" k3="1"/>
<feColorMatrix type="matrix" values="0 0 0 0 0 0 0 0 0 0 0 0 0 0 0 0 0 0 0.3 0"/>
<feBlend mode="normal" in2="shape" result="effect1_innerShadow_1633_12870"/>
</filter>
<linearGradient id="paint0_linear_1633_12870" x1="-0.000308284" y1="2.52625" x2="13.4734" y2="13.4736" gradientUnits="userSpaceOnUse">
<stop offset="0.09375" stop-color="#00A0E9"/>
<stop offset="0.311082" stop-color="#20B8FD"/>
<stop offset="0.572917" stop-color="#00A0E9"/>
</linearGradient>
</defs>
</svg>
