<svg width="70" height="28" viewBox="0 0 70 28" fill="none" xmlns="http://www.w3.org/2000/svg">
<path d="M10.476 27.576C9.372 27.576 8.316 27.42 7.308 27.108C6.3 26.796 5.376 26.328 4.536 25.704C3.696 25.08 2.964 24.324 2.34 23.436C1.716 22.524 1.224 21.468 0.864 20.268L5.436 18.468C5.772 19.764 6.36 20.844 7.2 21.708C8.04 22.548 9.144 22.968 10.512 22.968C11.016 22.968 11.496 22.908 11.952 22.788C12.432 22.644 12.852 22.452 13.212 22.212C13.596 21.948 13.896 21.624 14.112 21.24C14.328 20.856 14.436 20.412 14.436 19.908C14.436 19.428 14.352 18.996 14.184 18.612C14.016 18.228 13.728 17.868 13.32 17.532C12.936 17.196 12.42 16.872 11.772 16.56C11.148 16.248 10.368 15.924 9.432 15.588L7.848 15.012C7.152 14.772 6.444 14.448 5.724 14.04C5.028 13.632 4.392 13.14 3.816 12.564C3.24 11.988 2.76 11.316 2.376 10.548C2.016 9.756 1.836 8.868 1.836 7.884C1.836 6.876 2.028 5.94 2.412 5.076C2.82 4.188 3.384 3.42 4.104 2.772C4.848 2.1 5.724 1.584 6.732 1.224C7.764 0.839998 8.904 0.647998 10.152 0.647998C11.448 0.647998 12.564 0.827999 13.5 1.188C14.46 1.524 15.264 1.968 15.912 2.52C16.584 3.048 17.124 3.636 17.532 4.284C17.94 4.932 18.24 5.544 18.432 6.12L14.148 7.92C13.908 7.2 13.464 6.552 12.816 5.976C12.192 5.4 11.328 5.112 10.224 5.112C9.168 5.112 8.292 5.364 7.596 5.868C6.9 6.348 6.552 6.984 6.552 7.776C6.552 8.544 6.888 9.204 7.56 9.756C8.232 10.284 9.3 10.8 10.764 11.304L12.384 11.844C13.416 12.204 14.352 12.624 15.192 13.104C16.056 13.56 16.788 14.112 17.388 14.76C18.012 15.408 18.48 16.152 18.792 16.992C19.128 17.808 19.296 18.756 19.296 19.836C19.296 21.18 19.02 22.344 18.468 23.328C17.94 24.288 17.256 25.08 16.416 25.704C15.576 26.328 14.628 26.796 13.572 27.108C12.516 27.42 11.484 27.576 10.476 27.576ZM34.3997 24.696H34.1117C33.5597 25.584 32.8157 26.292 31.8797 26.82C30.9437 27.324 29.8757 27.576 28.6757 27.576C26.4437 27.576 24.7757 26.892 23.6717 25.524C22.5917 24.156 22.0517 22.332 22.0517 20.052V9.36H26.7677V19.476C26.7677 20.748 27.0437 21.696 27.5957 22.32C28.1717 22.92 28.9997 23.22 30.0797 23.22C30.7277 23.22 31.2917 23.088 31.7717 22.824C32.2757 22.536 32.6957 22.164 33.0317 21.708C33.3917 21.228 33.6557 20.676 33.8237 20.052C34.0157 19.404 34.1117 18.72 34.1117 18V9.36H38.8277V27H34.3997V24.696ZM47.2956 11.664H47.5836C48.1356 10.776 48.8796 10.08 49.8156 9.576C50.7516 9.048 51.8196 8.784 53.0196 8.784C54.1236 8.784 55.0956 8.964 55.9356 9.324C56.7756 9.684 57.4596 10.2 57.9876 10.872C58.5396 11.52 58.9476 12.312 59.2116 13.248C59.4996 14.16 59.6436 15.18 59.6436 16.308V27H54.9276V16.884C54.9276 15.612 54.6396 14.676 54.0636 14.076C53.5116 13.452 52.6956 13.14 51.6156 13.14C50.9676 13.14 50.3916 13.284 49.8876 13.572C49.4076 13.836 48.9876 14.208 48.6276 14.688C48.2916 15.144 48.0276 15.696 47.8356 16.344C47.6676 16.968 47.5836 17.64 47.5836 18.36V27H42.8676V9.36H47.2956V11.664ZM66.3834 27.216C65.5194 27.216 64.7754 26.916 64.1514 26.316C63.5514 25.692 63.2514 24.948 63.2514 24.084C63.2514 23.22 63.5514 22.488 64.1514 21.888C64.7754 21.288 65.5194 20.988 66.3834 20.988C67.2474 20.988 67.9794 21.288 68.5794 21.888C69.1794 22.488 69.4794 23.22 69.4794 24.084C69.4794 24.948 69.1794 25.692 68.5794 26.316C67.9794 26.916 67.2474 27.216 66.3834 27.216Z" fill="#376EE8"/>
</svg>
