<svg width="78" height="27" viewBox="0 0 78 27" fill="none" xmlns="http://www.w3.org/2000/svg">
<path d="M0.592 0.223999H5.38L13.264 13.868H13.552L21.436 0.223999H26.26V26H21.436V13.292L21.724 8.972H21.436L14.884 20.528H11.968L5.38 8.972H5.092L5.38 13.292V26H0.592V0.223999ZM39.2352 7.784C40.6032 7.784 41.8512 8.024 42.9792 8.504C44.1312 8.96 45.1152 9.608 45.9312 10.448C46.7712 11.264 47.4192 12.248 47.8752 13.4C48.3552 14.552 48.5952 15.812 48.5952 17.18C48.5952 18.548 48.3552 19.808 47.8752 20.96C47.4192 22.112 46.7712 23.108 45.9312 23.948C45.1152 24.764 44.1312 25.412 42.9792 25.892C41.8512 26.348 40.6032 26.576 39.2352 26.576C37.8672 26.576 36.6072 26.348 35.4552 25.892C34.3272 25.412 33.3432 24.764 32.5032 23.948C31.6872 23.108 31.0392 22.112 30.5592 20.96C30.1032 19.808 29.8752 18.548 29.8752 17.18C29.8752 15.812 30.1032 14.552 30.5592 13.4C31.0392 12.248 31.6872 11.264 32.5032 10.448C33.3432 9.608 34.3272 8.96 35.4552 8.504C36.6072 8.024 37.8672 7.784 39.2352 7.784ZM39.2352 22.22C39.8352 22.22 40.4112 22.112 40.9632 21.896C41.5392 21.656 42.0432 21.32 42.4752 20.888C42.9072 20.456 43.2432 19.928 43.4832 19.304C43.7472 18.68 43.8792 17.972 43.8792 17.18C43.8792 16.388 43.7472 15.68 43.4832 15.056C43.2432 14.432 42.9072 13.904 42.4752 13.472C42.0432 13.04 41.5392 12.716 40.9632 12.5C40.4112 12.26 39.8352 12.14 39.2352 12.14C38.6112 12.14 38.0232 12.26 37.4712 12.5C36.9192 12.716 36.4272 13.04 35.9952 13.472C35.5632 13.904 35.2152 14.432 34.9512 15.056C34.7112 15.68 34.5912 16.388 34.5912 17.18C34.5912 17.972 34.7112 18.68 34.9512 19.304C35.2152 19.928 35.5632 20.456 35.9952 20.888C36.4272 21.32 36.9192 21.656 37.4712 21.896C38.0232 22.112 38.6112 22.22 39.2352 22.22ZM55.7018 10.664H55.9898C56.5418 9.776 57.2858 9.08 58.2218 8.576C59.1578 8.048 60.2258 7.784 61.4258 7.784C62.5298 7.784 63.5018 7.964 64.3418 8.324C65.1818 8.684 65.8658 9.2 66.3938 9.872C66.9458 10.52 67.3538 11.312 67.6178 12.248C67.9058 13.16 68.0498 14.18 68.0498 15.308V26H63.3338V15.884C63.3338 14.612 63.0458 13.676 62.4698 13.076C61.9178 12.452 61.1018 12.14 60.0218 12.14C59.3738 12.14 58.7978 12.284 58.2938 12.572C57.8138 12.836 57.3938 13.208 57.0338 13.688C56.6978 14.144 56.4338 14.696 56.2418 15.344C56.0738 15.968 55.9898 16.64 55.9898 17.36V26H51.2738V8.36H55.7018V10.664ZM74.7897 26.216C73.9257 26.216 73.1817 25.916 72.5577 25.316C71.9577 24.692 71.6577 23.948 71.6577 23.084C71.6577 22.22 71.9577 21.488 72.5577 20.888C73.1817 20.288 73.9257 19.988 74.7897 19.988C75.6537 19.988 76.3857 20.288 76.9857 20.888C77.5857 21.488 77.8857 22.22 77.8857 23.084C77.8857 23.948 77.5857 24.692 76.9857 25.316C76.3857 25.916 75.6537 26.216 74.7897 26.216Z" fill="#376EE8"/>
</svg>
