<svg width="71" height="27" viewBox="0 0 71 27" fill="none" xmlns="http://www.w3.org/2000/svg">
<path d="M8.064 26V4.832H0.864V0.223999H20.124V4.832H12.924V26H8.064ZM23.0043 0.223999H27.7203V7.46L27.4323 10.664H27.7203C28.2243 9.824 28.9443 9.14 29.8803 8.612C30.8403 8.06 31.9083 7.784 33.0843 7.784C35.3643 7.784 37.0443 8.456 38.1243 9.8C39.2283 11.144 39.7803 12.98 39.7803 15.308V26H35.0643V15.884C35.0643 14.66 34.7763 13.736 34.2003 13.112C33.6243 12.464 32.8203 12.14 31.7883 12.14C31.1403 12.14 30.5643 12.284 30.0603 12.572C29.5563 12.836 29.1243 13.208 28.7643 13.688C28.4283 14.168 28.1643 14.732 27.9723 15.38C27.8043 16.004 27.7203 16.676 27.7203 17.396V26H23.0043V0.223999ZM55.8802 23.696H55.5922C55.0402 24.584 54.2962 25.292 53.3602 25.82C52.4242 26.324 51.3562 26.576 50.1562 26.576C47.9242 26.576 46.2562 25.892 45.1522 24.524C44.0722 23.156 43.5322 21.332 43.5322 19.052V8.36H48.2482V18.476C48.2482 19.748 48.5242 20.696 49.0762 21.32C49.6522 21.92 50.4802 22.22 51.5602 22.22C52.2082 22.22 52.7722 22.088 53.2522 21.824C53.7562 21.536 54.1762 21.164 54.5122 20.708C54.8722 20.228 55.1362 19.676 55.3042 19.052C55.4962 18.404 55.5922 17.72 55.5922 17V8.36H60.3082V26H55.8802V23.696ZM67.192 26.216C66.328 26.216 65.584 25.916 64.96 25.316C64.36 24.692 64.06 23.948 64.06 23.084C64.06 22.22 64.36 21.488 64.96 20.888C65.584 20.288 66.328 19.988 67.192 19.988C68.056 19.988 68.788 20.288 69.388 20.888C69.988 21.488 70.288 22.22 70.288 23.084C70.288 23.948 69.988 24.692 69.388 25.316C68.788 25.916 68.056 26.216 67.192 26.216Z" fill="#376EE8"/>
</svg>
