<svg width="68" height="27" viewBox="0 0 68 27" fill="none" xmlns="http://www.w3.org/2000/svg">
<path d="M8.064 26V4.832H0.864V0.223999H20.124V4.832H12.924V26H8.064ZM33.0638 23.696H32.7758C32.2238 24.584 31.4798 25.292 30.5438 25.82C29.6078 26.324 28.5398 26.576 27.3398 26.576C25.1078 26.576 23.4398 25.892 22.3358 24.524C21.2558 23.156 20.7158 21.332 20.7158 19.052V8.36H25.4318V18.476C25.4318 19.748 25.7078 20.696 26.2598 21.32C26.8358 21.92 27.6638 22.22 28.7438 22.22C29.3918 22.22 29.9558 22.088 30.4358 21.824C30.9398 21.536 31.3598 21.164 31.6958 20.708C32.0558 20.228 32.3198 19.676 32.4878 19.052C32.6798 18.404 32.7758 17.72 32.7758 17V8.36H37.4918V26H33.0638V23.696ZM58.0598 21.752C57.2438 23.192 56.1398 24.356 54.7478 25.244C53.3798 26.132 51.6998 26.576 49.7078 26.576C48.3638 26.576 47.1158 26.348 45.9638 25.892C44.8358 25.412 43.8518 24.752 43.0118 23.912C42.1718 23.072 41.5118 22.088 41.0318 20.96C40.5758 19.808 40.3478 18.548 40.3478 17.18C40.3478 15.908 40.5758 14.708 41.0318 13.58C41.4878 12.428 42.1238 11.432 42.9398 10.592C43.7558 9.728 44.7158 9.044 45.8198 8.54C46.9478 8.036 48.1838 7.784 49.5278 7.784C50.9438 7.784 52.2038 8.024 53.3078 8.504C54.4118 8.96 55.3358 9.608 56.0798 10.448C56.8238 11.264 57.3878 12.236 57.7718 13.364C58.1558 14.492 58.3478 15.716 58.3478 17.036C58.3478 17.204 58.3478 17.348 58.3478 17.468C58.3238 17.612 58.3118 17.744 58.3118 17.864C58.2878 17.984 58.2758 18.116 58.2758 18.26H44.9918C45.0878 18.98 45.2798 19.604 45.5678 20.132C45.8798 20.636 46.2518 21.068 46.6838 21.428C47.1398 21.764 47.6318 22.016 48.1598 22.184C48.6878 22.328 49.2278 22.4 49.7798 22.4C50.8598 22.4 51.7478 22.16 52.4438 21.68C53.1638 21.176 53.7278 20.552 54.1358 19.808L58.0598 21.752ZM53.7758 14.912C53.7518 14.6 53.6438 14.252 53.4518 13.868C53.2838 13.484 53.0198 13.124 52.6598 12.788C52.3238 12.452 51.8918 12.176 51.3638 11.96C50.8598 11.744 50.2478 11.636 49.5278 11.636C48.5198 11.636 47.6318 11.924 46.8638 12.5C46.0958 13.076 45.5558 13.88 45.2438 14.912H53.7758ZM64.2038 26.216C63.3398 26.216 62.5958 25.916 61.9718 25.316C61.3718 24.692 61.0718 23.948 61.0718 23.084C61.0718 22.22 61.3718 21.488 61.9718 20.888C62.5958 20.288 63.3398 19.988 64.2038 19.988C65.0678 19.988 65.7998 20.288 66.3998 20.888C66.9998 21.488 67.2998 22.22 67.2998 23.084C67.2998 23.948 66.9998 24.692 66.3998 25.316C65.7998 25.916 65.0678 26.216 64.2038 26.216Z" fill="#376EE8"/>
</svg>
