<svg width="24" height="12" viewBox="0 0 24 12" fill="none" xmlns="http://www.w3.org/2000/svg">
<path d="M23.6729 0.248159C23.4809 0.0737089 23.2297 -0.0147866 22.9745 0.00213401C22.7193 0.0190546 22.4811 0.140006 22.3123 0.338389C20.6486 2.29327 18.9264 3.77403 17.1934 4.73915C15.5016 5.68241 13.7475 6.16041 11.9804 6.16041C10.2134 6.16041 8.46357 5.68241 6.77772 4.74026C5.05223 3.77514 3.34066 2.29521 1.69097 0.341433C1.52286 0.142283 1.28507 0.0202976 1.02992 0.00231223C0.774764 -0.0156731 0.523148 0.0718146 0.330421 0.24553C0.137694 0.419245 0.0196429 0.664958 0.00223765 0.928613C-0.0151676 1.19227 0.0694988 1.45227 0.237611 1.65142C1.4333 3.06742 2.66862 4.26088 3.92779 5.21881L2.37238 6.82633C2.19398 7.01371 2.09446 7.26634 2.09549 7.52919C2.09653 7.79204 2.19804 8.04383 2.37791 8.22969C2.55778 8.41556 2.80144 8.52045 3.05582 8.52152C3.3102 8.52259 3.55468 8.41975 3.73601 8.23541L5.57882 6.33118C5.6723 6.38653 5.76632 6.4405 5.8598 6.49282C6.69442 6.9629 7.57414 7.34191 8.48473 7.62373L7.57404 10.7128C7.53711 10.838 7.52439 10.9695 7.53663 11.0997C7.54887 11.23 7.58581 11.3565 7.64536 11.472C7.7049 11.5875 7.78588 11.6897 7.88366 11.7729C7.98145 11.8561 8.09413 11.9185 8.21527 11.9567C8.33642 11.9948 8.46364 12.008 8.5897 11.9953C8.71575 11.9827 8.83816 11.9445 8.94994 11.883C9.06171 11.8215 9.16067 11.7378 9.24115 11.6367C9.32163 11.5357 9.38206 11.4193 9.41899 11.2941L10.3774 8.04332C10.9081 8.11688 11.4431 8.15387 11.9786 8.15403C12.5153 8.15385 13.0513 8.11686 13.5833 8.04332L14.5411 11.2941C14.578 11.4193 14.6385 11.5357 14.7189 11.6367C14.7994 11.7378 14.8984 11.8215 15.0102 11.883C15.1219 11.9445 15.2443 11.9827 15.3704 11.9953C15.4965 12.008 15.6237 11.9948 15.7448 11.9567C15.866 11.9185 15.9786 11.8561 16.0764 11.7729C16.1742 11.6897 16.2552 11.5875 16.3147 11.472C16.3743 11.3565 16.4112 11.23 16.4235 11.0997C16.4357 10.9695 16.423 10.838 16.3861 10.7128L15.4754 7.62373C16.3882 7.34188 17.2704 6.96317 18.1078 6.49365C18.1959 6.44466 18.2838 6.39401 18.3719 6.34253L20.2035 8.23541C20.3848 8.41975 20.6293 8.52259 20.8836 8.52152C21.138 8.52045 21.3817 8.41556 21.5616 8.22969C21.7414 8.04383 21.8429 7.79204 21.844 7.52919C21.845 7.26634 21.7455 7.01371 21.5671 6.82633L20.0283 5.23514C21.3003 4.275 22.5496 3.0771 23.7594 1.65447C23.8431 1.55626 23.9073 1.44198 23.9482 1.31815C23.9892 1.19433 24.0061 1.06339 23.9981 0.932797C23.99 0.802209 23.9572 0.674534 23.9014 0.557064C23.8456 0.439593 23.768 0.334627 23.6729 0.248159Z" fill="white"/>
</svg>
