<svg width="24" height="18" viewBox="0 0 24 18" fill="none" xmlns="http://www.w3.org/2000/svg">
<path d="M12 1.92857C13.2145 1.92857 14.4597 2.23366 15.7013 2.83554C16.8013 3.36884 17.8837 4.12366 18.9188 5.07857C19.7711 5.86369 20.5382 6.73646 21.2076 7.68241C21.6254 8.27759 21.8689 8.7233 21.9932 8.98795C21.8684 9.25313 21.6273 9.69643 21.2202 10.2825C20.5605 11.2293 19.8034 12.1043 18.9613 12.8933C17.4142 14.3432 14.9507 16.0714 12 16.0714C10.762 16.0714 9.50116 15.765 8.25268 15.1607C7.15125 14.6274 6.07152 13.8721 5.04295 12.9161C4.19794 12.1317 3.43884 11.2595 2.77848 10.3144C2.36196 9.7133 2.12143 9.26438 2.0017 9.00187C2.12384 8.73884 2.36839 8.2883 2.79321 7.68295C3.46275 6.73707 4.23002 5.86431 5.08232 5.07911C6.11732 4.1242 7.19839 3.36938 8.29955 2.83607C9.54 2.23366 10.7853 1.92857 12 1.92857ZM12 0C5.11607 0 0 7.66071 0 9C0 10.3125 5.00893 18 12 18C19.0446 18 24 10.2054 24 9C24 7.66071 18.8839 0 12 0Z" fill="white"/>
</svg>
